<svg id="visual" viewBox="0 0 900 600" width="900" height="600" xmlns="http://www.w3.org/2000/svg" xmlns:xlink="http://www.w3.org/1999/xlink" version="1.1"><path d="M818 600L825.5 575C833 550 848 500 851 450C854 400 845 350 845 300C845 250 854 200 858.5 150C863 100 863 50 863 25L863 0L900 0L900 25C900 50 900 100 900 150C900 200 900 250 900 300C900 350 900 400 900 450C900 500 900 550 900 575L900 600Z" fill="#ffbd39"></path><path d="M665 600L647 575C629 550 593 500 573.5 450C554 400 551 350 576.5 300C602 250 656 200 678.5 150C701 100 692 50 687.5 25L683 0L864 0L864 25C864 50 864 100 859.5 150C855 200 846 250 846 300C846 350 855 400 852 450C849 500 834 550 826.5 575L819 600Z" fill="#ff9e39"></path><path d="M611 600L587 575C563 550 515 500 492.5 450C470 400 473 350 498.5 300C524 250 572 200 593 150C614 100 608 50 605 25L602 0L684 0L688.5 25C693 50 702 100 679.5 150C657 200 603 250 577.5 300C552 350 555 400 574.5 450C594 500 630 550 648 575L666 600Z" fill="#ff7f41"></path><path d="M566 600L540.5 575C515 550 464 500 440 450C416 400 419 350 447.5 300C476 250 530 200 546.5 150C563 100 542 50 531.5 25L521 0L603 0L606 25C609 50 615 100 594 150C573 200 525 250 499.5 300C474 350 471 400 493.5 450C516 500 564 550 588 575L612 600Z" fill="#f6604c"></path><path d="M233 600L237.5 575C242 550 251 500 251 450C251 400 242 350 249.5 300C257 250 281 200 293 150C305 100 305 50 305 25L305 0L522 0L532.5 25C543 50 564 100 547.5 150C531 200 477 250 448.5 300C420 350 417 400 441 450C465 500 516 550 541.5 575L567 600Z" fill="#e74258"></path><path d="M125 600L129.5 575C134 550 143 500 147.5 450C152 400 152 350 156.5 300C161 250 170 200 167 150C164 100 149 50 141.5 25L134 0L306 0L306 25C306 50 306 100 294 150C282 200 258 250 250.5 300C243 350 252 400 252 450C252 500 243 550 238.5 575L234 600Z" fill="#d12464"></path><path d="M89 600L87.5 575C86 550 83 500 81.5 450C80 400 80 350 80 300C80 250 80 200 83 150C86 100 92 50 95 25L98 0L135 0L142.5 25C150 50 165 100 168 150C171 200 162 250 157.5 300C153 350 153 400 148.5 450C144 500 135 550 130.5 575L126 600Z" fill="#b5086f"></path><path d="M0 600L0 575C0 550 0 500 0 450C0 400 0 350 0 300C0 250 0 200 0 150C0 100 0 50 0 25L0 0L99 0L96 25C93 50 87 100 84 150C81 200 81 250 81 300C81 350 81 400 82.5 450C84 500 87 550 88.5 575L90 600Z" fill="#930077"></path></svg>