<svg width="472" height="221" viewBox="0 0 472 221" fill="none" xmlns="http://www.w3.org/2000/svg">
<g filter="url(#filter0_df)">
<ellipse cx="236" cy="171" rx="230" ry="31" fill="#475738"/>
</g>
<path d="M359.17 54.1755L273.715 119.867C272.834 119.964 271.525 119.745 269.788 119.211C267.611 118.531 265.544 117.523 263.588 116.187C258.01 112.398 254.635 106.957 253.461 99.8643C252.311 93.0632 253.363 85.7642 256.616 77.9672C257.692 75.3925 259.013 72.7328 260.579 69.9881L263.441 65.2151C265.765 61.1102 267.685 57.0538 269.201 53.046C271.721 46.3421 272.406 41.387 271.256 38.1808L272.43 38.3265C273.311 38.4965 274.02 38.8123 274.558 39.2738C274.485 38.4965 274.277 37.5857 273.935 36.5412C273.225 34.4037 272.21 32.6063 270.889 31.1489L274.852 30.6024C278.203 30.6267 281.603 31.574 285.052 33.4443L284.796 31.4404C284.698 30.0802 284.832 29.3272 285.199 29.1815C285.762 28.9629 286.569 29.4972 287.621 30.7846C287.645 29.7158 287.878 28.5014 288.318 27.1411C289.174 24.4693 290.617 22.4532 292.648 21.093L294.666 24.7729C296.549 27.4205 298.849 29.2543 301.564 30.2745C303.937 31.1975 309.318 31.9019 317.708 32.3877C325.829 32.8735 331.553 33.8694 334.88 35.3753L338.403 35.6668C341.265 36.0311 343.906 36.6991 346.328 37.6707C354.131 40.8041 358.412 46.3057 359.17 54.1755Z" fill="#68AE28"/>
<path d="M255.992 107.006C250.464 96.6581 251.785 84.7684 259.955 71.3362C255.821 82.1937 257.215 90.8772 264.138 97.3868C267.147 100.204 270.938 102.269 275.512 103.581C279.989 104.844 284.734 105.257 289.749 104.819L272.65 120.158C270.155 119.94 267.379 118.737 264.321 116.551C260.823 114.001 258.047 110.819 255.992 107.006Z" fill="#56931F"/>
<path d="M392.707 49.3661C394.884 50.3134 396.779 53.5318 398.394 59.0213C399.837 64.0007 400.326 67.5226 399.862 69.5873C402.748 72.9149 405.561 79.4124 408.301 89.0797C411.407 99.9129 411.933 107.795 409.879 112.726C409.218 114.304 407.286 116.454 404.081 119.175C400.754 122.041 397.464 124.251 394.211 125.806L395.862 128.465C397.183 130.797 398.369 133.311 399.421 136.007C402.772 144.703 404.167 153.714 403.604 163.042C403.433 166.005 400.962 168.434 396.192 170.329C391.52 172.15 386.542 172.758 381.259 172.15C379.473 171.907 377.113 169.831 374.177 165.92C370.826 161.378 368.832 156.666 368.196 151.783C363.72 154.358 359.941 156.095 356.859 156.994L355.905 158.597C355.073 159.908 354.094 161.123 352.969 162.24C349.422 165.835 345.227 167.839 340.384 168.252C335.565 168.665 331.822 168.288 329.156 167.122C328.324 166.758 327.64 166.333 327.101 165.847L326.588 165.228L297.271 166.211L294.262 168.835C291.571 170.608 288.465 171.543 284.942 171.64C280.123 171.786 276.332 171.349 273.568 170.329C270.094 169.017 267.624 166.624 266.156 163.151C264.028 158.147 262.903 152.415 262.78 145.954C262.609 137.55 264.505 130.676 268.468 125.332C272.284 120.183 277.261 114.936 283.401 109.592C285.113 108.111 289.773 104.346 297.381 98.2976C301.27 95.2371 304.731 92.2738 307.765 89.4076C310.847 86.4929 312.718 84.404 313.379 83.1409C314.088 78.3073 315.017 73.4007 316.167 68.4214C318.491 58.4626 320.741 53.1432 322.918 52.4631C325.096 51.8072 328.3 52.4995 332.532 54.5398C334.635 55.5843 336.519 56.6773 338.182 57.8189L340.677 56.9445C342.879 56.2887 345.288 55.73 347.906 55.2685C356.271 53.8354 365.151 53.7504 374.544 55.0135C375.963 53.5075 379.094 52.0501 383.937 50.6413C388.609 49.2811 391.533 48.8561 392.707 49.3661Z" fill="#7CBEB3"/>
<path d="M399.348 63.8673L400.082 69.5875L396.302 64.013C396.694 62.3856 396.865 60.1874 396.816 57.4184L396.596 53.7749C397.721 56.1796 398.639 59.5437 399.348 63.8673Z" fill="#68A198"/>
<path d="M315.323 70.316C317.305 61.2802 319.249 56.058 321.157 54.6492C320.693 59.8957 320.534 65.0816 320.68 70.2067C320.778 73.2186 321.096 77.8093 321.634 83.9789C321.952 87.6466 321.573 90.9015 320.497 93.7434C319.543 96.2209 318.295 97.909 316.754 98.8077C315.238 99.6822 313.99 99.4879 313.012 98.2248C311.96 96.8403 311.605 94.4599 311.948 91.0836C312.632 84.3554 313.758 77.4329 315.323 70.316Z" fill="#68A198"/>
<path d="M381.552 162.933C383.436 166.43 385.686 168.616 388.304 169.491L386.909 172.26C383.216 172.988 379.95 172.029 377.113 169.381C373.712 166.151 370.704 160.285 368.086 151.784C363.855 154.334 359.158 156.241 353.997 157.504C348.909 158.767 342.793 159.532 335.651 159.799C334.525 160.163 333.706 160.941 333.192 162.131C332.679 163.273 332.666 164.305 333.156 165.228L331.101 167.633L326.698 164.973C326.82 164.147 327.505 161.682 328.752 157.577C329.976 153.642 330.746 150.229 331.064 147.339C331.994 138.691 329.572 130.87 323.799 123.875C328.936 129 337.938 132.218 350.804 133.53C364.552 134.914 376.232 133.676 385.845 129.814C382.763 131.781 380.562 134.842 379.241 138.995C378.067 142.736 377.712 146.877 378.177 151.419C378.641 155.791 379.767 159.629 381.552 162.933Z" fill="#68A198"/>
<path d="M262.413 142.019C263.465 150.545 268.162 156.022 276.503 158.451C279.708 159.374 283.083 159.714 286.63 159.471C289.859 159.253 292.513 158.621 294.592 157.577L297.271 166.539C295.363 168.385 292.794 169.831 289.565 170.875C283.108 172.964 276.613 172.053 270.082 168.143C266.927 166.248 264.664 161.439 263.294 153.715C262.854 151.116 262.56 148.48 262.413 145.808C262.291 143.574 262.291 142.311 262.413 142.019Z" fill="#68A198"/>
<path d="M340.971 82.6308C341.925 82.4608 342.94 82.6187 344.016 83.1045C340.323 85.9221 338.39 90.2456 338.219 96.0751C338.048 101.395 339.271 106.386 341.888 111.05C336.751 110.491 333.131 109.325 331.027 107.552C330.416 107.018 330.159 105.524 330.257 103.071C330.355 100.52 330.807 97.8483 331.614 95.055C333.718 87.6223 336.837 83.481 340.971 82.6308Z" fill="white"/>
<path d="M353.666 96.5124C354.816 99.5729 355.525 102.33 355.795 104.783C356.088 107.406 355.795 109.155 354.914 110.03C354.327 110.613 352.749 111.013 350.181 111.232C347.563 111.426 344.799 111.365 341.888 111.05C339.271 106.386 338.048 101.395 338.219 96.0752C338.39 90.2457 340.323 85.9221 344.016 83.1045C347.661 84.7805 350.878 89.2498 353.666 96.5124Z" fill="#D60040"/>
<path d="M396.633 80.8091C399.69 83.2866 401.513 86.9908 402.1 91.9216C402.467 95.0064 402.32 99.3421 401.659 104.929C400.583 105.342 399.544 105.621 398.541 105.767C397.513 105.937 396.743 105.937 396.229 105.767C394.786 105.305 394.064 101.637 394.064 94.7635C394.04 87.7438 394.896 83.0923 396.633 80.8091Z" fill="#D60040"/>
<path d="M396.633 80.8093C397.073 80.202 397.538 79.8498 398.027 79.7527C400.4 79.2426 402.699 82.1209 404.925 88.3876C407.102 94.6058 407.53 99.0508 406.209 101.723C405.598 102.986 404.081 104.054 401.659 104.929C402.32 99.3422 402.467 95.0065 402.1 91.9218C401.513 86.991 399.69 83.2868 396.633 80.8093Z" fill="white"/>
<path d="M375.094 77.0928C374.385 77.36 372.538 76.6192 369.554 74.8703C366.423 73.0729 364.919 71.6034 365.041 70.4617C365.212 68.9558 367.744 66.879 372.636 64.2314C377.602 61.5596 380.904 60.5759 382.543 61.2803C383.595 61.7175 383.044 64.2922 380.892 69.0044C378.715 73.7408 376.782 76.437 375.094 77.0928Z" fill="#006359"/>
<path d="M358.766 80.2263C358.693 79.9105 359.06 79.3154 359.867 78.441C360.699 77.5423 361.445 77.0079 362.105 76.8379L362.913 77.9674C363.598 79.109 364.283 80.7121 364.967 82.7767L364.49 83.9062C364.026 84.732 363.451 85.3028 362.766 85.6186L361.005 83.9426C359.782 82.6067 359.036 81.3679 358.766 80.2263Z" fill="#006359"/>
<path d="M387.129 88.169C387.888 92.4683 387.949 94.8729 387.313 95.383C386.75 95.8445 385.038 95.6623 382.176 94.8365C379.29 94.0106 377.651 93.2091 377.259 92.4318C377.382 90.6344 378.311 88.3876 380.048 85.6914C381.834 82.9953 383.277 81.6472 384.378 81.6472C385.454 81.6472 386.371 83.8211 387.129 88.169Z" fill="#006359"/>
<path d="M389.331 151.529C389.233 150.144 390.089 148.164 391.899 145.59C393.661 143.064 394.933 141.849 395.715 141.946C396.89 142.068 397.697 144.509 398.137 149.27C398.553 154.055 398.174 156.642 397 157.03C395.703 157.467 394.15 157.225 392.34 156.302C390.261 155.208 389.258 153.617 389.331 151.529Z" fill="#006359"/>
<path d="M273.017 131.052L279.072 131.307C281.787 131.842 283.352 132.437 283.768 133.093C284.453 134.186 284.001 136.493 282.411 140.015C280.845 143.513 279.524 145.31 278.448 145.407C277.518 145.48 275.635 144.557 272.797 142.638C269.935 140.72 268.516 139.384 268.541 138.631C268.565 137.659 269.042 136.275 269.972 134.477C270.999 132.461 272.014 131.319 273.017 131.052Z" fill="#006359"/>
<path d="M307.911 99.8279C308.547 100.921 307.52 103.957 304.829 108.937C302.139 113.916 300.072 116.563 298.628 116.879C297.307 117.195 295.155 116.624 292.171 115.167C289.357 113.831 287.486 112.604 286.557 111.487C286.263 111.123 286.459 110.054 287.144 108.281L288.244 105.694L293.161 101.832C296.488 99.2328 298.347 97.8848 298.738 97.7876L303.325 98.1884C306.016 98.6499 307.544 99.1964 307.911 99.8279Z" fill="#006359"/>
<path d="M345.154 86.7844C345.937 86.7844 346.622 87.5495 347.209 89.0798C347.796 90.7072 348.077 92.7354 348.053 95.1644C348.004 97.4719 347.686 99.2936 347.099 100.63C346.56 101.844 345.9 102.451 345.117 102.451C344.383 102.451 343.747 101.795 343.209 100.484C342.622 99.0993 342.304 97.3504 342.255 95.2372C342.157 92.6868 342.426 90.61 343.062 89.0069C343.625 87.5253 344.322 86.7844 345.154 86.7844Z" fill="white"/>
<path d="M394.908 87.5861L395.642 84.307C395.936 83.9183 396.217 83.7362 396.486 83.7604C396.926 83.7847 397.342 84.2584 397.733 85.1814C398.296 86.4202 398.602 88.169 398.651 90.428C398.675 92.5654 398.479 94.2293 398.064 95.4195C397.672 96.4882 397.183 97.0226 396.596 97.0226C396.229 97.0226 395.862 96.7554 395.495 96.221C395.104 95.6381 394.835 94.873 394.688 93.9257C394.394 92.2497 394.468 90.1365 394.908 87.5861Z" fill="white"/>
<path d="M379.277 56.6895C372.575 55.4021 365.787 54.9042 358.913 55.1957C351.526 55.4871 344.738 56.6773 338.549 58.7662C338.329 58.8391 338.023 58.5962 337.632 58.0376C337.216 57.4789 337.118 57.151 337.338 57.0538C344.359 54.6977 351.966 53.4347 360.161 53.2646C367.352 53.0946 373.92 53.7626 379.864 55.2685C382.898 56.0458 384.341 56.6166 384.194 56.981L379.277 56.6895Z" fill="#0D131A"/>
<path d="M399.091 66.8549C404.057 73.9961 407.677 82.2788 409.952 91.7032C411.933 99.9131 412.422 106.265 411.42 110.758C410.319 115.738 404.839 120.839 394.982 126.061C385.197 131.259 375.743 134.137 366.619 134.696C356.859 135.279 347.673 134.477 339.063 132.291C330.453 130.105 324.9 127.154 322.405 123.438C321.598 122.223 321.341 121.482 321.634 121.215C321.952 120.948 322.674 121.422 323.799 122.636C327.101 126.231 332.984 128.976 341.448 130.87C349.496 132.668 357.898 133.299 366.655 132.765C375.804 132.206 385.038 129.352 394.358 124.203C403.311 119.248 408.276 114.56 409.255 110.139C410.282 105.548 409.854 99.3545 407.971 91.5575C405.867 82.8375 402.503 74.9919 397.88 68.0208C395.972 65.1303 395.226 63.5272 395.642 63.2115C396.033 62.8957 397.183 64.1102 399.091 66.8549Z" fill="#0D131A"/>
<path d="M314.076 83.5417C312.461 86.5536 309.196 90.1363 304.279 94.2898C301.344 96.7431 296.402 100.629 289.455 105.949C283.12 110.953 278.228 115.361 274.779 119.175C270.033 124.421 266.878 129.583 265.312 134.659C263.428 140.756 263.331 147.606 265.018 155.208C266.584 162.374 268.81 166.794 271.696 168.47C274.803 170.268 278.986 171.057 284.245 170.839C289.675 170.62 293.43 169.357 295.51 167.049C298.714 163.479 299.961 157.698 299.252 149.707C298.518 141.545 296.023 135.036 291.767 130.178C290.104 128.259 289.394 127.093 289.639 126.68C289.883 126.267 290.923 127.032 292.758 128.975C298.115 134.683 301.099 141.667 301.71 149.925C302.273 157.771 300.622 163.843 296.757 168.142C294.433 170.741 290.25 172.199 284.208 172.515C278.362 172.83 273.727 171.992 270.302 170.001C266.829 167.985 264.285 163.224 262.67 155.718C261.031 147.994 261.19 140.853 263.147 134.295C264.639 129.34 267.587 124.373 271.99 119.393C275.194 115.75 279.83 111.487 285.896 106.605L300.94 94.5084C306.37 89.8691 310.419 85.6063 313.085 81.7199C313.207 81.5499 313.427 81.7564 313.745 82.3393C314.088 82.9466 314.198 83.3473 314.076 83.5417Z" fill="#0D131A"/>
<path d="M323.065 51.3702C324.582 50.8844 327.138 51.3702 330.734 52.8275C334.354 54.3092 337.326 56.1188 339.65 58.2563C341.485 59.9565 342.194 60.916 341.778 61.1346C341.387 61.3775 340.262 60.7824 338.402 59.3493C336.005 57.5519 333.229 56.0338 330.073 54.795C326.991 53.5562 324.924 53.119 323.872 53.4834C322.16 54.042 320.179 58.3534 317.928 66.4176C315.556 74.9433 314.014 83.8818 313.305 93.2334C313.109 95.9295 312.767 97.1683 312.278 96.9497C311.764 96.7311 311.556 95.4559 311.654 93.124C311.972 85.0356 313.195 76.5707 315.323 67.7292C317.745 57.7219 320.326 52.2689 323.065 51.3702Z" fill="#0D131A"/>
<path d="M373.37 54.5034C375.498 52.9003 378.764 51.37 383.167 49.9127C388.132 48.261 391.581 47.8723 393.514 48.7468C395.422 49.5969 397.159 52.4509 398.724 57.3089C400.167 61.8267 400.975 66.3689 401.146 70.9353C401.146 71.1539 400.84 70.9232 400.229 70.2431C399.593 69.563 399.275 69.1015 399.275 68.8586C399.128 65.1665 398.272 61.2802 396.706 57.1995C395.214 53.3132 393.832 51.0786 392.56 50.4956C391.361 49.9612 388.622 50.3013 384.341 51.5158C380.011 52.7303 376.929 54.0298 375.095 55.4143C374.923 55.56 374.544 55.4871 373.957 55.1957C373.394 54.8799 373.199 54.6491 373.37 54.5034Z" fill="#0D131A"/>
<path d="M374.728 76.0727C375.926 76.0484 377.602 73.7773 379.754 69.2594C381.882 64.8144 382.677 62.4583 382.139 62.1912C380.941 61.5839 377.969 62.4705 373.223 64.8509C368.453 67.2313 366.056 69.0651 366.032 70.3525C366.007 71.154 367.059 72.2835 369.187 73.7409C371.364 75.1983 373.211 75.9755 374.728 76.0727ZM371.792 63.8671C377.002 61.0738 380.721 59.8836 382.947 60.2966C383.705 60.4423 383.925 61.4382 383.607 63.2842C383.313 64.9845 382.653 66.9762 381.626 69.2594C379.057 74.9432 376.758 77.7365 374.728 77.6394C373.113 77.5422 370.96 76.6192 368.27 74.8703C365.457 73.0486 364.05 71.5062 364.05 70.2432C364.05 68.7615 366.631 66.6362 371.792 63.8671Z" fill="#0D131A"/>
<path d="M364.234 82.9951C364.307 82.8008 364.038 81.9021 363.426 80.299C362.815 78.6716 362.375 77.8457 362.106 77.8214C361.885 77.7971 361.396 78.1251 360.638 78.8052C359.88 79.4853 359.5 79.9954 359.5 80.3354C359.525 80.6512 360.039 81.477 361.041 82.813C362.044 84.1003 362.631 84.744 362.803 84.744C362.949 84.744 363.206 84.5011 363.573 84.0153L364.234 82.9951ZM364.307 79.1695C365.065 80.9669 365.457 82.1936 365.481 82.8494C365.506 83.3838 365.114 84.1125 364.307 85.0355C363.475 85.9828 362.852 86.3592 362.436 86.1649C361.947 85.9463 361.103 85.0476 359.904 83.4688C358.608 81.7928 358.008 80.639 358.106 80.0075C358.204 79.3517 358.779 78.5258 359.831 77.53C360.882 76.5827 361.677 76.1212 362.216 76.1454C362.778 76.194 363.475 77.202 364.307 79.1695Z" fill="#0D131A"/>
<path d="M384.121 82.7037C383.362 82.6551 382.115 84.0761 380.378 86.9666C378.69 89.8327 377.944 91.5452 378.14 92.1038C378.336 92.6139 379.718 93.2333 382.286 93.962C384.879 94.6907 386.359 94.885 386.726 94.5449C387.288 94.0105 387.178 91.9095 386.396 88.2418C385.613 84.5983 384.855 82.7523 384.121 82.7037ZM379.131 85.7642C381.259 82.1208 382.934 80.3598 384.157 80.4812C385.698 80.627 386.934 83.1531 387.863 88.0596C388.768 92.9418 388.695 95.638 387.643 96.148C386.738 96.6095 384.744 96.3302 381.662 95.31C378.629 94.3142 376.966 93.464 376.672 92.7596C376.207 91.7152 377.027 89.3834 379.131 85.7642Z" fill="#0D131A"/>
<path d="M332.495 89.9542C335.357 84.1976 338.427 81.5014 341.705 81.8658C346.328 82.4002 350.303 86.2743 353.63 93.4884C355.024 96.5489 355.941 99.5729 356.382 102.561C356.846 105.67 356.687 108.147 355.905 109.993C355.489 111.013 353.923 111.693 351.208 112.034C348.713 112.325 345.814 112.301 342.512 111.961C339.185 111.621 336.348 111.025 333.999 110.175C331.407 109.277 330 108.244 329.78 107.078C328.679 101.54 329.584 95.8323 332.495 89.9542ZM349.74 90.4643C347.172 86.1408 344.432 83.8211 341.521 83.5053C340.372 83.3839 339.124 84.0154 337.779 85.3999C335.748 87.4888 334.109 90.5007 332.862 94.4357C331.541 98.7106 331.15 102.803 331.688 106.714C331.884 108.22 335.54 109.362 342.659 110.139C349.777 110.94 353.642 110.637 354.253 109.228C354.889 107.698 354.779 105.026 353.923 101.212C353.018 97.229 351.624 93.6463 349.74 90.4643Z" fill="#0D131A"/>
<path d="M403.788 87.5495C401.953 83.0316 400.106 80.7727 398.247 80.7727C396.608 80.7727 395.605 84.6226 395.238 92.3224C394.871 99.9736 395.336 104.176 396.633 104.929C397.489 105.414 399.103 105.147 401.476 104.127C403.849 103.107 405.133 102.148 405.329 101.249C406.283 96.9496 405.769 92.3831 403.788 87.5495ZM393.514 91.703C393.93 83.2988 395.507 79.0967 398.247 79.0967C400.62 79.0967 402.919 81.6107 405.145 86.6386C407.469 91.9337 408.117 96.8767 407.09 101.467C406.723 103.022 404.913 104.406 401.659 105.621C398.504 106.811 396.498 107.042 395.642 106.313C394.835 105.657 394.235 103.86 393.844 100.921C393.453 98.1033 393.343 95.0307 393.514 91.703Z" fill="#0D131A"/>
<path d="M298.335 97.0955L304.756 97.4962C307.251 97.9335 308.682 98.5043 309.049 99.2087C309.709 100.545 308.511 103.969 305.453 109.483C302.395 115.046 300.059 117.827 298.445 117.827C296.904 117.827 294.384 117.062 290.886 115.531C287.193 113.928 285.346 112.617 285.346 111.596C285.346 111.013 285.615 110.139 286.153 108.973L287.914 105.548C288.037 105.354 288.367 105.232 288.905 105.184C289.468 105.16 289.688 105.245 289.565 105.439C288.905 106.653 288.379 107.831 287.988 108.973C287.645 109.969 287.474 110.686 287.474 111.123C287.572 111.779 289.15 112.787 292.207 114.147C295.192 115.483 297.258 116.163 298.408 116.187C299.484 115.847 301.246 113.37 303.692 108.754C306.138 104.139 307.19 101.322 306.847 100.302C306.652 99.8888 305.6 99.5001 303.692 99.1358L298.005 98.735C297.76 98.7593 297.699 98.4921 297.821 97.9335C297.943 97.3991 298.115 97.1197 298.335 97.0955Z" fill="#0D131A"/>
<path d="M273.348 131.708C272.589 132.072 271.721 133.08 270.742 134.732C269.764 136.36 269.311 137.489 269.385 138.12C269.483 138.776 270.779 139.979 273.274 141.727C275.769 143.476 277.384 144.302 278.118 144.205C278.851 144.108 279.989 142.432 281.53 139.177C283.071 135.922 283.646 134.088 283.254 133.675C282.814 133.238 281.212 132.728 278.448 132.145C275.635 131.562 273.935 131.417 273.348 131.708ZM269.275 133.785C270.424 131.89 271.513 130.676 272.54 130.141L278.888 130.433C282.411 131.089 284.465 131.878 285.052 132.801C285.59 133.651 284.979 136.032 283.218 139.942C281.457 143.829 280.013 145.978 278.888 146.391C278.032 146.731 276.014 145.796 272.834 143.586C269.605 141.351 267.905 139.602 267.734 138.339C267.611 137.246 268.125 135.728 269.275 133.785Z" fill="#0D131A"/>
<path d="M390.138 151.456V151.492C390.187 153.508 391.178 154.978 393.11 155.901C394.847 156.727 396.021 156.86 396.633 156.301C397.269 155.718 397.489 153.508 397.293 149.67C397.097 145.76 396.523 143.586 395.569 143.149C395.055 142.93 394.015 144.023 392.45 146.428C390.909 148.832 390.138 150.508 390.138 151.456ZM391.202 145.189C393.086 142.201 394.541 140.72 395.569 140.744C397.232 140.768 398.272 143.404 398.687 148.65C399.103 153.8 398.761 156.775 397.66 157.577C396.755 158.257 395.104 158.135 392.707 157.212C389.967 156.144 388.56 154.358 388.487 151.856C388.463 150.35 389.368 148.128 391.202 145.189Z" fill="#0D131A"/>
<path d="M407.31 109.046C407.286 109.993 407.151 110.77 406.906 111.378L406.173 112.58C404.974 113.989 402.112 115.762 397.587 117.899C392.915 120.11 388.866 121.555 385.442 122.235C379.204 123.498 369.627 123.607 356.712 122.563C343.796 121.543 335.638 120.013 332.238 117.972C331.676 117.608 331.162 117.013 330.697 116.187C330.281 115.483 329.976 114.705 329.78 113.855C329.413 112.325 329.388 111.463 329.706 111.268C330.024 111.074 330.526 111.778 331.211 113.381C331.627 114.329 332.067 115.057 332.532 115.568L333.999 116.661C336.739 118.142 344.065 119.454 355.978 120.595C368.869 121.834 378.58 121.798 385.111 120.486C388.047 119.879 391.532 118.701 395.569 116.952C399.311 115.325 402.112 113.843 403.971 112.507C404.656 111.997 405.157 111.475 405.475 110.94C405.818 110.382 406.038 109.702 406.136 108.9C406.307 107.443 406.552 106.763 406.87 106.86C407.188 106.981 407.335 107.71 407.31 109.046Z" fill="#0D131A"/>
<path d="M351.685 79.1331C352.541 79.9104 353.373 80.8577 354.18 81.975C355.036 83.1409 355.648 84.1975 356.015 85.1448C356.553 86.505 356.577 87.2702 356.088 87.4402C355.574 87.5859 355 87.0516 354.364 85.8371C353.312 83.7725 352.027 81.9021 350.511 80.2262C349.092 78.5988 348.53 77.6515 348.823 77.3843C349.141 77.1171 350.095 77.7 351.685 79.1331Z" fill="#0D131A"/>
<path d="M393.037 79.3882C392.572 80.7241 392.279 82.1572 392.156 83.6874C392.058 85.0234 391.753 85.6792 391.239 85.6549C390.725 85.6549 390.505 84.9991 390.578 83.6874C390.652 82.0843 391.068 80.5055 391.826 78.951C392.511 77.5664 393.012 76.9106 393.33 76.9835C393.624 77.0807 393.526 77.8822 393.037 79.3882Z" fill="#0D131A"/>
<path d="M376.929 117.572C376.391 117.304 375.963 116.964 375.645 116.551C375.327 116.163 375.217 115.883 375.315 115.713L376.452 115.75C377.161 115.896 377.687 116.126 378.03 116.442C378.47 116.879 378.556 117.256 378.287 117.572C378.018 117.887 377.565 117.887 376.929 117.572Z" fill="#0D131A"/>
<path d="M389.441 115.75C388.927 116.381 388.463 116.6 388.047 116.406C387.631 116.211 387.606 115.811 387.973 115.203C388.242 114.766 388.67 114.378 389.258 114.037C389.796 113.697 390.138 113.588 390.285 113.71C390.383 113.807 390.358 114.062 390.212 114.475L389.441 115.75Z" fill="#0D131A"/>
<path d="M345.337 83.2867C345.557 83.3596 345.655 83.7118 345.631 84.3433C345.606 84.9749 345.496 85.2299 345.301 85.1085C344.053 84.3312 342.879 84.9263 341.778 86.8937C340.751 88.6912 340.041 91.1809 339.65 94.3628C339.234 97.6419 339.283 100.702 339.797 103.544C340.408 106.775 341.546 109.082 343.209 110.467C343.405 110.613 343.283 110.831 342.842 111.123C342.402 111.39 342.084 111.451 341.888 111.305C339.882 109.823 338.5 107.37 337.742 103.945C337.082 100.86 337.008 97.5569 337.522 94.0349C338.036 90.5615 338.977 87.7925 340.347 85.7278C341.839 83.5175 343.503 82.7038 345.337 83.2867Z" fill="#0D131A"/>
<path d="M396.009 81.1006C396.865 80.4447 397.856 80.7241 398.981 81.9386C400.106 83.1287 401.072 84.9019 401.88 87.258C403.886 93.1604 403.971 98.9656 402.137 104.674C402.063 104.892 401.782 105.05 401.293 105.147C400.803 105.22 400.583 105.147 400.632 104.929C402.124 100.314 402.173 95.0792 400.779 89.2254C400.216 86.8693 399.519 85.0112 398.687 83.651C397.856 82.2665 397.097 81.7564 396.413 82.1207C396.217 82.2422 396.058 82.1329 395.936 81.7928C395.813 81.477 395.838 81.2463 396.009 81.1006Z" fill="#0D131A"/>
<path d="M393.294 126.352C393.171 126.158 393.428 125.866 394.064 125.478C394.676 125.065 395.03 124.956 395.128 125.15C402.075 136.299 405.17 149.306 404.411 164.171C404.338 165.556 403.274 166.989 401.219 168.47C399.262 169.879 396.841 171.057 393.954 172.005C386.958 174.288 381.699 174.203 378.177 171.75C375.853 170.122 373.443 167.013 370.948 162.422C368.551 158.026 367.328 154.686 367.279 152.403C367.279 152.184 367.622 151.941 368.306 151.674L369.297 151.565C369.346 153.824 370.483 157.018 372.709 161.147C375.082 165.544 377.467 168.58 379.864 170.256C382.922 172.369 387.533 172.43 393.697 170.438C396.192 169.636 398.296 168.641 400.008 167.45C401.794 166.236 402.711 165.119 402.76 164.098C403.47 150.205 400.314 137.623 393.294 126.352Z" fill="#0D131A"/>
<path d="M372.783 149.452C366.447 154.383 358.889 157.722 350.107 159.471C341.962 161.074 334.684 160.989 328.276 159.216C328.055 159.143 328.019 158.767 328.165 158.087C328.288 157.431 328.459 157.127 328.679 157.176C334.966 158.925 341.998 159.034 349.777 157.504C357.678 155.949 364.845 152.998 371.279 148.65C373.725 146.999 375.082 146.343 375.351 146.683C375.596 146.999 374.74 147.922 372.783 149.452Z" fill="#0D131A"/>
<path d="M355.648 156.812C355.77 156.617 356.333 156.447 357.336 156.302L358.657 156.411C356.749 159.52 354.388 162.228 351.575 164.536C348.346 167.183 345.178 168.701 342.072 169.09L331.064 168.762C328.178 168.058 326.478 166.989 325.964 165.556C325.891 165.337 326.074 164.973 326.514 164.463C326.93 163.928 327.175 163.771 327.248 163.989C327.737 165.349 329.242 166.37 331.761 167.05C334.501 167.803 337.864 167.936 341.852 167.45C344.175 167.159 346.634 166.005 349.227 163.989C351.795 161.997 353.935 159.605 355.648 156.812Z" fill="#0D131A"/>
<path d="M270.265 37.4887C270.461 37.343 270.938 37.343 271.696 37.4887C272.871 37.7073 273.898 38.2295 274.779 39.0554C274.974 39.2011 274.986 39.4319 274.815 39.7476C274.668 40.0391 274.497 40.112 274.302 39.9662C273.788 39.529 273.286 39.2376 272.797 39.0918L272.1 39.0554L272.247 40.2213L272.467 42.4074C272.54 45.7107 271.452 50.0343 269.201 55.378C267.44 59.6287 265.177 64.0251 262.413 68.5673C253.705 82.9225 251.785 95.3102 256.653 105.73C258.487 109.665 261.117 112.884 264.541 115.386C267.575 117.572 270.486 118.762 273.274 118.956C273.494 118.98 273.458 119.26 273.164 119.794C272.895 120.353 272.638 120.62 272.394 120.596C269.14 120.377 265.887 119.102 262.634 116.77C259.013 114.147 256.261 110.746 254.378 106.568C249.486 95.7353 251.601 82.8253 260.726 67.8386C265.031 60.746 267.954 54.9165 269.495 50.3501C271.134 45.5164 271.403 41.5936 270.302 38.5817C270.082 38.0231 270.07 37.6587 270.265 37.4887Z" fill="#0D131A"/>
<path d="M289.272 36.2133C289.443 36.3833 289.443 36.6505 289.272 37.0149C289.101 37.4035 288.929 37.5128 288.758 37.3428C286.924 35.4482 284.539 33.9301 281.603 32.7885C278.839 31.744 276.356 31.2825 274.155 31.404C273.127 31.4768 272.577 31.6104 272.504 31.8047C272.43 31.9748 272.675 32.497 273.237 33.3714C275.904 37.5492 275.977 43.7188 273.458 51.8801C272.088 56.2523 269.947 61.6931 267.037 68.2028C262.731 79.4489 262.389 89.4805 266.009 98.2976C267.501 101.941 269.568 105.026 272.21 107.552C274.656 109.908 277.298 111.499 280.136 112.325C280.331 112.373 280.184 112.616 279.695 113.054C279.206 113.467 278.851 113.649 278.631 113.6C271.122 111.414 265.972 105.852 263.184 96.9131C260.273 87.6588 260.982 77.7972 265.312 67.3283L268.541 60.0779C270.082 56.5316 271.244 53.4347 272.027 50.7871C274.424 42.8201 274.143 36.9541 271.183 33.1893C270.18 31.9019 269.715 31.0761 269.788 30.7117C269.862 30.2988 270.596 30.0073 271.99 29.8373C274.607 29.4972 277.543 29.898 280.796 31.0396C284.245 32.2541 287.07 33.9787 289.272 36.2133Z" fill="#0D131A"/>
<path d="M286.703 29.1816L288.061 30.2746C288.208 30.4447 288.171 30.7969 287.951 31.3312C287.731 31.8413 287.547 32.0113 287.401 31.8413L286.63 30.9304C286.19 30.4932 285.86 30.3232 285.639 30.4204C285.444 30.5175 285.37 30.8333 285.419 31.3677L285.749 33.4444C285.798 33.6387 285.603 33.7359 285.162 33.7359C284.722 33.7116 284.49 33.5902 284.465 33.3716L284.098 31.1126C284 29.8739 284.196 29.0601 284.685 28.6715C285.101 28.3557 285.774 28.5258 286.703 29.1816Z" fill="#0D131A"/>
<path d="M342.989 39.4561C348.248 43.6582 351.012 48.7347 351.281 54.6857C351.306 54.9286 350.988 55.1107 350.327 55.2322C349.667 55.3779 349.337 55.3293 349.337 55.0864C349.092 49.6456 346.621 44.9455 341.925 40.9863C336.274 36.2255 328.373 33.663 318.222 33.2986C309.538 32.9829 303.325 32.0234 299.582 30.4203C296.549 29.133 294.36 26.959 293.014 23.8986C292.721 23.2427 292.476 22.8905 292.281 22.842C292.06 22.7691 291.706 23.012 291.217 23.5706C289.578 25.3681 288.611 27.5663 288.318 30.1653C288.024 32.8371 288.587 34.9139 290.006 36.3956C292.868 39.3103 295.13 42.7473 296.794 46.7065C297.821 49.1598 299.069 53.2526 300.536 58.9849C302.322 65.9561 304.291 71.1419 306.444 74.5424C308.18 77.2872 310.724 79.7647 314.076 81.9751C314.222 82.0479 314.125 82.4001 313.782 83.0317C313.464 83.6389 313.207 83.8818 313.012 83.7604C308.706 80.9428 305.612 77.9551 303.729 74.7975C301.992 71.8827 300.316 67.1463 298.702 60.588C296.965 53.4712 295.669 48.844 294.812 46.7065C293.491 43.3303 291.498 40.2698 288.832 37.525C286.924 35.5576 286.312 32.655 286.997 28.8172C287.657 25.198 288.991 22.6112 290.996 21.0567C291.901 20.3523 292.537 20.0365 292.904 20.1094C293.271 20.1822 293.626 20.6923 293.968 21.6396C295.436 25.4288 297.54 27.9306 300.279 29.1451C303.362 30.481 309.355 31.319 318.259 31.6591C328.728 32.0234 336.971 34.6224 342.989 39.4561Z" fill="#0D131A"/>
<path d="M353.703 41.2778C358.375 45.2613 360.393 49.5727 359.757 54.2121C359.733 54.4307 359.366 54.5278 358.657 54.5035C357.947 54.4793 357.605 54.3578 357.629 54.1392C358.167 50.1557 356.577 46.4151 352.859 42.9174C348.578 38.9096 342.622 36.6264 334.99 36.0677C334.746 36.0434 334.036 35.7519 332.862 35.1933C331.663 34.6103 331.174 34.3188 331.394 34.3188C340.836 34.3188 348.273 36.6385 353.703 41.2778Z" fill="#0D131A"/>
<path d="M295.766 135.169C297.087 130.044 298.934 126.206 301.307 123.656L328.496 131.526C330.868 140.513 331.101 149.075 329.193 157.212C328.043 162.046 326.245 166.357 323.799 170.146C322.478 172.211 319.787 173.571 315.727 174.227C311.446 174.931 307.324 174.506 303.362 172.952C300.475 171.835 298.213 169.102 296.574 164.754C295.057 160.795 294.238 156.046 294.115 150.508C293.993 145.092 294.543 139.979 295.766 135.169Z" fill="#7CBEB3"/>
<path d="M301.6 145.189C301.747 143.707 303.545 141.703 306.994 139.177C310.443 136.651 312.632 135.74 313.562 136.444C314.516 137.149 314.699 140.987 314.112 147.958C313.525 154.929 312.632 158.463 311.434 158.56C310.724 158.609 308.89 156.666 305.93 152.731C302.946 148.747 301.503 146.233 301.6 145.189Z" fill="#006359"/>
<path d="M295.069 136.7C295.192 147.12 297.552 155.804 302.151 162.75C306.554 169.479 312.058 173.183 318.662 173.863C315.971 174.543 313.061 174.762 309.93 174.519C303.667 174.033 299.448 171.458 297.271 166.795C295.094 162.155 294.079 155.743 294.225 147.557L295.069 136.7Z" fill="#68A198"/>
<path d="M299.729 127.664C296.549 133.081 295.106 140.841 295.399 150.946C295.717 161.463 297.943 168.228 302.077 171.24C304.89 173.28 308.657 174.094 313.379 173.681C317.928 173.268 320.937 172.029 322.405 169.964C325.731 165.276 327.909 159.617 328.936 152.986C329.865 147.011 329.743 141.327 328.569 135.935C327.982 133.238 327.909 131.793 328.349 131.599C328.789 131.405 329.376 132.619 330.11 135.242C331.627 140.707 331.932 146.622 331.027 152.986C330.049 159.908 327.811 165.847 324.313 170.802C322.503 173.353 318.76 174.847 313.085 175.284C307.532 175.697 303.349 174.883 300.536 172.843C298.506 171.361 296.83 168.738 295.51 164.973C294.238 161.378 293.467 157.249 293.198 152.585C292.537 141.995 294.225 133.433 298.261 126.899C299.68 124.591 300.659 123.486 301.197 123.583C301.759 123.656 301.27 125.016 299.729 127.664Z" fill="#0D131A"/>
<path d="M302.481 144.825C302.432 145.675 303.692 148.055 306.26 151.966C308.878 155.949 310.553 157.892 311.287 157.795C312.094 157.674 312.755 154.382 313.268 147.921C313.782 141.436 313.66 137.926 312.902 137.392C312.192 136.906 310.284 137.817 307.178 140.124C304.095 142.432 302.53 143.999 302.481 144.825ZM300.793 144.46C300.867 142.687 302.909 140.452 306.921 137.756C310.859 135.133 313.22 134.186 314.002 134.914C315.299 136.153 315.666 140.367 315.103 147.557C314.516 154.747 313.476 158.767 311.984 159.617C310.957 160.224 308.817 158.305 305.563 153.86C302.31 149.44 300.72 146.306 300.793 144.46Z" fill="#0D131A"/>
<path d="M273.127 170.219C273.005 169.855 273.47 169.236 274.522 168.361C275.598 167.487 276.405 167.086 276.943 167.159C277.922 167.28 278.594 168.337 278.961 170.329C279.304 172.175 279.328 173.231 279.035 173.498C278.692 173.814 277.738 173.62 276.173 172.915C274.485 172.162 273.47 171.264 273.127 170.219Z" fill="white"/>
<path d="M284.062 172.952C282.349 172.175 281.493 171.397 281.493 170.62C281.493 169.94 281.995 169.114 282.998 168.142C283.976 167.171 284.722 166.807 285.236 167.049C286.043 167.438 286.703 168.58 287.217 170.474C287.706 172.296 287.731 173.353 287.291 173.644C286.826 173.96 285.749 173.729 284.062 172.952Z" fill="white"/>
<path d="M289.822 170.729C289.651 169.466 290.116 168.3 291.217 167.232L292.941 165.993C293.846 166.382 294.556 167.547 295.069 169.491C295.534 171.239 295.644 172.26 295.399 172.551L292.501 172.478C290.789 172.065 289.896 171.482 289.822 170.729Z" fill="white"/>
<path d="M304.242 173.79C304.193 173.158 304.413 172.478 304.903 171.75C305.49 170.875 306.236 170.45 307.141 170.474C308.046 170.499 308.743 170.839 309.232 171.495C309.624 172.102 309.795 172.843 309.746 173.717C309.697 174.519 309.416 175.417 308.902 176.413C308.413 177.409 308.022 177.907 307.728 177.907C307.41 177.907 306.774 177.385 305.82 176.34C304.817 175.247 304.291 174.397 304.242 173.79Z" fill="white"/>
<path d="M311.544 174.591C311.471 173.401 311.801 172.417 312.535 171.64C313.122 170.984 313.709 170.656 314.296 170.656C314.736 170.656 315.25 170.984 315.837 171.64C316.424 172.32 316.791 173 316.938 173.681C317.036 174.118 316.925 174.871 316.607 175.939C316.289 177.081 315.91 177.761 315.47 177.98C315.03 178.223 314.296 177.956 313.268 177.178C312.168 176.377 311.593 175.514 311.544 174.591Z" fill="white"/>
<path d="M318.772 174.373C318.087 173.644 318.148 172.539 318.956 171.057C319.763 169.576 320.558 168.944 321.341 169.163C322.075 169.406 322.784 170.426 323.469 172.223C324.105 173.948 324.264 175.053 323.946 175.539C323.652 175.976 322.894 176.073 321.671 175.83C320.423 175.563 319.457 175.077 318.772 174.373Z" fill="white"/>
<path d="M331.248 167.742C331.15 167.232 331.627 166.6 332.679 165.847C333.706 165.119 334.452 164.851 334.917 165.046C335.724 165.41 336.25 166.43 336.495 168.106C336.739 169.734 336.641 170.645 336.201 170.839C335.761 171.033 334.892 170.802 333.596 170.147C332.202 169.418 331.419 168.616 331.248 167.742Z" fill="white"/>
<path d="M341.191 170.219C339.699 169.709 338.831 169.126 338.586 168.471C338.366 167.912 338.745 167.11 339.723 166.066C340.702 165.046 341.411 164.633 341.852 164.827C342.708 165.191 343.307 166.127 343.649 167.633C343.943 168.944 343.967 169.843 343.723 170.329L341.191 170.219Z" fill="white"/>
<path d="M345.19 167.195C344.897 166.612 345.313 165.774 346.438 164.681C347.539 163.613 348.334 163.175 348.823 163.37C349.386 163.613 349.936 164.499 350.474 166.03C350.988 167.535 351.122 168.458 350.878 168.799L348.089 168.726C346.475 168.337 345.508 167.827 345.19 167.195Z" fill="white"/>
<path d="M386.799 172.806C386.457 172.466 386.726 171.592 387.606 170.183C388.487 168.75 389.233 168.045 389.845 168.07C390.652 168.118 391.557 168.993 392.56 170.693C393.514 172.296 393.881 173.243 393.661 173.535C393.392 173.875 392.352 173.984 390.542 173.863C388.658 173.741 387.411 173.389 386.799 172.806Z" fill="white"/>
<path d="M394.798 170.802C394.456 170.438 394.676 169.527 395.459 168.07C396.217 166.612 396.877 165.908 397.44 165.956C397.978 166.005 398.736 166.855 399.715 168.507C400.644 170.134 401.023 171.13 400.852 171.494C400.632 171.859 399.739 171.992 398.174 171.895C396.51 171.798 395.385 171.434 394.798 170.802Z" fill="white"/>
<path d="M400.926 167.45C400.534 166.965 400.657 166.042 401.293 164.681C401.904 163.37 402.393 162.738 402.76 162.787C403.396 162.86 404.179 163.661 405.109 165.191C406.014 166.697 406.356 167.645 406.136 168.033C405.965 168.446 405.194 168.604 403.824 168.507C402.381 168.41 401.415 168.058 400.926 167.45Z" fill="white"/>
<path d="M274.705 168.143L276.32 170.146C277.396 171.628 277.995 172.782 278.117 173.608L275.549 172.296C273.861 171.349 273.066 170.669 273.164 170.256C273.262 169.843 273.555 169.369 274.045 168.835L274.705 168.143Z" fill="#DBDCDC"/>
<path d="M282.961 168.288L284.355 170.001C285.334 171.361 285.982 172.588 286.3 173.681C283.291 172.636 281.75 171.604 281.677 170.584C281.628 169.952 281.823 169.381 282.264 168.871L282.961 168.288Z" fill="#DBDCDC"/>
<path d="M294.482 172.806C292.917 172.466 291.791 172.126 291.107 171.786C290.324 171.422 289.883 170.972 289.786 170.438C289.688 169.977 289.786 169.442 290.079 168.835L290.556 168.07C291.217 168.386 292.024 169.163 292.978 170.402C293.785 171.47 294.286 172.272 294.482 172.806Z" fill="#DBDCDC"/>
<path d="M305.71 171.239L306.077 173.462C306.395 175.138 306.786 176.45 307.251 177.397L305.857 176.195C304.952 175.199 304.524 174.179 304.572 173.134C304.621 172.405 304.805 171.871 305.123 171.531C305.367 171.264 305.563 171.167 305.71 171.239Z" fill="#DBDCDC"/>
<path d="M312.314 172.406L313.709 174.664L315.543 178.016C314.858 177.798 314.173 177.482 313.489 177.069C312.119 176.243 311.483 175.357 311.581 174.409C311.678 173.486 311.825 172.879 312.021 172.588L312.314 172.406Z" fill="#DBDCDC"/>
<path d="M318.956 171.094L320.68 172.733C321.903 173.972 322.649 175.004 322.918 175.83L320.643 175.102C319.127 174.519 318.393 173.948 318.442 173.389L318.736 171.75L318.956 171.094Z" fill="#DBDCDC"/>
<path d="M332.458 166.102C332.679 166.248 333.143 166.795 333.853 167.742C334.733 168.932 335.223 169.891 335.32 170.62L332.679 169.381C331.994 168.968 331.639 168.446 331.615 167.815C331.59 167.353 331.725 166.928 332.018 166.54L332.458 166.102Z" fill="#DBDCDC"/>
<path d="M339.32 166.321L340.531 167.159C341.46 168.009 342.267 169.126 342.952 170.511L340.971 169.964C339.626 169.478 338.879 168.92 338.733 168.288C338.586 167.657 338.635 167.147 338.879 166.758L339.32 166.321Z" fill="#DBDCDC"/>
<path d="M346.218 164.864L347.722 165.957C348.799 166.904 349.532 167.888 349.924 168.908L347.832 168.616C346.365 168.252 345.496 167.705 345.227 166.977C345.08 166.637 345.142 166.212 345.411 165.702C345.655 165.216 345.924 164.936 346.218 164.864Z" fill="#DBDCDC"/>
<path d="M387.753 170.001C389.808 170.972 391.459 172.187 392.707 173.644L389.955 173.681C388.12 173.583 387.166 173.219 387.093 172.588C387.019 171.956 387.105 171.337 387.35 170.729L387.753 170.001Z" fill="#DBDCDC"/>
<path d="M395.422 168.434C395.838 168.556 396.535 168.92 397.513 169.527C398.834 170.329 399.654 171.094 399.972 171.822L397.403 171.713C395.666 171.519 394.786 171.142 394.761 170.584C394.712 170.049 394.81 169.527 395.055 169.017L395.422 168.434Z" fill="#DBDCDC"/>
<path d="M401.219 164.864L402.834 165.847C404.032 166.673 404.864 167.548 405.329 168.471L403.421 168.325C402.1 168.13 401.28 167.803 400.962 167.341C400.644 166.88 400.595 166.321 400.816 165.665L401.219 164.864Z" fill="#DBDCDC"/>
<path d="M386.102 173.025C385.906 172.32 386.298 171.191 387.276 169.636C388.255 168.058 389.099 167.256 389.808 167.232C390.517 167.207 391.508 168.13 392.78 170.001C394.028 171.822 394.566 173.061 394.394 173.717C394.248 174.3 392.878 174.482 390.285 174.264C387.692 174.045 386.298 173.632 386.102 173.025ZM388.487 170.183C387.875 171.154 387.631 171.859 387.753 172.296C387.998 172.636 388.866 172.915 390.358 173.134C391.802 173.353 392.584 173.341 392.707 173.098C392.829 172.83 392.499 172.053 391.716 170.766C390.884 169.454 390.236 168.786 389.771 168.762C389.502 168.738 389.074 169.211 388.487 170.183Z" fill="#0D131A"/>
<path d="M400.082 171.203C400.229 170.985 399.911 170.207 399.128 168.871C398.369 167.535 397.795 166.831 397.403 166.758C397.11 166.734 396.694 167.244 396.156 168.288C395.593 169.333 395.361 170.062 395.459 170.474C395.532 170.839 396.302 171.106 397.77 171.276L400.082 171.203ZM397.587 165.119C398.369 165.216 399.299 166.297 400.375 168.361C401.403 170.329 401.806 171.543 401.586 172.005C401.366 172.491 400.204 172.636 398.1 172.442C395.948 172.223 394.651 171.81 394.211 171.203C393.82 170.669 394.077 169.515 394.982 167.742C395.887 165.896 396.755 165.021 397.587 165.119Z" fill="#0D131A"/>
<path d="M401.77 165.082C401.403 165.908 401.329 166.588 401.549 167.122C401.647 167.414 402.295 167.645 403.494 167.815L405.439 167.705C405.585 167.463 405.329 166.758 404.668 165.592C404.008 164.353 403.433 163.746 402.944 163.77C402.528 163.819 402.136 164.256 401.77 165.082ZM400.962 164.171C401.721 162.787 402.369 162.094 402.907 162.094C403.812 162.094 404.766 163.103 405.769 165.119C406.747 167.062 407.09 168.276 406.796 168.762L403.531 168.871C401.525 168.628 400.436 168.288 400.265 167.851C399.898 166.904 400.131 165.677 400.962 164.171Z" fill="#0D131A"/>
<path d="M315.47 172.151C315.054 171.665 314.651 171.446 314.259 171.495C313.697 171.519 313.195 171.871 312.755 172.551C312.315 173.207 312.131 173.839 312.204 174.446C312.278 175.005 312.755 175.636 313.635 176.34C314.492 176.996 315.066 177.263 315.36 177.142C315.556 177.069 315.764 176.717 315.984 176.085C316.277 175.357 316.375 174.677 316.277 174.045C316.204 173.292 315.935 172.661 315.47 172.151ZM311.654 171.677C312.486 170.462 313.391 169.892 314.369 169.964C315.079 170.013 315.715 170.377 316.277 171.057C316.84 171.738 317.195 172.576 317.341 173.571C317.513 174.543 317.439 175.6 317.121 176.741C316.803 177.859 316.412 178.502 315.947 178.672C315.36 178.891 314.418 178.575 313.122 177.725C311.727 176.778 310.932 175.745 310.737 174.628C310.59 173.778 310.896 172.794 311.654 171.677Z" fill="#0D131A"/>
<path d="M308.462 172.078C308.144 171.64 307.789 171.397 307.398 171.349C306.933 171.3 306.444 171.495 305.93 171.932C305.392 172.369 305.123 172.843 305.123 173.353C305.147 173.984 305.502 174.737 306.187 175.612C306.798 176.438 307.251 176.85 307.544 176.85C307.814 176.826 308.107 176.474 308.425 175.794C308.768 175.114 308.951 174.434 308.975 173.754C309 173.122 308.829 172.563 308.462 172.078ZM304.682 170.875C305.588 170.074 306.529 169.734 307.508 169.855C308.315 169.952 309.012 170.389 309.599 171.167C310.162 171.944 310.419 172.806 310.37 173.754C310.345 174.531 310.04 175.527 309.452 176.741C308.816 178.004 308.266 178.66 307.801 178.709C307.263 178.781 306.419 178.162 305.27 176.85C304.046 175.49 303.411 174.336 303.362 173.389C303.313 172.49 303.753 171.652 304.682 170.875Z" fill="#0D131A"/>
<path d="M322.588 171.349C322.026 170.572 321.512 170.183 321.047 170.183C320.582 170.134 320.118 170.474 319.653 171.203C319.164 171.956 318.98 172.661 319.102 173.316C319.225 173.899 319.91 174.409 321.157 174.847C322.356 175.235 323.053 175.345 323.249 175.175C323.42 175.029 323.457 174.519 323.359 173.644C323.261 172.697 323.004 171.932 322.588 171.349ZM321.304 168.58C322.503 168.75 323.444 170.001 324.129 172.333C324.765 174.519 324.888 175.83 324.496 176.268L321.047 176.049C318.992 175.49 317.879 174.762 317.708 173.863C317.512 172.867 317.794 171.725 318.552 170.438C319.384 169.054 320.301 168.434 321.304 168.58Z" fill="#0D131A"/>
<path d="M295.73 169.199C296.341 171.531 296.402 172.843 295.913 173.134C295.277 173.498 294.03 173.426 292.171 172.915C290.238 172.381 289.162 171.737 288.942 170.984C288.648 170.086 288.991 168.932 289.969 167.523C290.972 166.066 291.975 165.373 292.978 165.446C294.152 165.519 295.069 166.77 295.73 169.199ZM290.483 170.401C290.556 170.912 291.229 171.373 292.501 171.786C293.724 172.175 294.47 172.247 294.739 172.005C294.935 171.835 294.825 171.021 294.409 169.563C293.968 168.009 293.455 167.183 292.868 167.086C292.379 167.013 291.84 167.341 291.253 168.07C290.593 168.847 290.336 169.624 290.483 170.401Z" fill="#0D131A"/>
<path d="M282.374 170.62C282.374 171.179 283.047 171.762 284.392 172.369C285.713 172.952 286.471 173.11 286.667 172.843C286.887 172.576 286.826 171.786 286.483 170.474C286.116 169.066 285.639 168.301 285.052 168.179C284.49 168.058 283.903 168.313 283.291 168.944C282.729 169.527 282.423 170.062 282.374 170.547V170.62ZM282.337 167.742C283.389 166.77 284.319 166.357 285.126 166.503C286.349 166.722 287.229 167.997 287.768 170.329C288.281 172.539 288.294 173.851 287.804 174.264C287.34 174.701 286.043 174.458 283.915 173.535C281.689 172.612 280.625 171.568 280.723 170.402C280.796 169.576 281.334 168.689 282.337 167.742Z" fill="#0D131A"/>
<path d="M345.924 166.685C345.998 167.171 346.707 167.633 348.052 168.07C349.349 168.483 350.083 168.58 350.254 168.361C350.425 168.143 350.315 167.39 349.924 166.102C349.508 164.742 349.055 164.038 348.566 163.989C348.15 163.941 347.588 164.256 346.878 164.936C346.169 165.641 345.851 166.224 345.924 166.685ZM345.961 164.244C347.233 163.03 348.236 162.544 348.97 162.787C349.899 163.127 350.658 164.281 351.245 166.248C351.807 168.118 351.905 169.224 351.538 169.564C351.171 169.879 349.973 169.77 347.942 169.236C345.863 168.677 344.701 168.058 344.457 167.378C344.163 166.527 344.665 165.483 345.961 164.244Z" fill="#0D131A"/>
<path d="M341.264 169.6C342.341 169.964 342.965 170.062 343.136 169.891C343.307 169.721 343.27 169.029 343.026 167.815C342.757 166.527 342.377 165.823 341.888 165.702C341.399 165.58 340.824 165.847 340.164 166.503C339.503 167.183 339.234 167.778 339.356 168.288C339.503 168.798 340.139 169.236 341.264 169.6ZM342.182 164.353C342.989 164.548 343.662 165.604 344.2 167.523C344.689 169.394 344.738 170.62 344.347 171.203C344.102 171.567 343.013 171.41 341.081 170.729C339.075 170.025 337.999 169.284 337.852 168.507C337.681 167.73 338.146 166.795 339.246 165.702C340.372 164.584 341.35 164.135 342.182 164.353Z" fill="#0D131A"/>
<path d="M333.853 169.527C334.929 170.11 335.577 170.329 335.797 170.183C335.993 170.062 336.018 169.357 335.871 168.07C335.7 166.71 335.357 165.944 334.843 165.774C334.354 165.604 333.767 165.774 333.082 166.284C332.422 166.77 332.104 167.256 332.128 167.742C332.153 168.325 332.727 168.92 333.853 169.527ZM335.247 164.426C336.274 164.645 336.886 165.847 337.082 168.033C337.253 170.098 337.131 171.276 336.715 171.567C336.25 171.859 335.1 171.519 333.266 170.547C331.407 169.527 330.44 168.641 330.367 167.888C330.294 167.183 330.82 166.382 331.945 165.483C333.143 164.56 334.244 164.208 335.247 164.426Z" fill="#0D131A"/>
<path d="M276.026 171.822C277.323 172.478 278.069 172.685 278.264 172.442C278.484 172.199 278.448 171.434 278.154 170.146C277.836 168.81 277.457 168.082 277.017 167.96C276.503 167.79 275.879 167.985 275.146 168.543C274.412 169.102 274.045 169.648 274.045 170.183C274.069 170.596 274.73 171.142 276.026 171.822ZM277.347 166.321C278.399 166.539 279.145 167.815 279.585 170.146C280.001 172.381 279.989 173.632 279.549 173.899C278.79 174.409 277.42 174.142 275.439 173.098C273.482 172.077 272.467 171.167 272.394 170.365C272.296 169.442 272.871 168.483 274.118 167.487C275.341 166.515 276.417 166.126 277.347 166.321Z" fill="#0D131A"/>
<path d="M121.872 93.3616C123.649 92.3748 126.759 88.3128 131.201 81.1754C135.018 75.0248 137.551 70.5187 138.802 67.6571C139.954 65.0916 141.204 61.5723 142.553 57.0991C144.165 51.9681 144.692 49.1888 144.132 48.7612C143.277 48.1362 140.71 47.758 136.433 47.6264L134.952 42.6434C133.8 39.2885 132.83 37.6111 132.04 37.6111C131.25 37.6111 127.022 40.7193 119.355 46.9357L108.102 56.2604L105.733 61.046C103.397 64.9272 100.386 68.4959 96.7005 71.7521L97.2928 78.5606C98.3128 83.5929 100.452 87.3754 103.709 89.908C107.46 92.8353 110.833 94.5292 113.827 94.9897C116.46 95.3844 119.141 94.8417 121.872 93.3616Z" fill="#84CABF"/>
<path d="M44.4811 11.7588C36.6827 17.3174 32.7835 23.5832 32.7835 30.5561C32.7835 31.8717 33.1455 32.9572 33.8694 33.8123L35.4981 31.5922C37.9002 36.3943 39.1012 40.6208 39.1012 44.2717C39.1012 49.633 38.2621 52.3136 36.584 52.3136C35.8272 52.3136 35.1362 51.9518 34.511 51.2282L33.7707 50.0934L32.3887 51.8202C31.5002 53.3332 31.056 54.9449 31.056 56.6552C31.056 58.3984 31.6319 59.9114 32.7835 61.1942L34.511 62.625C35.5639 67.4929 39.0847 71.9989 45.0734 76.1432C51.6543 80.6822 58.9755 82.9517 67.0371 82.9517C79.2776 82.9517 89.9387 78.5607 99.0203 69.7788C107.839 61.2929 112.248 51.7215 112.248 41.0648C112.248 29.7832 107.839 20.5243 99.0203 13.2883C90.9258 6.67714 81.5316 3.37158 70.8376 3.37158C61.0979 3.37158 52.3123 6.16733 44.4811 11.7588Z" fill="#84CABF"/>
<path d="M45.7149 78.1165C44.1355 78.8072 42.5725 79.5637 41.026 80.386C38.5253 81.7346 35.0867 83.8889 30.7104 86.8491H27.5516C25.4128 86.9478 24.3105 87.2274 24.2447 87.6879C24.0802 88.3786 24.3434 90.056 25.0344 92.7202L23.2082 93.5096C21.9578 94.1016 21.2833 94.6279 21.1846 95.0884C21.0201 95.7791 22.2704 97.4565 24.9357 100.121C24.0802 101.371 23.8828 102.505 24.3434 103.525C24.7712 104.446 26.8606 105.564 30.6117 106.88C34.8564 108.327 38.9201 109.051 42.8028 109.051C46.3565 109.051 49.7457 108.557 52.9703 107.571L56.7708 106.09C56.2772 101.946 56.1127 97.8348 56.2772 93.7563C56.376 91.2236 56.8695 88.4937 57.758 85.5664L59.0906 81.9155L52.7729 79.942C51.6542 79.5473 49.9267 78.6757 47.5905 77.3271L45.7149 78.1165Z" fill="#84CABF"/>
<path d="M133.669 119.609C131.892 119.609 129.835 120.645 127.499 122.717C124.768 125.118 122.596 128.259 120.984 132.14C117.134 141.481 115.884 147.632 117.233 150.592C117.726 151.743 119.026 153.733 121.132 156.562C123.896 160.279 125.772 162.91 126.759 164.456L133.076 173.583C135.478 176.872 136.893 178.599 137.321 178.763C137.848 178.994 140.151 177.037 144.231 172.892C151.042 175.622 154.612 176.905 154.941 176.741C155.238 176.609 155.583 174.274 155.978 169.735C161.308 166.906 164.007 165.064 164.072 164.209C164.105 163.683 162.937 162.351 160.568 160.213L157.014 157.154C156.784 154.457 156.34 151.431 155.682 148.076C154.333 141.333 152.507 136.268 150.203 132.88C144.247 124.032 138.736 119.609 133.669 119.609Z" fill="#84CABF"/>
<path d="M77.402 142.501C74.6709 140.725 71.726 137.847 68.5672 133.867L64.6186 128.391L59.4855 133.176C56.0963 137.189 54.4018 141.267 54.4018 145.412C54.4018 148.339 54.6321 150.724 55.0927 152.566L55.8331 154.44L51.7858 156.463C49.1535 157.91 47.9196 158.93 48.0841 159.522C48.2157 160.18 49.499 161.331 51.9339 162.976C52.1313 163.107 51.9833 163.37 51.4897 163.765C50.9961 164.193 50.881 164.489 51.1442 164.653C54.5334 166.692 59.1071 168.732 64.8654 170.771C70.3275 172.744 73.7332 173.649 75.0822 173.484C75.9378 173.386 77.6817 171.675 80.3141 168.353C82.6503 165.393 84.0652 163.37 84.5588 162.285C84.8549 161.66 86.9937 159.654 90.9751 156.266L96.8979 151.382C88.3099 148.257 81.8112 145.297 77.402 142.501Z" fill="#84CABF"/>
<path d="M205.631 93.8057C205.631 84.8594 202.686 77.4753 196.796 71.6536C191.202 66.095 184.49 63.3157 176.659 63.3157C169.617 63.3157 163.99 65.799 159.779 70.7655C155.402 75.8965 153.214 83.001 153.214 92.0789L154.152 101.601C154.777 106.962 155.09 111.518 155.09 115.267C155.09 119.379 154.168 123.408 152.326 127.355C151.437 129.295 150.532 130.841 149.611 131.992L151.783 136.531L154.152 142.649C156.455 142.616 159.252 142.205 162.543 141.416C169.123 139.771 174.882 136.992 179.817 133.078C187.023 127.322 192.963 121.138 197.635 114.527C202.966 106.962 205.631 100.055 205.631 93.8057Z" fill="#84CABF"/>
<path d="M96.7004 71.7522L91.666 75.0084C87.5201 77.4753 83.4564 79.4652 79.4749 80.9782C75.4935 82.4911 70.9033 83.0996 65.7044 82.8036L59.0905 81.9156L57.5111 86.9479C56.4911 90.9935 55.9811 94.8418 55.9811 98.4927C55.9811 113.228 61.0977 125.973 71.331 136.729C81.7289 147.648 94.249 153.108 108.892 153.108C111.359 153.108 113.531 152.829 115.407 152.27L117.48 151.382C117.118 149.902 117.035 147.895 117.233 145.363C117.661 140.297 119.322 135.117 122.218 129.821C125.081 124.526 128.058 121.22 131.151 119.905C132.106 119.477 133.011 119.28 133.866 119.313L134.903 119.461L131.991 116.846C129.72 114.412 127.713 111.534 125.969 108.212C124.192 104.89 122.975 101.486 122.317 97.9993L121.872 93.8057L120.49 94.4471C119.306 94.8747 118.055 95.1378 116.739 95.2365C112.495 95.4996 108.316 93.9373 104.203 90.5495C100.715 87.688 98.4279 83.6917 97.3421 78.5607L96.7004 71.7522Z" fill="#F2E100"/>
<path d="M126.018 89.5133C125.196 90.6645 123.732 92.0788 121.626 93.7562L122.366 98.3445C123.156 101.963 124.307 105.169 125.821 107.965C127.302 110.794 129.309 113.573 131.843 116.303L135.199 119.559L136.729 120.102L139.888 121.434C140.776 121.895 141.878 122.799 143.195 124.148L144.922 126.072C144.626 124.197 144.231 122.174 143.738 120.003C142.783 115.695 141.862 112.833 140.974 111.419C140.381 110.498 138.983 108.837 136.778 106.436C134.672 104.101 133.093 102.028 132.04 100.219C130.855 98.1801 130.066 95.0554 129.671 90.8454L129.375 85.1223L126.018 89.5133Z" fill="#EEEEEF"/>
<path d="M129.72 90.6975C130.016 95.2365 130.79 98.5256 132.04 100.565C133.093 102.341 134.82 104.512 137.222 107.077C139.559 109.544 140.99 111.254 141.516 112.208C142.701 114.313 143.886 118.737 145.07 125.48L149.611 131.992C150.532 131.104 151.437 129.69 152.326 127.749C154.168 123.835 155.09 119.198 155.09 113.836C155.09 101.272 152.424 89.5956 147.094 78.8073C144.429 73.4132 141.763 69.2854 139.098 66.4238L134.607 75.1071L129.671 84.4811L129.72 90.6975Z" fill="#CF7100"/>
<path d="M118.171 48.0211L112.741 44.2715L109.78 55.6189L118.171 48.0211Z" fill="#EEEEEF"/>
<path d="M87.1746 42.6927C87.5036 42.1007 87.5694 40.5548 87.372 38.0551C87.1087 35.2922 86.5823 32.5787 85.7926 29.9145C83.4893 22.4482 79.9356 18.7151 75.1315 18.7151C73.1901 18.7151 71.7588 20.0636 70.8375 22.7607C69.7187 25.9511 69.9655 29.9967 71.5778 34.8975C72.4334 37.463 73.5192 39.8147 74.8354 41.9527C76.1186 44.0248 77.2045 45.2418 78.0929 45.6036C78.8826 45.8996 80.5608 45.5871 83.1273 44.6662C85.5951 43.7781 86.9442 43.1203 87.1746 42.6927Z" fill="#C6000B"/>
<path d="M35.4981 31.592C35.0045 31.592 34.3958 32.2992 33.6719 33.7135C32.6847 35.6212 32.1912 37.9565 32.1912 40.7193C32.1912 43.844 32.7341 46.6397 33.82 49.1066C34.84 51.4089 35.8929 52.5601 36.9788 52.5601C38.5582 52.5601 39.3479 50.34 39.3479 45.8997C39.3479 42.3474 38.7063 38.8939 37.423 35.539L35.4981 31.592Z" fill="#C6000B"/>
<path d="M77.7476 45.7517C76.0036 44.1072 74.6052 42.3311 73.5522 40.4234C72.4993 38.4828 71.5615 36.4764 70.7389 34.4043L71.3312 39.782C71.8906 43.4329 72.5486 45.4557 73.3054 45.8504L76.2175 46.1464L77.7476 45.7517Z" fill="white"/>
<path d="M77.1552 23.7476C76.3326 23.9121 75.7075 24.7673 75.2797 26.3131C74.8519 27.9577 74.8355 29.8654 75.2303 32.0362C75.5923 33.9768 76.2668 35.5884 77.254 36.8712C78.274 38.2197 79.3269 38.7789 80.4128 38.5486C81.4657 38.3184 82.1731 37.381 82.5351 35.7365C82.897 34.2235 82.8641 32.4967 82.4364 30.5561C81.9428 28.3195 81.1367 26.5434 80.0179 25.2277C78.9979 24.0765 78.0437 23.5832 77.1552 23.7476Z" fill="#0D131A"/>
<path d="M38.0152 46.8864C38.5088 46.722 38.7885 46.0477 38.8543 44.8636C38.9201 43.844 38.8214 42.7093 38.5581 41.4594C38.2949 40.2095 37.8836 39.0748 37.3242 38.0552C36.6661 36.904 36.0574 36.46 35.498 36.7231C34.9057 36.9862 34.5931 37.7592 34.5602 39.0419C34.4944 40.0944 34.626 41.3443 34.9551 42.7915C35.2183 43.9427 35.7119 44.9623 36.4358 45.8504C37.0939 46.6398 37.6204 46.9851 38.0152 46.8864Z" fill="#0D131A"/>
<path d="M75.7733 19.2085C75.1481 19.5703 74.6216 20.3432 74.1938 21.5273C73.7332 22.9745 73.7167 24.3888 74.1445 25.7703C74.6051 27.2832 75.4442 28.4015 76.6617 29.1252C77.7475 29.8159 78.7676 29.9968 79.7218 29.6679C80.9064 29.3061 81.6961 28.4838 82.0909 27.201C82.4858 25.8854 82.3706 24.3888 81.7454 22.7114C81.219 21.33 80.2318 20.2774 78.784 19.5538C77.4678 18.896 76.4642 18.7809 75.7733 19.2085Z" fill="white"/>
<path d="M35.5968 33.3189C35.3007 33.4175 35.0703 33.8122 34.9058 34.5029C34.7413 35.2265 34.7413 35.9666 34.9058 36.7231C35.3994 38.9926 36.0246 40.0615 36.7814 39.93C37.242 39.8313 37.5382 39.4366 37.6698 38.7459C37.8014 38.0552 37.7521 37.2329 37.5217 36.2791C36.9294 34.1082 36.2878 33.1215 35.5968 33.3189Z" fill="white"/>
<path d="M96.7004 71.7522L90.5802 75.3044C85.4471 77.9028 80.3469 79.8599 75.2796 81.1755C72.0879 81.9649 68.419 82.2609 64.273 82.0636L59.0412 81.5209L58.3008 83.3463C59.0905 84.037 60.2422 84.7442 61.7558 85.4678C64.783 86.8492 68.1229 87.5399 71.7753 87.5399C75.7896 87.5399 80.7253 85.5007 86.5823 81.4222C91.847 77.7384 95.2197 74.5151 96.7004 71.7522Z" fill="#CBBD00"/>
<path d="M79.623 143.882C88.5731 150.033 98.1647 153.108 108.398 153.108L114.814 152.27L117.48 151.382L116.937 149.013C116.674 147.139 116.706 145.478 117.035 144.03L117.924 139.245L118.269 137.025C111.623 139.426 103.298 140.528 93.2949 140.33C82.3047 140.133 74.2925 138.242 69.2581 134.656C71.693 137.748 75.148 140.824 79.623 143.882Z" fill="#CBBD00"/>
<path d="M126.512 58.4806C126.841 59.5331 127.236 60.191 127.697 60.4541C128.124 60.7172 128.437 60.4212 128.634 59.566C128.93 58.053 129.046 56.1125 128.98 53.7443L128.782 50.6361C128.782 49.5178 128.618 48.712 128.289 48.2186C127.927 47.5937 127.466 48.0377 126.907 49.5507C125.755 52.6424 125.624 55.6191 126.512 58.4806Z" fill="#72B0A6"/>
<path d="M122.218 93.5097C124.291 91.931 127.236 88.132 131.053 82.113C134.442 76.7188 136.86 72.3279 138.308 68.9401C139.46 66.3088 140.612 63.2006 141.763 59.6154C142.75 56.5895 143.425 54.2706 143.787 52.659C144.215 50.8828 144.132 49.7974 143.54 49.4027C142.849 48.9094 141.632 49.9948 139.888 52.659L121.527 74.8605C111.557 86.8657 107.131 93.1808 108.25 93.8058C110.06 94.8254 112.166 95.401 114.568 95.5325C117.628 95.7299 120.178 95.0556 122.218 93.5097Z" fill="#72B0A6"/>
<path d="M43.5926 109.001C47.245 109.001 50.5355 108.524 53.464 107.571L56.7709 106.091L55.9812 98.4927C53.7766 99.8083 49.6964 101.075 43.7407 102.292C36.403 103.805 29.9372 104.216 24.3435 103.525C24.9687 104.446 26.2355 105.367 28.144 106.288C31.9938 108.097 37.1433 109.001 43.5926 109.001Z" fill="#72B0A6"/>
<path d="M78.9814 143.734C80.6266 144.918 81.1366 146.629 80.5114 148.865C79.952 151.003 78.4878 153.141 76.1187 155.279C70.3275 160.509 63.4669 162.63 55.5369 161.644L57.0176 161.002C58.1364 160.575 58.6299 160.344 58.4983 160.312L53.1678 159.818L47.7879 158.683C48.4789 160.065 49.828 161.463 51.8352 162.877C51.9668 162.943 51.8845 163.222 51.5884 163.716C51.2922 164.176 51.2264 164.456 51.3909 164.554C52.7729 165.443 55.6356 166.956 59.979 169.093C64.2895 171.166 68.0242 172.514 71.183 173.139L75.6745 173.336C76.4313 173.106 79.2281 169.373 84.0651 162.137L97.1447 151.875L93.2948 150.494L86.681 147.829C84.1474 146.678 81.5808 145.313 78.9814 143.734Z" fill="#72B0A6"/>
<path d="M163.678 164.554C163.809 163.929 162.329 164.291 159.235 165.64C156.274 166.923 154.991 168.172 155.386 169.389L159.926 167.86L163.678 164.554Z" fill="#72B0A6"/>
<path d="M144.577 172.695L150.993 175.655L153.708 176.247L155.386 176.445L154.942 174.866C154.744 175.162 153.395 174.636 150.894 173.287C147.999 171.774 146.255 170.952 145.662 170.82C144.741 170.59 144.182 170.787 143.984 171.412C143.82 171.971 144.017 172.399 144.577 172.695Z" fill="#72B0A6"/>
<path d="M139.74 177.234C139.411 177.399 138.391 176.461 136.68 174.422C134.968 172.383 133.685 170.557 132.83 168.945L124.834 153.503C120.458 144.557 118.434 139.261 118.763 137.617L117.381 142.6C116.591 146.316 116.624 149.244 117.48 151.382C118.236 153.289 119.355 155.098 120.836 156.809C123.041 159.308 124.702 161.413 125.821 163.124C132.797 173.78 136.548 179.109 137.074 179.109L138.703 178.171L139.74 177.234Z" fill="#72B0A6"/>
<path d="M151.388 135.347L154.152 142.649C156.356 142.748 159.153 142.369 162.542 141.514C169.321 139.804 175.655 136.58 181.545 131.844C187.698 126.91 192.88 121.401 197.092 115.316L201.534 107.669C195.184 111.156 191.548 112.948 190.626 113.047C189.672 113.178 186.513 112.488 181.15 110.975C177.859 117.75 172.891 123.638 166.244 128.637C160.288 133.11 155.336 135.347 151.388 135.347Z" fill="#72B0A6"/>
<path d="M204.545 84.0863C203.821 81.751 202.818 79.5144 201.534 77.3765L199.856 74.8604C200.909 80.6492 200.531 85.8624 198.721 90.5001C197.142 94.5457 194.674 97.7361 191.317 100.071C188.224 102.242 185 103.278 181.644 103.18C178.221 103.048 175.573 101.749 173.697 99.282L174.339 101.7C174.898 103.509 175.573 105.005 176.362 106.189C177.415 107.801 179.11 109.297 181.446 110.679C184.111 112.258 186.645 113.047 189.047 113.047C191.581 113.047 194.081 112.29 196.549 110.777C198.951 109.33 200.777 107.538 202.028 105.4C206.009 98.6571 206.848 91.5526 204.545 84.0863Z" fill="#72B0A6"/>
<path d="M148.673 82.6063C147.522 79.8435 146.288 77.3931 144.971 75.2552L143.343 72.8376C145.679 79.0541 146.534 87.1124 145.909 97.0126C145.317 106.255 143.984 111.978 141.911 114.182L145.07 125.48L149.611 131.992C150.598 131.335 151.569 130.052 152.523 128.144C154.432 124.329 155.238 119.247 154.942 112.899C154.415 101.486 152.326 91.3883 148.673 82.6063Z" fill="#A95B00"/>
<path d="M129.868 113.984L134.409 119.461L136.581 120.102C138.193 120.661 139.46 121.237 140.381 121.829L145.07 125.48C144.445 122.224 143.968 119.971 143.639 118.721L142.602 115.711L141.911 114.182C141.615 115.103 140.398 115.662 138.259 115.859C135.66 116.089 132.863 115.464 129.868 113.984Z" fill="#C8C9CA"/>
<path d="M36.9294 18.0245C34.4286 21.2807 32.8163 24.4711 32.0924 27.5958C31.3685 30.6876 31.6811 32.9899 33.0302 34.5029C33.1618 34.6674 33.3428 34.3878 33.5731 33.6642C33.8035 32.9077 33.8693 32.4308 33.7705 32.2334C32.9808 30.9507 33.1289 28.9608 34.2148 26.2637C35.3335 23.5008 37.1433 20.6887 39.644 17.8271C45.9617 10.624 53.4145 6.38101 62.0026 5.09826C74.2102 3.25636 84.9371 5.29561 94.1832 11.216C103.429 17.1364 108.908 25.4908 110.619 36.279C112.264 46.7384 109.418 56.2769 102.08 64.8943C94.7755 73.446 85.0522 78.7251 72.9105 80.7314C64.3882 82.1457 56.3266 80.8794 48.7256 76.9325C41.5525 73.1829 37.1104 68.3479 35.3993 62.4275L34.5109 62.4768C34.0173 62.7071 33.8034 62.9373 33.8692 63.1676C35.6461 69.4169 40.3021 74.515 47.8372 78.4619C55.7672 82.5733 64.2237 83.889 73.2066 82.4089C85.8419 80.3038 96.0588 74.7452 103.857 65.7331C111.754 56.6222 114.831 46.6398 113.087 35.7857C111.244 24.1751 105.601 15.3767 96.1575 9.39055C86.681 3.37147 75.1973 1.38156 61.7065 3.42081C51.4074 4.96669 43.1483 9.83458 36.9294 18.0245Z" fill="#0D131A"/>
<path d="M34.3135 50.1919C34.4122 50.0933 34.297 49.8959 33.968 49.5999C33.639 49.3368 33.3922 49.271 33.2276 49.4025C31.2205 51.3102 30.2827 53.7935 30.4143 56.8524C30.5788 59.8784 31.6976 62.1479 33.7706 63.6609L34.8564 63.5622C35.2513 63.1675 35.7284 62.8057 36.2878 62.4768C37.0775 62.0163 37.7849 61.7861 38.4101 61.7861L43.7406 64.0062C47.1956 65.4534 49.8938 66.1441 51.8352 66.0784C52.6578 66.0455 54.6978 65.0587 57.9554 63.1182C61.6078 60.9473 63.8617 59.7139 64.7173 59.4179C66.0993 58.9574 68.8139 58.3489 72.8611 57.5924L81.9428 56.211C84.2461 55.9808 86.4671 55.0434 88.6059 53.3988C90.646 51.8529 92.1925 50.0275 93.2455 47.9224C93.7391 46.9028 93.8049 46.3108 93.4429 46.1463C93.1139 45.9819 92.7026 46.4095 92.209 47.4291C91.3206 49.2381 89.8892 50.8169 87.915 52.1654C85.9078 53.5139 83.8512 54.3033 81.7454 54.5336L72.5156 55.915C68.3368 56.7044 65.5399 57.3622 64.125 57.8885C63.2695 58.2174 61.0649 59.4179 57.5112 61.49C54.3194 63.3648 52.3781 64.3351 51.6871 64.4009C49.9102 64.5325 47.3108 63.8747 43.8887 62.4274L38.5088 60.1086C37.0939 60.0428 35.6626 60.6349 34.2148 61.8847C33.0302 60.8322 32.3721 59.089 32.2405 56.655C32.1089 53.9909 32.7999 51.8365 34.3135 50.1919Z" fill="#0D131A"/>
<path d="M56.8202 54.3855C56.4253 54.1882 55.833 54.698 55.0433 55.915C54.2207 57.132 54.0726 57.8556 54.5991 58.0858C55.1256 58.316 55.7179 57.8062 56.376 56.5564C57.034 55.2736 57.1821 54.55 56.8202 54.3855Z" fill="#0D131A"/>
<path d="M43.6419 57.5925C43.4445 57.9871 43.8229 58.5463 44.7771 59.2699C45.6984 59.9606 46.2578 60.1744 46.4552 59.9113C46.6526 59.6481 46.2742 59.089 45.32 58.2338C44.3987 57.3787 43.8393 57.1649 43.6419 57.5925Z" fill="#0D131A"/>
<path d="M36.9787 26.6089L35.8435 26.4609C35.7119 26.6583 35.9422 26.9543 36.5345 27.349L37.7191 28.5824L38.9036 30.4572C39.1998 31.0821 39.5288 31.2959 39.8908 31.0986C40.2527 30.9012 40.3021 30.4901 40.0388 29.8652C39.282 28.2535 38.262 27.1681 36.9787 26.6089Z" fill="#0D131A"/>
<path d="M71.7753 15.8537C72.4005 15.5248 72.6637 15.2124 72.565 14.9163C72.4334 14.6532 72.055 14.6532 71.4298 14.9163C70.2452 15.4426 69.2581 16.1991 68.4684 17.1858C67.6129 18.2712 67.1193 19.4718 66.9877 20.7874C66.9219 21.8399 67.0699 22.3826 67.4319 22.4155C67.8268 22.4155 68.1064 21.9222 68.271 20.9354C68.7316 18.633 69.8997 16.9391 71.7753 15.8537Z" fill="#0D131A"/>
<path d="M70.5907 41.8542C71.4462 44.8144 72.2195 46.4425 72.9105 46.7385C74.2595 47.3306 77.0071 47.1003 81.1531 46.0478C85.4636 44.9624 87.7833 43.7783 88.1124 42.4956C88.4085 41.3115 88.4085 39.4038 88.1124 36.7725C87.8162 33.8123 87.2239 31.0001 86.3355 28.3359C83.9006 21.067 80.2975 17.597 75.5264 17.9259C70.6236 18.2548 68.4519 23.0076 69.0113 32.1842C69.2087 35.5391 69.7352 38.7624 70.5907 41.8542ZM75.6251 19.6033C77.5335 19.4718 79.2775 20.3598 80.8569 22.2675C82.4363 24.2081 83.769 27.1025 84.8548 30.9508C85.4142 32.9243 85.8584 35.2431 86.1875 37.9073C86.4836 40.2096 86.5823 41.6075 86.4836 42.1009L86.2368 42.3969L85.299 43.0383C83.8183 43.7948 81.6137 44.4197 78.6852 44.9131L73.6508 45.2584C73.223 44.798 72.713 43.3343 72.1207 40.8675C71.4297 38.1046 71.002 35.4075 70.8375 32.7762L70.7388 29.7667C70.7388 25.8856 71.2817 23.1227 72.3675 21.4781C73.1572 20.327 74.2431 19.702 75.6251 19.6033Z" fill="#0D131A"/>
<path d="M71.2324 24.4381C71.2653 24.2079 71.035 24.0599 70.5414 23.9941C70.0479 23.9283 69.7846 24.0105 69.7517 24.2408C69.2582 27.4641 69.5872 31.0986 70.7389 35.1442C72.055 39.8147 74.0951 43.3012 76.8591 45.6036L77.6488 45.5049C78.0437 45.3733 78.1588 45.2418 77.9943 45.1102C75.362 42.8078 73.4206 39.4036 72.1702 34.8975C71.0514 30.9506 70.7389 27.4641 71.2324 24.4381Z" fill="#0D131A"/>
<path d="M33.82 35.4897C34.2477 34.0753 34.7742 33.0393 35.3994 32.3814C36.3207 34.1576 37.061 36.3613 37.6204 38.9926C38.114 41.4594 38.3608 43.8276 38.3608 46.097C38.3608 48.1034 38.1469 49.6986 37.7191 50.8827C37.4888 51.4419 37.2749 51.7214 37.0775 51.7214C36.6497 51.7543 36.2384 51.6063 35.8436 51.2774C35.1197 50.6854 34.511 49.5671 34.0174 47.9225C33.5567 46.2779 33.2606 44.3045 33.129 42.0021L33.0796 40.7687C33.0796 38.861 33.3264 37.1013 33.82 35.4897ZM34.8564 29.8159C34.4616 29.3884 34.2806 29.3719 34.3135 29.7666L34.8564 31.3454C33.7377 32.2005 32.8493 33.73 32.1912 35.9337C31.566 38.0058 31.3192 40.0615 31.4508 42.1008C31.6812 46.1464 32.4215 49.1724 33.6719 51.1787C34.6919 52.7904 35.8765 53.5304 37.2256 53.3989C38.0811 53.3331 38.7556 52.6917 39.2492 51.4747C40.2034 49.1395 40.2528 45.6366 39.3973 40.966C38.4759 35.9995 36.9623 32.2828 34.8564 29.8159Z" fill="#0D131A"/>
<path d="M118.269 48.86L119.454 47.6266C117.611 45.3571 115.324 43.9757 112.593 43.4823C112.264 43.4165 112.083 43.6961 112.05 44.321C112.018 44.946 112.149 45.2913 112.445 45.3571C114.814 46.0149 116.756 47.1825 118.269 48.86Z" fill="#0D131A"/>
<path d="M139.542 65.2397L138.308 67.6572C141.763 72.2949 144.758 77.3272 147.291 82.7543C150.944 90.4508 153.132 99.0683 153.856 108.607C154.678 119.296 153.066 126.911 149.019 131.45C148.854 131.614 148.969 131.877 149.364 132.239C149.759 132.601 150.039 132.699 150.203 132.535C154.514 127.733 156.439 119.757 155.978 108.607C155.583 98.3776 153.543 89.3983 149.858 81.6689C147.028 75.7156 143.589 70.2392 139.542 65.2397Z" fill="#0D131A"/>
<path d="M130.954 92.9175C130.362 89.0034 130.312 85.6979 130.806 83.0008C130.872 82.8035 130.559 82.9844 129.868 83.5435C129.21 84.1027 128.865 84.4974 128.832 84.7276C128.272 87.7207 128.322 90.9605 128.98 94.4469C129.605 97.7689 130.576 100.367 131.892 102.242L137.025 108.113C138.868 110.021 140.052 111.517 140.579 112.603C141.401 114.379 142.191 116.533 142.948 119.066C143.672 121.599 144.116 123.588 144.28 125.036L145.169 126.417L146.008 127.157C145.745 124.953 145.235 122.355 144.478 119.362C143.655 116.237 142.833 113.77 142.01 111.961C141.418 110.679 140.085 108.903 138.012 106.633L133.471 101.157C132.385 99.4464 131.546 96.7 130.954 92.9175Z" fill="#0D131A"/>
<path d="M149.907 84.5796C149.874 84.3494 149.595 84.3001 149.068 84.4316C148.542 84.5303 148.295 84.6783 148.328 84.8757C149.052 88.5595 148.854 93.082 147.735 98.4433C146.485 104.265 144.429 109.412 141.566 113.886C141.434 114.083 141.599 114.33 142.059 114.626L142.898 114.724C146.321 109.429 148.591 104.002 149.71 98.4433C150.73 93.5754 150.796 88.9542 149.907 84.5796Z" fill="#0D131A"/>
<path d="M122.86 93.5095C122.86 93.3122 122.547 93.3615 121.922 93.6575L120.984 94.2496C121.181 103.755 125.508 112.192 133.965 119.559C134.129 119.691 134.557 119.691 135.248 119.559C135.906 119.428 136.153 119.296 135.988 119.165C132.928 116.829 130.066 113.294 127.4 108.557C124.373 103.163 122.86 98.1472 122.86 93.5095Z" fill="#0D131A"/>
<path d="M59.9791 82.2608C60.0778 82.0306 59.8803 81.8168 59.3868 81.6195C58.8932 81.3892 58.6135 81.3892 58.5477 81.6195C56.2115 86.9149 55.0434 91.9637 55.0434 96.7658C55.0434 119.592 63.9112 136.104 81.6467 146.3C88.2605 150.115 95.2527 152.5 102.623 153.454C109.204 154.276 114.222 153.832 117.677 152.122C117.875 152.023 117.858 151.743 117.628 151.283C117.397 150.79 117.184 150.592 116.986 150.691C113.564 152.401 108.661 152.763 102.278 151.776C95.2692 150.724 88.606 148.273 82.2883 144.425C74.819 139.886 68.9456 133.966 64.668 126.664C59.6007 118.112 57.067 108.146 57.067 96.7658C57.067 91.6348 58.0377 86.7998 59.9791 82.2608Z" fill="#0D131A"/>
<path d="M99.81 85.4678C99.8758 85.3033 99.7442 84.9579 99.4151 84.4317C99.0532 83.9383 98.8393 83.7903 98.7735 83.9877C97.4244 87.211 94.9895 90.1054 91.4687 92.6709C87.915 95.2035 83.6868 97.0948 78.784 98.3446C74.3419 99.4958 70.1137 99.9234 66.0993 99.6274C62.085 99.2985 59.0248 98.2953 56.9189 96.6178C56.7544 96.4863 56.5076 96.6343 56.1786 97.0619C55.8495 97.4895 55.7673 97.769 55.9318 97.9006C58.3009 99.7754 61.5914 100.943 65.8032 101.403C70.1466 101.897 74.638 101.552 79.2775 100.367C84.1145 99.1176 88.3757 97.1276 92.061 94.3977C95.6146 91.7993 98.1976 88.8226 99.81 85.4678Z" fill="#0D131A"/>
<path d="M69.2582 100.614C69.8175 107.061 72.5486 115.777 77.4514 126.763C82.4858 138.044 86.9608 145.067 90.8764 147.829L91.6168 147.385C91.9129 146.958 91.9787 146.678 91.8142 146.547C88.6225 144.277 84.4107 137.288 79.1789 125.579C74.0787 114.132 71.2982 105.762 70.8376 100.466C70.8376 100.236 70.5743 100.154 70.0479 100.219C69.4885 100.252 69.2252 100.384 69.2582 100.614Z" fill="#0D131A"/>
<path d="M105.98 90.8455L105.387 91.0428L105.14 91.5855L104.301 104.512L103.709 116.205L103.907 116.747L109.484 122.174C113.729 125.99 117.694 128.818 121.379 130.66L121.971 130.709L122.465 130.315L122.514 129.969C122.514 129.641 122.366 129.394 122.07 129.229C117.003 126.697 111.409 122.256 105.289 115.908L105.93 104.314L106.72 91.6842V91.6348C106.72 91.1086 106.473 90.8455 105.98 90.8455Z" fill="#0D131A"/>
<path d="M80.166 128.687L72.417 129.032C69.2581 128.933 66.741 128.637 64.8654 128.144C64.6351 128.111 64.6021 128.341 64.7667 128.835L65.3096 129.624C67.1523 130.249 69.5543 130.677 72.5157 130.907C75.5758 131.17 78.3398 131.137 80.8076 130.808C85.7104 130.183 90.3006 128.654 94.5782 126.22C98.757 123.819 102.031 120.891 104.4 117.438C104.532 117.241 104.515 116.862 104.351 116.303C104.219 115.744 104.088 115.547 103.956 115.711C101.85 118.836 98.5103 121.599 93.9365 124C89.6918 126.203 85.1017 127.766 80.166 128.687Z" fill="#0D131A"/>
<path d="M116.986 146.251C117.217 146.218 117.282 145.988 117.184 145.56C117.118 145.132 116.97 144.935 116.739 144.968L104.203 146.152C98.2141 146.514 93.953 146.596 91.4194 146.399L90.8764 146.547L90.5803 147.04L90.3335 149.507C90.2677 149.737 90.4651 149.902 90.9258 150L91.6661 149.852L92.0116 148.027L105.042 147.632L116.986 146.251Z" fill="#0D131A"/>
<path d="M130.313 121.237C131.694 120.283 133.34 120.02 135.248 120.447C137.091 120.809 139.016 121.812 141.023 123.457C143.886 125.792 146.666 129.246 149.364 133.818C151.404 137.238 153.181 142.139 154.695 148.52C155.419 151.71 155.962 154.588 156.324 157.154L156.62 157.647L161.111 161.594C162.394 162.91 163.036 163.765 163.036 164.16C162.97 164.554 162.181 165.212 160.667 166.133C159.186 167.087 157.475 167.991 155.534 168.847C155.205 168.945 155.04 169.176 155.04 169.537C155.04 172.794 154.826 174.816 154.399 175.606C153.082 175.343 149.759 174.126 144.429 171.955L143.491 172.152L140.135 175.803C138.917 176.954 138.111 177.579 137.716 177.678C137.091 177.349 135.577 175.524 133.175 172.202L128.042 164.604C126.923 162.795 124.521 159.489 120.836 154.687L118.911 152.171C118.088 151.118 117.677 149.457 117.677 147.188L117.924 143.882C118.615 139.541 120.161 135.15 122.563 130.709C124.998 126.302 127.581 123.144 130.313 121.237ZM156.225 146.497C154.942 140.248 153.313 135.462 151.338 132.14C147.719 126.055 143.705 121.977 139.295 119.905C135.413 118.03 132.122 118.03 129.424 119.905C123.962 123.72 119.98 129.591 117.48 137.518C115.111 145.083 115.176 150.46 117.677 153.651C121.757 158.749 124.752 162.68 126.66 165.442L131.991 173.928C134.524 177.941 136.219 180.03 137.074 180.194C138.358 180.49 140.776 178.303 144.33 173.632C146.6 175.08 148.871 176.264 151.141 177.185C153.346 178.073 154.761 178.402 155.386 178.171C155.912 177.974 156.258 177.3 156.422 176.148C156.521 175.26 156.587 173.238 156.62 170.08L162.197 167.712C164.566 166.561 165.8 165.558 165.899 164.702C165.965 163.979 165.356 162.926 164.073 161.545C162.625 159.966 160.552 158.321 157.854 156.611L156.225 146.497Z" fill="#0D131A"/>
<path d="M56.4747 140.972C58.1857 136.038 61.1965 132.075 65.5069 129.081C65.6386 128.983 65.4247 128.637 64.8653 128.045C64.3388 127.42 63.9769 127.174 63.7795 127.305C58.9754 130.66 55.7837 135.232 54.2043 141.021C52.7894 146.185 52.9539 150.559 54.6978 154.144C49.4002 156.414 46.7514 158.19 46.7514 159.473C46.7514 160.262 48.3143 161.693 51.4403 163.765L52.9703 162.482C50.3051 160.871 48.9724 159.835 48.9724 159.374C48.9724 159.012 49.7292 158.42 51.2428 157.598C52.6248 156.809 54.2536 156.036 56.1292 155.279L56.6721 154.786L56.4747 154.046C54.7965 150.132 54.7965 145.774 56.4747 140.972Z" fill="#0D131A"/>
<path d="M47.245 77.1791C46.7514 76.6857 46.4388 76.4719 46.3072 76.5377C44.0368 77.36 40.9438 79.0375 37.0281 81.5701C32.7835 84.2671 29.8879 86.5695 28.3413 88.4772C27.9794 88.9377 27.93 89.3159 28.1933 89.612C28.4894 89.8751 28.8184 89.7764 29.1804 89.3159C30.6611 87.474 33.7541 85.1881 38.4595 82.4581C42.7371 79.9913 45.8301 78.5112 47.7386 78.0178C47.936 77.952 47.7715 77.6725 47.245 77.1791Z" fill="#0D131A"/>
<path d="M30.7598 86.7506C31.1547 86.3888 31.2534 86.1914 31.056 86.1585L26.6139 85.9612C24.837 86.0927 23.7512 86.4217 23.3563 86.9479C23.126 87.2768 23.1095 88.0004 23.307 89.1187L24.1954 92.2269C21.5959 93.0163 20.2139 93.9373 20.0494 94.9898C20.0165 95.3516 20.3291 95.993 20.9872 96.9139C21.7769 98.0322 22.8792 99.1834 24.2941 100.367C23.636 101.19 23.307 102.078 23.307 103.032C23.307 103.986 24.3105 105.054 26.3177 106.239C28.4236 107.456 31.0231 108.409 34.1161 109.1C42.1777 110.909 49.7951 110.185 56.9683 106.929C57.1986 106.831 57.2315 106.469 57.067 105.844C56.9354 105.186 56.7708 104.906 56.5734 105.005C54.7308 105.827 52.4603 106.518 49.7622 107.077L39.5453 108.064C36.1891 108.064 32.8493 107.34 29.5259 105.893C26.6303 104.61 25.1825 103.624 25.1825 102.933C25.1825 102.374 25.4457 101.601 25.9722 100.614C26.1696 100.285 26.1368 99.9728 25.8735 99.6768C23.6031 97.4073 22.3856 95.9107 22.2211 95.1871C22.5173 94.6938 23.5702 94.1182 25.3799 93.4604L25.9229 93.115V92.523C25.3306 90.4508 25.0344 88.9378 25.0344 87.984V87.8853L27.0087 87.4906L29.9701 87.3426L30.7598 86.7506Z" fill="#0D131A"/>
<path d="M180.903 85.6157C181.956 85.3197 182.943 85.3197 183.865 85.6157C184.786 85.9446 185.51 86.5202 186.036 87.3425C186.431 88.0003 186.777 88.247 187.073 88.0826C187.369 87.9181 187.352 87.507 187.023 86.8491C186.332 85.4677 185.411 84.5632 184.259 84.1356C183.239 83.7738 181.973 83.7574 180.459 84.0863C177.892 84.6454 175.787 86.142 174.141 88.5759C172.496 90.9441 171.673 93.6247 171.673 96.6178C171.673 101.223 173.467 105.285 177.053 108.804C180.607 112.258 184.654 113.984 189.195 113.984C193.933 113.984 198.096 111.896 201.682 107.719C205.368 103.476 207.21 98.4762 207.21 92.7202C207.21 83.6751 203.953 76.1595 197.438 70.1733C191.416 64.6476 184.49 61.8848 176.658 61.8848C168.63 61.8848 162.542 64.7134 158.396 70.3707C154.218 76.028 152.243 84.185 152.474 94.8417C152.507 95.7626 152.803 96.552 153.362 97.2098C153.921 97.8348 154.185 97.8183 154.152 97.1605C153.527 86.3393 155.402 77.985 159.778 72.0975C163.826 66.6704 169.452 63.9569 176.658 63.9569C183.239 63.9569 189.277 66.4073 194.772 71.3081C201.057 76.8996 204.2 84.0369 204.2 92.7202C204.2 98.1143 202.752 102.67 199.856 106.386C196.961 110.103 193.407 111.962 189.195 111.962C185.148 111.962 181.676 110.465 178.781 107.472C175.918 104.479 174.487 100.861 174.487 96.6178C174.487 93.4931 175.178 90.9112 176.56 88.8719C177.744 87.1945 179.192 86.1091 180.903 85.6157Z" fill="#0D131A"/>
<path d="M206.075 99.3314C206.141 99.134 205.878 99.0847 205.285 99.1834C204.693 99.282 204.381 99.3972 204.348 99.5287C200.465 110.876 193.538 120.694 183.568 128.983C173.565 137.337 163.645 141.514 153.806 141.514C153.576 141.514 153.543 141.86 153.708 142.55C153.872 143.241 154.069 143.586 154.3 143.586C164.237 143.586 174.322 139.278 184.556 130.66C194.986 121.878 202.159 111.435 206.075 99.3314Z" fill="#0D131A"/>
<path d="M98.1812 152.368C98.3457 152.27 98.0495 152.039 97.2927 151.677C96.5688 151.316 96.1411 151.168 96.0094 151.233C91.2383 153.667 86.352 158.025 81.3505 164.308L76.859 170.228C75.5757 171.873 74.7038 172.678 74.2431 172.646C71.0843 172.448 66.527 171.133 60.5713 168.699C54.8788 166.363 52.0161 164.801 51.9832 164.012C51.9503 163.683 52.411 163.255 53.3652 162.729C54.3194 162.203 55.4547 161.759 56.7708 161.397C58.0541 161.002 58.6299 160.64 58.4983 160.311L56.376 160.163C54.5004 160.525 52.8881 161.15 51.539 162.038C50.2886 162.893 49.7622 163.601 49.9596 164.16C50.6506 166.232 54.2701 168.551 60.8181 171.116C67.2674 173.616 71.9727 174.668 74.9341 174.274C75.658 174.175 78.422 171.33 83.2261 165.738C88.6224 159.39 93.6074 154.934 98.1812 152.368Z" fill="#0D131A"/>
<path d="M108.793 54.3857C108.563 54.5172 108.365 55.0435 108.201 55.9645C108.003 56.8525 108.003 57.2308 108.201 57.0992C110.109 55.9151 114.633 52.3958 121.774 46.5411C128.157 41.3115 131.53 38.7295 131.892 38.7953C132.353 38.8611 133.011 40.1438 133.866 42.6435C134.656 45.0446 135.149 47.1003 135.347 48.8106C135.479 50.1263 135.742 50.7677 136.137 50.7348C136.531 50.7348 136.729 50.0769 136.729 48.7613C136.696 46.1958 136.252 43.5974 135.396 40.9661C134.475 38.2361 133.488 36.756 132.435 36.5258C131.448 36.3284 127.845 38.8117 121.626 43.9756C114.058 50.2907 109.78 53.7607 108.793 54.3857Z" fill="#0D131A"/>
<path d="M96.6511 71.7027L95.8121 72.1961C95.6147 74.3011 95.8779 76.8501 96.6018 79.8432C97.3586 83.0008 98.3622 85.4512 99.6125 87.1944C102.607 91.3387 106.325 94.0851 110.767 95.4336C115.143 96.7822 118.928 96.4204 122.119 94.3482C126.232 91.684 131.431 83.9875 137.716 71.2587C143.935 58.7271 146.534 51.0471 145.514 48.2184C145.185 47.2975 143.836 46.7712 141.467 46.6396L136.087 46.985C135.89 47.0179 135.808 47.2975 135.84 47.8237C135.84 48.35 135.956 48.5967 136.186 48.5638C137.568 48.4651 139.016 48.4651 140.529 48.5638C142.109 48.6953 143.014 48.8762 143.244 49.1065C144.099 51.5404 141.697 58.7107 136.038 70.6173C130.181 82.9186 125.245 90.3684 121.231 92.9668C118.434 94.8087 115.111 95.0389 111.261 93.6575C107.411 92.2761 104.104 89.6612 101.34 85.813C100.057 84.0369 99.0038 81.6851 98.1812 78.7578C97.3915 75.8305 97.1447 73.4953 97.4409 71.752L96.6511 71.7027Z" fill="#0D131A"/>
<path d="M124.192 47.5771C122.58 48.6297 121.478 49.5999 120.885 50.488C120.26 51.4747 120.178 52.1161 120.639 52.4121C121.099 52.6753 121.642 52.3299 122.267 51.3761C122.662 50.7511 123.518 50.0769 124.834 49.3533C126.084 48.6625 126.907 48.3665 127.302 48.4652C127.631 48.7941 127.878 49.8137 128.042 51.5241C128.207 53.4646 128.174 55.7177 127.943 58.2832C127.812 59.5659 128.026 60.2238 128.585 60.2567C129.111 60.2895 129.424 59.6646 129.523 58.3819C130.148 51.0471 129.72 47.0344 128.239 46.3437C127.384 45.949 126.035 46.3602 124.192 47.5771Z" fill="#0D131A"/>
<defs>
<filter id="filter0_df" x="0" y="138" width="472" height="83" filterUnits="userSpaceOnUse" color-interpolation-filters="sRGB">
<feFlood flood-opacity="0" result="BackgroundImageFix"/>
<feColorMatrix in="SourceAlpha" type="matrix" values="0 0 0 0 0 0 0 0 0 0 0 0 0 0 0 0 0 0 127 0" result="hardAlpha"/>
<feOffset dy="13"/>
<feGaussianBlur stdDeviation="3"/>
<feColorMatrix type="matrix" values="0 0 0 0 0 0 0 0 0 0 0 0 0 0 0 0 0 0 0.25 0"/>
<feBlend mode="normal" in2="BackgroundImageFix" result="effect1_dropShadow"/>
<feBlend mode="normal" in="SourceGraphic" in2="effect1_dropShadow" result="shape"/>
<feGaussianBlur stdDeviation="1" result="effect2_foregroundBlur"/>
</filter>
</defs>
</svg>
