<svg width="209" height="77" viewBox="0 0 209 77" fill="none" xmlns="http://www.w3.org/2000/svg">
<g clip-path="url(#clip0)">
<path d="M0 28.4867L9.32736 44.3061L13.051 40.738L2.89919 25.528L0 28.4867Z" fill="url(#paint0_linear)"/>
<path d="M138.489 16.0539L138.129 18.1392L142.59 16.6929L142.034 14.1386L138.489 16.0539Z" fill="#0071B9"/>
<path d="M112.496 1.81252L98.1413 18.3511L102.319 17.1441L115.985 0L112.496 1.81252Z" fill="url(#paint1_linear)"/>
<path d="M189.29 24.4253L192.813 22.5388L191.807 31.4034L189.29 24.4253Z" fill="#1D2C5E"/>
<path d="M167.39 30.1099L170.522 30.7543L174.519 28.8047L171.05 27.5041L167.39 30.1099Z" fill="#1D2C5E"/>
<path d="M59.4094 20.6974L59.9104 30.9702L64.2817 29.1959L62.9732 18.7766L59.4094 20.6974Z" fill="url(#paint2_linear)"/>
<path d="M170.779 17.6319L167.261 19.5395L167.39 30.1099L170.931 28.2865L172.043 23.17L170.779 17.6319Z" fill="url(#paint3_linear)"/>
<path d="M170.296 30.7839L166.422 65.3589L172.615 64.1316L173.828 28.9192L170.296 30.7839Z" fill="#312370"/>
<path d="M177.88 67.0164L177.99 71.7051L189.878 75.5116L193.417 73.6274L181.752 64.5477L169.935 63.5051L166.422 65.3589L177.88 67.0164Z" fill="#21386E"/>
<path d="M133.778 58.7696L136.699 57.1885L138.562 60.6453L141.315 59.125L141.863 63.682L159.147 66.7615L162.601 64.8532L138.768 50.2634L121.861 53.1747L118.564 56.3236L133.778 58.7696Z" fill="#21386E"/>
<path d="M128.274 16.23L124.814 18.1431L118.564 56.3236L122.065 54.4963L128.065 33.0585L128.274 16.23Z" fill="url(#paint4_linear)"/>
<path d="M100.664 21.3473L97.9078 22.8224L98.1397 23.7458L104.7 19.559L101.833 16.4685L98.1413 18.3511L100.664 21.3473Z" fill="#1D2C5E"/>
<path d="M108.201 66.4475L80.0155 52.4204L83.5538 49.7328L111.708 64.5446L108.201 66.4475Z" fill="#21386E"/>
<path d="M82.6642 14.2422L78.3929 22.3798L82.9062 21.0068L86.1629 12.3354L82.6642 14.2422Z" fill="#1D2C5E"/>
<path d="M43.9245 47.8603L40.3211 50.3453C40.3211 50.3453 41.0858 54.3849 42.0716 57.1948C43.0628 60.0149 45.4222 62.2801 45.4222 62.2801C46.9377 63.7685 48.7953 64.8516 50.8677 65.4594C54.8535 66.6119 59.352 65.8607 63.2137 63.3867C64.2235 62.7446 65.594 61.7167 66.4363 60.9056C62.6405 63.2199 43.9245 47.8603 43.9245 47.8603Z" fill="url(#paint5_linear)"/>
<path d="M63.2082 30.1325L66.4968 66.5823L79.9333 64.5851L83.5282 62.6924L66.8536 27.9475L63.4231 29.1086L59.9104 30.9702L63.2082 30.1325Z" fill="#1D2C5E"/>
<path d="M12.8362 42.7928L27.8487 77L42.1112 72.3775L45.5936 70.0258L15.9905 38.9068L12.2863 41.137L9.32736 44.3061L12.8362 42.7928Z" fill="url(#paint6_linear)"/>
<path d="M161.62 58.9317L161.822 60.611C163.05 60.4723 164.341 60.3125 165.445 59.9175C166.733 59.4748 169.53 58.2234 170.593 57.3015C170.194 57.4473 163.641 59.1538 161.62 58.9317Z" fill="#1D2C5E"/>
<path d="M111.16 50.1972L111.696 52.9012C114.582 52.4695 117.06 51.3964 119.497 49.9252C121.025 49.0104 122.704 47.6304 123.233 47.2626C122.86 47.5026 111.16 50.1972 111.16 50.1972Z" fill="#1D2C5E"/>
<path d="M31.7515 73.7568L30.637 71.2687L16.4032 39.3517L16.1108 38.6971L15.4639 38.9972L15.0319 39.1966L12.498 40.4465C12.1242 39.8169 11.5037 38.7618 11.0725 38.0301L5.34311 28.3021L3.84465 25.7625L6.32347 24.1845C8.6681 22.6822 11.316 21.2943 14.1966 20.0585C19.9321 17.6038 25.7864 16.3056 31.1248 16.3056C32.8808 16.3056 34.5801 16.4482 36.1763 16.7272C38.8374 17.0319 41.2983 17.9093 43.3312 19.2699C46.3607 20.9717 48.7457 23.6118 50.0929 26.735C51.1989 29.3018 51.4145 32.3081 50.7118 35.4267L50.2992 37.2587L51.8139 36.1553C52.8346 35.4111 53.9437 34.7752 55.1102 34.2648C57.1268 33.4084 59.2131 32.9713 61.3034 32.9713C63.2819 32.9713 65.1527 33.3648 66.8644 34.1386L67.9681 34.6357L67.8572 33.4256L67.3771 28.1961L67.2995 27.367L66.496 27.5766L64.0847 28.2047L63.662 19.3003L81.3255 13.6305L81.1828 20.5509L82.5129 20.8938L86.3708 13.4661L97.9249 23.7614L98.4065 24.1923L98.8765 23.7482C100.46 22.2536 102.336 21.0543 104.452 20.1839L105.336 19.8208L104.731 19.0782L102.647 16.5269L115.913 1.16496L122.86 11.5795L112.225 17.3225L109.864 18.5989L112.545 18.6558C117.586 18.7626 122.051 20.9055 125.113 24.6887L126.221 26.061L126.935 26.9423L125.749 28.2062L124.959 29.0494L122.302 31.8967L121.808 32.4258L122.342 32.9105L124.833 35.1633L125.796 36.0337L126.002 34.7495L126.958 28.8062L127.202 27.2805L127.21 27.289L127.461 25.7306L128.888 16.9563H141.621H142.219L142.319 16.3649L142.568 14.8625H154.036L156.814 32.4897L156.995 33.6313L157.925 32.9526C159.051 32.1313 160.294 31.4556 161.622 30.9452C163.389 30.2751 165.209 29.933 167.025 29.933C169.188 29.933 171.287 30.4348 173.103 31.3832C173.151 31.4182 173.219 31.4634 173.312 31.5008L174.174 31.8484L174.276 30.9195L174.484 28.9987L174.552 28.3691L173.935 28.2311L171.61 27.7091L171.497 18.5202L189.225 22.4406L190.556 29.0525L191.933 29.0797L193.307 23.3897L208.089 27.0015L192.982 72.7453L182.172 69.3346L182.095 65.1212L182.084 64.5173L181.488 64.4332L170.701 62.9035L171.311 57.3951L171.456 56.0844L170.289 56.6852C169.736 56.968 169.201 57.2057 168.695 57.3927C166.931 58.0629 165.125 58.4018 163.326 58.4018C162.806 58.4018 162.283 58.373 161.775 58.3153L160.853 58.2117L160.997 59.1312L161.757 63.9757L146.019 61.1868L145.195 53.9976L144.929 51.6933L143.869 53.7529L142.057 57.2634L138.721 51.0762L137.719 49.2177L137.402 51.3061L136.675 56.0953L122.882 53.9142L123.952 47.3413L124.196 45.8342L122.892 46.6174C120.634 47.9771 118.042 49.0003 114.968 49.746C113.894 50.0094 112.771 50.1917 111.629 50.2868L110.982 50.3414V50.9936V63.3975L83.8183 49.9097L82.7976 49.4039L82.7983 50.5471L82.817 62.083L70.6719 63.8807L70.1615 58.341L70.0235 56.8589L68.9648 57.9016C67.36 59.4795 65.5521 60.7029 63.5922 61.5383C61.5873 62.3947 59.5187 62.8279 57.4456 62.8279C55.3755 62.8279 53.4303 62.3931 51.6635 61.543C48.3904 59.9611 46.0295 57.0911 45.0166 53.47C44.5341 51.7689 44.4031 49.9728 44.6272 48.1291L44.8669 46.1654L43.4413 47.5291C42.4361 48.4875 41.3534 49.4031 40.221 50.2439L39.8371 50.5284L39.9581 50.992L44.0494 66.7701L44.7723 69.5699L42.0328 70.445L34.3296 72.923L31.7515 73.7568ZM35.2091 31.4003C34.812 31.4003 34.4017 31.4369 33.9883 31.5118L33.464 31.6131L32.69 31.7627L32.9234 32.5201L33.0754 33.0126L35.2781 40.2541L35.4984 40.9499L35.8257 41.9941L36.6401 41.2663L37.1807 40.7824C39.3159 38.8545 40.0644 36.8971 39.6137 34.4285C39.3299 32.9471 38.1882 32.2092 37.532 31.9006C36.8464 31.5686 36.0615 31.4003 35.2091 31.4003ZM94.2594 31.638L92.8827 32.9845L89.2568 36.5246L88.4672 37.2953L89.4949 37.6943L93.3837 39.2021L94.5781 39.6642L94.3315 38.4034C94.0104 36.7748 93.9267 35.1446 94.0771 33.5588L94.2594 31.638ZM110.094 27.6117C108.59 27.6117 107.135 28.2615 106.101 29.393C104.533 31.1136 104.228 33.6516 105.343 35.7072L105.639 36.2644L106.114 37.155L106.784 36.4023L107.214 35.923L112.533 29.8216L112.951 29.3384L113.622 28.5639L112.665 28.2078L112.069 27.9865C111.443 27.7402 110.773 27.6117 110.094 27.6117Z" fill="#FFCB05"/>
<path d="M118.231 36.6493C118.18 36.6945 118.132 36.7522 118.092 36.8114C118.146 36.7623 118.197 36.7194 118.253 36.6742L118.231 36.6493Z" fill="#7D7F68"/>
<path d="M122.817 32.3814L125.473 29.534L124.564 30.5034L124.591 30.3811L123.787 31.2328L121.133 34.0716L123.62 36.3189L124.07 33.5199L125.308 34.6334L122.817 32.3814Z" fill="#7D7F68"/>
<path d="M122.817 32.3814L125.308 34.6334L126.262 28.6909L125.473 29.534L122.817 32.3814Z" fill="#7D7F68"/>
<path d="M89.7485 37.0311L89.7888 37.0483L89.7485 37.0311Z" fill="#7D7F68"/>
<path d="M104.455 39.5029C104.668 39.7187 104.472 39.5637 104.71 39.7273L106.335 38.5764C106.093 38.4049 105.855 38.221 105.635 38.0153C103.277 35.8568 103.89 31.0021 105.419 28.3449C101.393 31.6084 101.603 36.6322 104.455 39.5029Z" fill="#C7A008"/>
<path d="M124.07 42.2209C121.387 44.4511 118.328 45.9051 114.286 46.8862C113.403 47.0896 112.537 47.2376 111.69 47.3124C105.275 47.946 99.8933 44.9864 97.8512 40.1863C97.5968 39.605 97.4006 39.0166 97.2524 38.3886C96.3077 34.3459 97.1144 30.7333 99.1022 27.9015C99.2992 27.6272 99.5063 27.3646 99.7235 27.0974C99.6219 27.1846 99.5179 27.2594 99.4334 27.3413C98.6694 28.0247 97.9931 28.7735 97.4184 29.5917C95.4282 32.4235 94.6216 36.0384 95.5748 40.0748C95.7206 40.7029 95.9137 41.2998 96.1627 41.8679C98.2056 46.6789 103.589 49.6369 109.999 49.0081C110.853 48.9255 111.715 48.7837 112.599 48.5694C116.646 47.5883 119.702 46.1405 122.386 43.9103C123.041 43.3687 123.673 42.778 124.287 42.132L124.23 42.0775C124.169 42.1305 124.123 42.1765 124.07 42.2209Z" fill="#C7A008"/>
<path d="M78.8614 30L86.0287 19.8808L85.7379 19.6112L78.8226 29.3704L78.8614 30Z" fill="#C7A008"/>
<path d="M126.262 28.6909L125.308 34.6334L124.07 33.5199L123.62 36.3189L121.133 34.0716L123.787 31.2328L124.591 30.3811L124.564 30.5034L125.473 29.534L126.262 28.6909Z" fill="#C7A008"/>
<path d="M117.406 12.0229L119.915 10.9413L115.328 5.02611L113.825 7.13552L117.406 12.0229Z" fill="#C7A008"/>
<path d="M47.9204 26.6774C36.3361 12.499 15.4623 20.12 7.95998 26.7522L8.25315 27.261C9.97809 26.2667 11.7969 25.3674 13.7103 24.5609C21.1622 21.3629 28.2667 20.4255 33.9627 21.4268C35.9762 21.659 38.1091 22.2591 39.9651 23.5074C42.5346 24.9529 44.4822 27.0093 45.6208 29.6447C47.6412 34.3124 45.8612 40.519 41.1029 45.715C47.0711 40.2128 51.1547 34.9482 47.9204 26.6774Z" fill="#C7A008"/>
<path d="M71.5545 43.1957C71.5002 42.9386 71.4459 42.6775 71.3629 42.4258C70.7106 40.0686 69.3091 38.1867 67.4717 36.9345C64.4981 34.9054 60.3471 34.4885 56.21 36.2433C54.0337 37.1885 52.1412 38.6434 50.6451 40.3811C51.7953 39.3868 53.1099 38.5584 54.5301 37.9413C58.6578 36.181 62.8088 36.5971 65.7925 38.6239C67.6299 39.8777 69.0198 41.7588 69.6861 44.1129C69.7597 44.3654 69.8171 44.6303 69.8745 44.896C70.0514 45.7922 70.1336 46.6984 70.0994 47.6265C70.0134 50.3398 69.0121 53.0718 67.3468 55.4049C67.0785 55.7742 66.7962 56.1187 66.5038 56.46C67.4516 55.6379 68.2977 54.7285 69.0206 53.71C70.6928 51.3918 71.6918 48.6543 71.7802 45.9246C71.8174 45.0137 71.7422 44.0926 71.5545 43.1957Z" fill="#C7A008"/>
<path d="M60.1477 39.7351C60.1315 39.7608 61.8285 38.0457 61.8091 38.0457C59.6863 37.9647 58.7889 39.9759 58.7152 40.1341C59.1511 39.9221 59.632 39.7842 60.1477 39.7351Z" fill="#C7A008"/>
<path d="M64.1459 42.1936C64.232 42.4827 64.277 42.7702 64.277 43.0851C64.277 43.5292 64.1785 43.9555 63.9994 44.3482C64.3391 44.1698 66.7938 42.9736 65.8422 40.4395C65.8934 40.5175 64.0847 42.1858 64.1459 42.1936Z" fill="#C7A008"/>
<path d="M54.4897 43.604C54.4897 42.5614 56.2666 40.032 56.8204 39.1881C54.0143 40.9803 52.8059 43.3991 52.8059 45.3043C52.8059 48.5686 55.6609 51.1939 59.0743 51.1939C60.6891 51.1939 63.6465 50.3359 65.5808 47.1909C64.5671 47.861 61.9906 49.4647 60.6387 49.4647C57.226 49.4639 54.4897 46.8862 54.4897 43.604Z" fill="#C7A008"/>
<path d="M78.5116 46.5916L78.5558 59.8037L80.643 59.9237L80.2303 44.8625L78.5116 46.5916Z" fill="#C7A008"/>
<path d="M66.5317 21.4377L66.5744 22.6113L76.4656 19.6525L77.1985 32.3074L78.849 29.9837L78.4969 17.2844L66.5317 21.4377Z" fill="#C7A008"/>
<path d="M96.4318 25.969L87.1409 17.402L86.0287 19.8808L94.2059 27.5992L96.4318 25.969Z" fill="#C7A008"/>
<path d="M95.0195 41.9341L84.1114 38.3106L82.5222 39.9969L93.3892 44.3661C94.6216 46.6992 96.4892 48.6979 98.8408 50.159C101.117 51.5578 103.719 52.3954 106.474 52.6612V58.0535L108.158 58.8982L108.691 50.7972L95.0195 41.9341Z" fill="#C7A008"/>
<path d="M112.536 40.4099C115.215 39.7608 116.76 38.3566 118.09 36.8114C117.091 37.6343 112.087 38.7299 111.247 39.0159L109.598 40.7793C110.352 40.8463 111.611 40.6421 112.536 40.4099Z" fill="#C7A008"/>
<path d="M107.663 21.7744C102.723 22.4242 100.149 26.5908 99.7235 27.0981C101.548 25.5498 103.834 24.4004 106.409 23.7879C112.522 22.3027 117.911 24.1752 121.242 28.313L123.304 26.5597C120.005 22.4936 113.774 20.2938 107.663 21.7744Z" fill="#C7A008"/>
<path d="M124.231 42.0775C124.827 41.5741 125.885 41.0653 126.448 40.4723L119.834 34.5344C119.328 35.143 118.868 36.1459 118.25 36.6735L124.231 42.0775Z" fill="#C7A008"/>
<path d="M158.174 57.9896C151.235 52.2591 151.65 39.9712 155.056 36.0727L151.999 16.8137L145.312 17.681L145.014 19.3774H150.074L152.754 36.8511C149.344 40.7621 147.697 46.0018 148.836 50.7988C149.718 54.5056 151.984 57.5057 155.246 59.2411C155.574 59.4219 155.913 59.5793 156.26 59.7281L156.303 59.9845L158.293 60.3001C158.293 60.2993 158.5 58.1564 158.174 57.9896Z" fill="#C7A008"/>
<path d="M131.503 19.6478L131.215 21.345H138.842L141.089 33.7201L142.782 32.0027L141.002 18.9387L131.503 19.6478Z" fill="#C7A008"/>
<path d="M144.56 43.6718L142.098 50.0632L142.707 51.7261L146.229 41.9926L144.56 43.6718Z" fill="#C7A008"/>
<path d="M137.247 39.6463L135.552 41.3474L133.734 52.891L135.475 53.5589L137.247 39.6463Z" fill="#C7A008"/>
<path d="M171.503 35.9589C172.501 36.675 173.353 37.5813 173.993 38.659C174.499 39.4857 174.881 40.4115 175.126 41.4276C175.956 44.8976 174.963 48.6504 172.767 51.6614C172.546 51.9669 172.303 52.2622 172.07 52.5521C172.962 51.7814 183.795 43.7529 173.211 33.2082C161.569 29.3525 157.162 36.9836 156.75 37.4675C157.98 36.4171 159.4 35.5482 160.937 34.9576C164.877 33.4583 168.753 33.9781 171.503 35.9589Z" fill="#C7A008"/>
<path d="M165.634 36.7194C165.666 36.7935 167.305 35.0035 167.339 35.0035C165.267 35.0893 164.272 36.0937 164.374 36.5574C164.25 36.7374 164.149 36.9158 164.07 37.1129C164.512 36.8916 165.33 36.7218 165.634 36.7194Z" fill="#C7A008"/>
<path d="M169.529 39.3353C169.603 39.6143 169.639 39.9065 169.633 40.2206C169.614 40.6227 169.51 40.9912 169.358 41.3349C169.673 41.1923 172.184 40.4091 171.225 37.6335C171.25 37.7122 169.502 39.3369 169.529 39.3353Z" fill="#C7A008"/>
<path d="M164.029 48.1486C166.372 48.2491 168.964 46.8028 170.822 44.2469C166.054 45.2295 161.041 37.2517 161.543 36.4709C159.742 37.7831 158.147 40.3141 158.074 42.083C157.95 45.3628 160.608 48.0114 164.029 48.1486Z" fill="#C7A008"/>
<path d="M190.16 68.9348L191.278 69.686L204.919 28.5538L194.71 26.1833L194.582 28.5927L202.817 30.4286L190.16 68.9348Z" fill="#C7A008"/>
<path d="M173.96 21.7744L174.049 24.0716L184.904 26.262L189.083 46.174L190.774 44.4612L186.793 24.3443L173.96 21.7744Z" fill="#C7A008"/>
<path d="M182.313 44.4651L179.325 61.4463L181.046 62.0066L184.013 42.7928L182.313 44.4651Z" fill="#C7A008"/>
<path d="M41.4519 67.6772L36.3748 49.1834L34.5165 50.4894L39.2221 68.207L41.4519 67.6772Z" fill="#C7A008"/>
<path d="M40.1342 39.8676C38.963 41.1159 36.3671 43.5417 34.888 44.4986L33.9899 41.6014L32.0229 35.249L30.7727 30.9484L29.5527 32.5217L30.7983 36.8285L32.7652 43.1762L33.6595 46.082C35.6846 44.7713 38.6303 42.3113 40.1342 39.8676Z" fill="#C7A008"/>
<path d="M112.073 28.9325C110.47 28.313 108.201 28.4992 106.975 29.8465C106.691 30.159 106.137 30.9562 105.962 31.3123C107.148 30.3647 109.259 30.1598 110.644 30.6616L112.073 28.9325Z" fill="#7D7F68"/>
<path d="M38.6691 34.6708C38.4891 33.7201 37.5623 32.965 37.1078 32.7554C36.295 32.3611 34.8888 32.2996 33.8619 32.4874C34.0465 33.1279 34.2582 33.8791 34.3482 34.1869C34.7647 34.2453 35.4488 34.37 35.8079 34.5344C36.2585 34.7526 37.0465 35.2669 37.2295 36.2238C37.4746 37.501 37.4103 38.6948 36.8805 39.6642C38.3332 38.2319 39.0382 36.6742 38.6691 34.6708Z" fill="#7D7F68"/>
<path d="M41.213 34.6443C40.5158 30.8852 35.6233 28.8132 30.7727 31.4712L32.0229 35.7734L33.9899 42.1313L34.8872 45.0269C38.5263 42.676 42.1841 39.8512 41.213 34.6443ZM36.395 40.4247C35.8653 38.6878 34.7034 34.9373 34.7034 34.9373C34.7088 34.9544 34.4746 34.1347 34.197 33.1965C35.2254 33.0118 36.2135 33.0866 37.0263 33.4793C37.4808 33.6968 38.2797 34.204 38.4542 35.1656C38.856 37.3272 38.1308 38.8701 36.395 40.4247Z" fill="#3C5AA6"/>
<path d="M114.612 28.68C111.9 26.181 107.686 26.375 105.212 29.0969C102.724 31.8141 102.92 36.0508 105.635 38.5397C105.856 38.754 106.095 38.9293 106.335 39.1016L115.082 29.1499C114.928 28.9878 114.772 28.8265 114.612 28.68ZM106.353 35.6799C105.498 34.1019 105.671 32.0985 106.95 30.6943C108.18 29.3478 110.065 28.9644 111.672 29.587L106.353 35.6799Z" fill="#3567B0"/>
<path d="M126.299 27.5875L121.455 32.2762L126.057 36.428L126.299 27.5875Z" fill="#1E2D5F"/>
<path d="M171.212 37.6335C171.286 37.9288 171.324 38.221 171.314 38.532C171.234 40.3912 169.494 41.8266 167.42 41.7292C165.348 41.6575 163.72 40.0772 163.801 38.2226C163.871 36.4841 165.413 35.108 167.317 35.0199C166.956 34.9381 166.578 34.8952 166.184 34.8812C162.715 34.7308 159.879 37.1994 159.76 40.2728C159.626 43.5596 162.248 46.2394 165.663 46.3883C169.137 46.5278 171.971 44.0505 172.109 40.7793C172.149 39.6455 171.815 38.5584 171.212 37.6335Z" fill="#3466AF"/>
<path d="M65.9671 41.3871C65.9671 43.2542 64.277 44.7503 62.207 44.7503C60.1314 44.7503 58.4476 43.2534 58.4476 41.3871C58.4476 39.647 59.929 38.2125 61.8277 38.0457C61.4639 37.9795 61.0854 37.9413 60.6945 37.9413C57.226 37.9413 54.4897 40.526 54.4897 43.604C54.4897 46.8885 57.2268 49.4647 60.6387 49.4647C64.1103 49.4647 66.8443 46.887 66.8443 43.604C66.8443 42.4671 66.4704 41.3957 65.8274 40.5136C65.9143 40.7793 65.9671 41.0738 65.9671 41.3871Z" fill="url(#paint7_linear)"/>
<path d="M192.79 22.5294L191.25 28.9075L189.827 21.8453L170.779 17.6327L170.913 28.274L173.783 28.9208L173.576 30.84C173.539 30.8252 173.516 30.8026 173.495 30.7863C169.937 28.8997 165.525 28.7065 161.374 30.2821C159.981 30.8175 158.688 31.5211 157.515 32.3767L154.641 14.1518H141.973L141.624 16.2472H128.291L126.769 25.616L125.663 24.2438C122.431 20.2556 117.748 18.0589 112.559 17.9498L123.88 11.8367L115.985 0.000778198L101.723 16.5121L104.185 19.5278C101.955 20.4434 100.007 21.7058 98.3926 23.2308L86.1637 12.3299L81.8878 20.5634L82.0522 12.651L62.9329 18.7875L63.4231 29.1078L66.676 28.26L67.1568 33.4902C63.4402 31.8133 58.9727 31.8546 54.8295 33.6134C53.6017 34.151 52.4569 34.8118 51.4021 35.5802C52.1187 32.3939 51.9489 29.2527 50.7405 26.4514C49.3134 23.1411 46.802 20.4052 43.7229 18.6792C41.5644 17.2345 38.9917 16.3345 36.2996 16.0282C29.6837 14.8664 21.7393 16.0594 13.9205 19.4062C11.0461 20.6382 8.36484 22.0362 5.94652 23.5837L2.88988 25.5311L4.73581 28.6628L10.4644 38.3901C10.4644 38.3901 12.2172 41.3707 12.2289 41.3692L15.3266 39.8395L15.7586 39.64L29.9932 71.5585L31.366 74.6264L34.5444 73.5978L42.2461 71.1191L45.6215 70.0414L44.7311 66.5893L40.6406 50.8136C41.8172 49.9385 42.9155 49.0104 43.9292 48.0387C43.7004 49.9237 43.8206 51.832 44.3371 53.6586C45.4067 57.4831 47.8995 60.5042 51.3586 62.178C55.0947 63.982 59.6529 63.9867 63.8698 62.1897C65.9849 61.2881 67.8657 59.9728 69.4596 58.4073L70.0405 64.6903L83.5282 62.6947L83.5072 50.544L111.69 64.5384V50.9881C112.821 50.8931 113.975 50.7138 115.135 50.4279C118.239 49.6743 120.896 48.641 123.256 47.2205L122.072 54.4978L137.268 56.9002L138.102 51.4066L142.07 58.7728L144.497 54.0763L145.383 61.7876L162.611 64.8391L161.698 59.0159C164.056 59.2839 166.542 58.966 168.943 58.0559C169.512 57.8447 170.073 57.5875 170.611 57.3117L169.925 63.5074L181.391 65.1329L181.476 69.8575L193.433 73.6282L209 26.488L192.79 22.5294ZM125.473 29.5348L126.264 28.6909L125.309 34.6342L122.819 32.3806L125.473 29.5348ZM115.377 5.25676L119.551 10.9538L107.617 16.8979L106.792 15.6394L115.377 5.25676ZM36.3516 49.1881L41.113 67.5431L33.4066 70.0164L17.5929 34.5344C16.7328 34.9887 15.1444 35.7508 13.6855 36.4693L7.9592 26.7506C10.2364 25.2895 12.7338 23.9944 15.3902 22.8668C22.8453 19.6813 29.9583 18.7306 35.6473 19.7405C37.66 19.9681 39.7906 20.5642 41.6567 21.8086C44.2169 23.2572 46.1753 25.3191 47.3046 27.9452C50.0587 34.3396 45.4579 43.5417 36.3516 49.1881ZM71.7817 45.9215C71.6933 48.6543 70.6943 51.3926 69.0221 53.7092C67.4314 55.9496 65.2093 57.7987 62.5948 58.9294C55.9091 61.7752 49.2234 58.9294 47.4372 52.5521C45.7069 46.3859 49.733 39.0455 56.2108 36.2418C60.3478 34.4869 64.4989 34.903 67.4725 36.9329C69.3091 38.1844 70.7099 40.0663 71.3637 42.4243C71.4459 42.6744 71.5002 42.937 71.5553 43.1941C71.7422 44.0926 71.8174 45.0137 71.7817 45.9215ZM108.158 58.8982L80.1939 44.8461L80.2435 59.5691L73.0095 60.5603L72.5054 54.4916C74.7391 50.6437 75.5558 46.1093 74.3901 41.9513C73.7502 39.6657 72.5682 37.6818 70.9619 36.0921L69.9242 23.7186L66.676 24.5648L66.5325 21.4362L78.1494 17.9607L78.8614 29.9985L87.4194 17.9179L95.7858 25.923L84.0858 38.3067L95.0776 42.6752C96.3054 45.0129 98.1785 46.9992 100.529 48.4626C102.8 49.8715 105.403 50.7045 108.157 50.978L108.158 58.8982ZM93.6381 38.5397L89.7485 37.0319L93.3744 33.491C93.2193 35.1165 93.2992 36.8161 93.6381 38.5397ZM124.07 42.2209C121.387 44.4511 118.328 45.9051 114.286 46.8862C113.403 47.0896 112.537 47.2376 111.69 47.3124C105.275 47.946 99.8933 44.9864 97.8512 40.1863C97.5968 39.605 97.4006 39.0166 97.2524 38.3886C96.3077 34.3459 97.1144 30.7325 99.1022 27.9015C99.6746 27.0755 100.354 26.3228 101.117 25.6448C102.99 23.9664 105.38 22.7461 108.098 22.0899C114.209 20.6094 119.59 22.4835 122.89 26.5511L111.245 39.0042C112.035 39.1538 113.29 38.9457 114.217 38.7229C116.991 38.0434 118.543 36.5644 119.91 34.9529L124.564 39.1592L125.974 40.4388C125.362 41.0738 124.72 41.6731 124.07 42.2209ZM148.775 58.8398L146.242 41.9809L142.66 51.2811L137.296 39.6572H137.235L135.116 53.1186L126.175 51.5554L127.433 44.0435C127.77 43.7248 128.102 43.4053 128.428 43.0679L131.326 40.0702L128.51 37.5361L131.502 19.647H140.522L142.78 32.0307L145.31 17.6794H151.762L154.44 35.1641C151.032 39.0634 149.377 44.3053 150.516 49.1008C151.396 52.8186 153.67 55.8124 156.93 57.561C157.258 57.727 157.598 57.8914 157.949 58.0333L158.29 60.3001L148.775 58.8398ZM171.055 53.3469C170.069 54.0521 168.984 54.6513 167.817 55.0838C165.514 55.9651 163.224 56.1483 161.184 55.7407C159.761 55.4586 158.464 54.9015 157.336 54.095C155.541 52.7905 154.219 50.8642 153.637 48.4455C152.958 45.5397 153.583 42.4367 155.139 39.7187C155.915 38.3901 156.91 37.1418 158.087 36.0656C159.4 34.8828 160.923 33.9142 162.617 33.2596C166.559 31.7822 170.447 32.2918 173.184 34.2687C174.191 34.9856 175.026 35.8981 175.685 36.9587C176.184 37.7963 176.572 38.7197 176.807 39.7281C177.646 43.2175 176.647 46.9548 174.456 49.9658C173.518 51.2492 172.374 52.4025 171.055 53.3469ZM191.185 69.2372L184.574 67.2587L183.998 42.7702L180.673 61.6614L173.461 60.505L173.977 55.0659C178.686 51.0676 181.183 44.7604 179.815 39.0447C179.214 36.5137 177.919 34.31 176.093 32.6346L176.702 26.2199L173.975 25.4906L174.157 22.0658L186.583 24.5749L190.761 44.4815L195.046 26.6345L204.499 28.733L191.185 69.2372Z" fill="url(#paint8_linear)"/>
<path d="M196.618 71.558V69.7093H195.931V69.462H197.584V69.7093H196.894V71.558H196.618Z" fill="black"/>
<path d="M197.86 71.558V69.462H198.276L198.77 70.9461C198.815 71.0843 198.849 71.1877 198.869 71.2564C198.893 71.1801 198.93 71.0681 198.98 70.9204L199.48 69.462H199.851V71.558H199.585V69.8037L198.979 71.558H198.73L198.127 69.7737V71.558H197.86Z" fill="black"/>
</g>
<defs>
<linearGradient id="paint0_linear" x1="10.3155" y1="41.7081" x2="2.48939" y2="27.1913" gradientUnits="userSpaceOnUse">
<stop stop-color="#0070B6"/>
<stop offset="1" stop-color="#1D2C5E"/>
</linearGradient>
<linearGradient id="paint1_linear" x1="105.075" y1="11.9903" x2="114.986" y2="1.42029" gradientUnits="userSpaceOnUse">
<stop stop-color="#0070B6"/>
<stop offset="1" stop-color="#1D2C5E"/>
</linearGradient>
<linearGradient id="paint2_linear" x1="62.0496" y1="29.6892" x2="60.8626" y2="19.7642" gradientUnits="userSpaceOnUse">
<stop stop-color="#0070B6"/>
<stop offset="1" stop-color="#1D2C5E"/>
</linearGradient>
<linearGradient id="paint3_linear" x1="169.776" y1="27.7784" x2="169.302" y2="18.8189" gradientUnits="userSpaceOnUse">
<stop stop-color="#125D9E"/>
<stop offset="1" stop-color="#1D2C5E"/>
</linearGradient>
<linearGradient id="paint4_linear" x1="136.862" y1="14.8638" x2="126.444" y2="31.3616" gradientUnits="userSpaceOnUse">
<stop stop-color="#125D9E"/>
<stop offset="1" stop-color="#1D2C5E"/>
</linearGradient>
<linearGradient id="paint5_linear" x1="45.272" y1="41.3961" x2="52.3811" y2="55.3121" gradientUnits="userSpaceOnUse">
<stop stop-color="#105FA1"/>
<stop offset="1" stop-color="#1D2C5E"/>
</linearGradient>
<linearGradient id="paint6_linear" x1="18.6463" y1="36.6369" x2="26.8777" y2="55.6297" gradientUnits="userSpaceOnUse">
<stop stop-color="#105FA1"/>
<stop offset="1" stop-color="#1D2C5E"/>
</linearGradient>
<linearGradient id="paint7_linear" x1="54.4898" y1="43.7026" x2="66.8441" y2="43.7026" gradientUnits="userSpaceOnUse">
<stop stop-color="#3C5AA6"/>
<stop offset="0.9331" stop-color="#2B73B9"/>
<stop offset="1" stop-color="#2A75BB"/>
</linearGradient>
<linearGradient id="paint8_linear" x1="2.8904" y1="37.3135" x2="209.001" y2="37.3135" gradientUnits="userSpaceOnUse">
<stop stop-color="#3C5AA6"/>
<stop offset="0.9331" stop-color="#2B73B9"/>
<stop offset="1" stop-color="#2A75BB"/>
</linearGradient>
<clipPath id="clip0">
<rect width="209" height="77" fill="white"/>
</clipPath>
</defs>
</svg>
