<svg width="538" height="588" viewBox="0 0 538 588" fill="none" xmlns="http://www.w3.org/2000/svg">
<path fill-rule="evenodd" clip-rule="evenodd" d="M307.821 38.7527C297.197 56.2303 287.933 85.9282 284.387 113.875C283.949 117.324 283.275 122.065 282.89 124.41C282.503 126.755 281.943 131.157 281.645 134.192C281.346 137.227 280.912 141.629 280.678 143.974C280.175 149.064 279.711 148.364 283.996 148.972C288.282 149.579 290.156 150.357 290.156 151.526C290.156 152.816 289.236 152.955 285.63 152.209C283.84 151.839 281.245 151.485 279.865 151.423C277.534 151.317 259.282 153.794 258.408 154.334C258.192 154.467 255.591 155.101 252.626 155.743C225.122 161.704 198.763 175.407 190.843 187.862C189.253 190.364 188.354 191.139 187.448 190.791C185.892 190.194 187.146 187.653 191.664 182.254L193.844 179.651L192.177 179.385C184.06 178.093 156.727 177.645 144.774 178.609C125.486 180.162 101.242 185.83 81.9552 193.291C77.1925 195.134 77.19 195.141 79.6925 198.47C86.1193 207.021 100.625 216.604 114.599 221.53C119.201 223.153 151.955 220.228 172.254 216.382L179.099 215.084L179.431 212.142C179.777 209.082 180.327 207.034 181.523 204.348C181.91 203.478 182.226 202.527 182.226 202.234C182.226 201.94 182.654 201.471 183.177 201.191C185.184 200.118 185.248 201.645 183.443 207.594C180.337 217.83 181.526 234.72 186.37 249.187L188.424 255.323L187.072 263.735C185.689 272.329 185.478 275.887 186.242 277.665C186.63 278.567 186.677 278.577 186.709 277.755C186.878 273.363 192.947 264.88 197.551 262.6C200.597 261.092 207.789 261.198 210.799 262.797C223.63 269.615 225.596 290.761 214.365 301.151C211.839 303.489 211.495 304.006 212.12 304.525C213.278 305.485 216.641 307.322 222.762 310.338C228.382 313.107 229.695 314.437 227.6 315.241C226.776 315.557 217.839 311.346 213.099 308.408C192.907 295.89 183.082 284.747 183.009 274.281C182.993 271.87 182.928 269.894 182.864 269.892C181.566 269.858 174.071 273.096 171.003 275.019C164.765 278.925 157.968 282.043 155.089 282.32L152.578 282.561L153.367 283.764C154.335 285.241 154.01 285.827 151.681 286.8L149.872 287.555L151.158 288.63C151.868 289.221 153.102 290.18 153.904 290.759C155.604 291.99 155.141 293.036 152.391 294.179L150.851 294.82L152.853 295.775C155.407 296.992 155.625 298.061 153.527 299.056L151.899 299.826L154.262 301.209C156.973 302.797 157.165 303.633 155.275 305.605C153.975 306.962 153.965 307.012 155.006 307.012C155.601 307.012 157.167 307.352 158.489 307.768C159.81 308.184 161.682 308.771 162.648 309.072C170.009 311.366 176.838 315.944 189.505 327.072C193.646 330.71 199.012 335.161 201.427 336.962C204.237 339.056 205.82 340.577 205.82 341.182C205.82 342.539 204.003 342.392 202.01 340.873C199.945 339.299 200.105 339.268 198.771 341.5C192.448 352.075 185.999 370.387 184.494 382.039C184.12 384.94 185.064 386.471 192.865 395.621C199.865 403.832 201.947 405.01 207.493 403.892C216.746 402.03 225.864 395.421 247.798 374.67C254.183 368.631 260.266 363.007 261.315 362.175C264.22 359.867 271.419 345.137 269.64 345.137C268.859 345.137 261.867 352.801 258.13 357.755C250.846 367.408 250.221 367.884 247.733 365.657C245.516 363.672 238.784 361.107 234.308 360.541C220.811 358.831 208.769 364.193 198.181 376.626C195.356 379.945 194.314 377.435 197 373.779C208.258 358.452 231.222 352.853 246.589 361.688L249.958 363.626L252.221 360.778C253.466 359.211 256.29 355.643 258.497 352.85C262.254 348.095 266.306 343.989 268.967 342.239C270.296 341.366 272.586 342.062 272.586 343.339C272.586 343.797 273.193 344.129 274.209 344.228C275.5 344.352 275.934 344.691 276.337 345.89C276.616 346.718 277.271 347.711 277.793 348.096C279.194 349.132 278.604 353.924 276.375 359.625C275.395 362.13 274.593 364.353 274.591 364.565C274.589 364.778 274.253 365.593 273.843 366.377C273.434 367.161 272.639 369.306 272.075 371.143C269.81 378.522 265.274 388.348 261.165 394.781C260.13 396.403 257.815 400.038 256.02 402.861C254.225 405.686 251.811 409.469 250.654 411.272L248.55 414.549L250.13 416.589C272.67 445.69 284.429 456.251 300.155 461.513C306.692 463.701 309.59 463.445 318.519 459.887C321.28 458.787 324.217 457.693 325.045 457.456C328.3 456.523 333.284 443.306 340.819 415.62C343.121 407.163 347.325 383.968 348.911 370.972C351.131 352.783 351.41 349.987 351.935 340.623C352.493 330.656 352.283 302.563 351.638 300.741C345.321 282.936 337.867 274.068 323.368 267.11C320.701 265.831 318.156 264.597 317.715 264.369C307.973 259.341 283.989 261.657 278.601 268.145C276.786 270.328 281.815 271.818 284.33 269.842C286.447 268.178 288.501 270.146 286.434 271.86C285.684 272.482 283.63 276.548 283.63 277.409C283.63 278.436 285.09 277.864 287.456 275.909C291.869 272.265 292.599 273.227 289.905 279.135C287.717 283.931 287.719 283.936 290.155 283.936C291.742 283.936 292.567 283.569 294.105 282.18C297.291 279.304 298.315 280.06 296.893 284.238C295.609 288.013 296.238 288.53 299.921 286.729L302.713 285.363L304.341 286.404C306.891 288.035 308.73 289.834 308.73 290.699C308.73 292.253 307.208 292.084 304.878 290.27L302.555 288.462L300.999 289.418C297.085 291.82 294.026 291.108 293.375 287.64C293.106 286.207 292.928 286.035 292.143 286.455C288.856 288.214 285.332 286.173 285.797 282.781L286.111 280.492L284.495 280.745C282.467 281.061 281.14 280.121 280.701 278.054L280.367 276.484L277.713 278.078C273.37 280.685 273.462 282.955 277.959 284.193C283.373 285.683 284.047 286.287 287.273 292.552C295.716 308.943 305.654 320.782 317.491 328.55C318.149 328.982 320.231 330.372 322.117 331.64C324.003 332.91 326.959 334.803 328.684 335.851C333.187 338.583 332.729 341.14 328.157 338.795C318.672 333.928 303.419 321.532 296.796 313.309L295.201 311.328L293.88 312.556C293.154 313.231 290.443 316.419 287.858 319.641C282.125 326.779 283.24 326.226 277.857 324.606C272.268 322.923 267.971 320.731 265.181 318.14C262.343 315.502 262.422 315.339 266.928 314.583C274.199 313.361 284.767 309.186 288.65 306.002L290.407 304.561L287.197 298.387C283.196 290.694 283.458 290.958 281.592 292.743C276.986 297.153 267.574 290.951 256.147 275.977C254.634 273.997 250.248 265.149 249.469 262.51C248.873 260.492 248.727 260.374 246.193 259.849C241.658 258.908 237.107 254.512 239.655 253.536C240.043 253.388 241.397 254.057 242.666 255.025C248.176 259.229 255.596 257.337 263.418 249.73C266.355 246.875 265.532 246.985 274.092 248.3C281.958 249.506 287.67 248.116 290.579 244.286C292.436 241.841 293.506 241.285 293.98 242.522C294.449 243.746 293.28 246.043 291.243 247.898L289.403 249.572L289.561 254.654L289.718 259.736L291.498 259.335C300.623 257.278 314.147 259.205 323.28 263.866L325.532 265.013L323.652 262.72C311.34 247.706 321.068 219.145 337.257 222.77C340.375 223.469 340.402 223.078 337.443 220.228C335.293 218.158 330.316 209.571 330.316 207.934C330.316 207.81 329.638 206.231 328.81 204.424C327.982 202.616 327.304 201.029 327.304 200.895C327.304 200.626 323.765 192.158 322.174 188.622C317.75 178.787 312.599 169.427 309.357 165.332C307.922 163.519 307.937 162.202 309.433 158.357C310.505 155.604 311.825 151.613 316.014 138.456C316.674 136.387 317.453 133.565 317.748 132.186C318.043 130.806 318.729 128.21 319.272 126.417C320.999 120.713 323.87 106.759 326.292 92.3042C327.694 83.9366 328.912 67.4297 328.309 64.9641C326.594 57.9435 320.463 48.1625 313.138 40.7593C308.983 36.5617 309.122 36.6132 307.821 38.7527ZM445.776 101.383C444.534 101.873 441.371 103.112 438.748 104.134C407.328 116.387 368.493 137.398 342.394 156.265C341.63 156.817 340.012 157.945 338.799 158.773C337.584 159.601 333.767 162.411 330.316 165.019C326.865 167.626 323.024 170.527 321.782 171.465C318.52 173.927 318.385 174.48 320.201 177.919C322.155 181.62 324.648 187.095 327.018 192.886C332.609 206.553 334.735 210.953 335.701 210.854C336.191 210.803 339.008 210.406 341.961 209.971C355.603 207.96 369.395 207.895 396.831 209.711C437.385 212.395 433.198 212.419 444.521 209.436C449.491 208.127 454.074 206.944 454.705 206.807C455.974 206.531 455.975 206.322 454.787 190.628C453.218 169.94 452.336 157.489 452.067 152.252C451.897 148.941 451.539 144.313 451.272 141.968C450.682 136.801 448.804 109.301 448.754 105.096C448.699 100.544 448.507 100.304 445.776 101.383ZM307.929 195.692C312.925 197.079 316.972 203.23 316.972 209.44C316.972 225.276 296.689 229.215 291.864 214.315C288.25 203.152 297.242 192.728 307.929 195.692ZM216.111 224.297C226.481 227.152 229.813 242.179 221.865 250.247C213.086 259.159 199.239 252.299 199.239 239.038C199.239 229.001 207.377 221.89 216.111 224.297ZM267.799 232.265C267.767 237.594 264.988 239.163 260.021 236.655C255.027 234.133 255.682 231.321 261.567 230.026C267.215 228.783 267.819 229 267.799 232.265ZM340.607 267.538C339.12 268.328 337.72 268.601 335.21 268.591C331.231 268.576 331.32 268.495 333.704 269.965C334.74 270.604 336.44 271.896 337.483 272.835C338.525 273.776 339.46 274.457 339.56 274.349C339.899 273.982 342.885 266.732 342.749 266.601C342.675 266.53 341.711 266.952 340.607 267.538ZM269.594 354.128C266.374 360.552 265.7 362.709 266.922 362.689C267.787 362.674 274.13 348.628 273.655 347.78C273.293 347.133 272.405 348.52 269.594 354.128ZM272.192 359.075C269.485 364.639 269.138 365.676 269.475 367.196L269.86 368.937L271.032 365.691C271.677 363.905 272.38 362.219 272.595 361.943C273.049 361.358 275.642 353.041 275.435 352.834C275.358 352.757 273.899 355.565 272.192 359.075Z" fill="#FBE304"/>
<path fill-rule="evenodd" clip-rule="evenodd" d="M324.2 5.36895C322.972 7.51978 318.919 14.5856 315.196 21.0694C300.455 46.734 297.563 52.5544 293.012 65.7166C286.857 83.519 281.543 110.941 278.801 139.068C277.738 149.98 278.843 148.724 269.007 150.195C242.971 154.088 219.425 162.426 202.306 173.818L196.533 177.659L192.266 177.102C141.442 170.464 73.7451 185.844 48.4468 209.774C43.6175 214.343 43.5472 214.496 45.8489 215.458C71.4785 226.159 126.801 227.565 172.939 218.687C175.7 218.155 178.207 217.72 178.51 217.719C178.863 217.717 179.181 219.979 179.397 224.008C179.926 233.882 181.86 244.156 184.52 251.218C185.95 255.013 185.987 256.48 184.821 262.825L183.953 267.55L180.809 268.191C176.924 268.983 173.717 270.452 168.038 274.043C162.418 277.596 156.719 279.964 152.964 280.304C149.797 280.591 148.982 281.335 150.019 282.993C150.783 284.215 150.754 284.939 149.941 284.939C149.118 284.939 147.086 286.793 147.086 287.544C147.086 287.851 147.998 288.945 149.112 289.972L151.138 291.842L149.363 292.888C147.171 294.181 147.095 295.467 149.139 296.675C150.259 297.336 150.539 297.742 150.143 298.137C148.814 299.466 150.286 302.309 152.723 303.12C153.291 303.31 153.174 303.701 151.879 305.954C150.933 307.601 151.382 308.423 153.538 308.983C154.546 309.245 156.837 309.834 158.632 310.291C166.505 312.297 176.897 318.616 185.238 326.471C186.48 327.64 193.667 333.874 196.489 336.229L197.95 337.45L193.62 346.185C176.103 381.52 177.182 416.121 196.346 433.6C202.228 438.965 208.24 441.939 225.398 447.971C238.909 452.721 250.057 458.062 259.208 464.168L263.135 466.788L265.08 471.681C273.027 491.656 289.314 513.33 294.124 510.332C297.155 508.441 296.912 495.324 293.693 487.164C293.128 485.732 292.666 484.512 292.667 484.453C292.667 484.394 294.983 484.341 297.813 484.336C324.991 484.281 345.352 435.421 353.729 350.154C354.699 340.28 354.888 305.031 353.992 301.083L353.5 298.918L360.105 294.626C375.295 284.758 379.01 282.309 379.01 282.159C379.01 282.071 373.782 271.482 367.39 258.627C360.999 245.772 355.892 235.135 356.039 234.988C356.185 234.841 360.679 233.592 366.026 232.213C371.372 230.832 379.7 228.681 384.532 227.432C393.386 225.143 399.667 223.524 414.401 219.737C444.951 211.882 457.63 208.52 458.006 208.172C458.247 207.95 457.968 201.37 457.377 193.306C456.794 185.35 455.98 174.099 455.57 168.305C455.16 162.511 454.589 154.497 454.301 150.496C452.031 118.886 451.327 108.878 451.029 103.984C450.623 97.2718 450.386 96.9395 446.977 98.2902C445.627 98.8244 440.681 100.773 435.987 102.621C409.77 112.937 383.024 126.835 356.169 144.099C345.966 150.658 332.33 160.301 324.041 166.82C317.565 171.912 316.658 172.502 316.413 171.781C316.327 171.524 315.247 169.847 314.016 168.054C310.173 162.458 310.139 163.964 314.401 151.147C329.611 105.405 335.088 58.3385 330.093 16.3037C328.067 -0.739934 327.883 -1.0798 324.2 5.36895ZM313.68 40.7832C320.343 47.5379 324.642 53.9641 327.847 61.9542L329.456 65.9674L328.87 73.2351C326.826 98.5648 320.873 126.255 311.682 153.187L308.281 163.153L310.242 165.804C314.374 171.394 319.548 181.152 323.937 191.632C333.997 215.657 334.539 216.794 337.092 219.222C338.107 220.188 339.367 221.574 339.892 222.301L340.847 223.626L336.679 223.366C319.07 222.267 311.445 250.76 325.794 264.036C330.311 268.215 337.35 269.343 341.71 266.585C343.374 265.533 343.396 266.267 341.817 270.356C339.923 275.257 339.767 275.374 337.62 273.491C324.488 261.968 305.064 256.441 290.579 260.106L289.246 260.443L289.037 255.008L288.827 249.572L290.315 248.223C293.192 245.614 294.658 242.298 292.935 242.298C292.53 242.298 291.938 242.806 291.618 243.427C289.072 248.374 282.501 249.89 270.732 248.247L266.618 247.672L263.955 250.082C255.014 258.168 247.702 259.851 242.082 255.116C239.711 253.118 238.215 253.761 240.252 255.903C242.008 257.747 243.959 258.819 246.964 259.589C249.174 260.155 249.218 260.209 250.517 263.897C253.784 273.17 260.631 282.384 269.74 289.765C275.602 294.513 278.334 295.001 281.842 291.922L283.587 290.391L285.814 294.814C294.998 313.054 305.487 324.183 324.892 336.274C330.627 339.847 331.321 340.113 331.317 338.741C331.315 338.176 329.84 336.989 327.176 335.409C308.77 324.493 298.065 313.442 288.174 295.144C283.399 286.312 283.489 286.409 278.756 284.935C272.148 282.878 272.158 280.6 278.789 277.077C280.956 275.926 281.764 275.961 281.294 277.183C280.491 279.274 283.476 281.079 285.737 279.87C286.79 279.307 286.823 280.671 285.838 284.034C285.39 285.56 287.788 286.625 290.861 286.263C293.511 285.952 293.55 285.966 293.834 287.39C294.448 290.455 296.949 291.082 300.798 289.137C302.724 288.162 303.276 288.262 305.235 289.935C307.22 291.631 308.238 291.853 308.207 290.583C308.187 289.764 303.805 285.942 302.885 285.942C302.657 285.942 301.319 286.546 299.91 287.282C295.87 289.396 294.272 287.5 296.717 283.493C298.052 281.305 297.333 280.351 295.389 281.73C292.13 284.04 291.316 284.432 289.78 284.435C287.537 284.439 287.577 282.595 289.915 278.113C291.929 274.251 291.638 272.815 289.281 274.979C283.621 280.176 281.133 279.001 285.161 273.035C287.192 270.029 286.85 269.005 284.278 270.384C281.785 271.718 280.467 271.659 278.763 270.134L277.355 268.872L279.313 267.132C294.9 253.265 333.897 264.32 345.667 285.942C351.768 297.149 352.222 299.177 352.635 317.045C354.215 385.596 333.52 463.51 309.69 478.72C299.016 485.533 291.781 483.803 270.578 469.371C257.998 460.807 253.425 458.013 246.231 454.491C237.728 450.33 235.616 449.465 223.641 445.235C205.279 438.747 198.217 434.364 191.915 425.539C179.214 407.752 180.684 376.319 195.613 346.392C199.628 338.345 199.276 338.661 202.135 340.52C206.424 343.308 206.622 341.237 202.355 338.23C199.027 335.884 195.481 332.937 186.004 324.635C174.614 314.659 165.75 309.575 156.909 307.947C153.297 307.281 152.986 306.896 154.867 305.418C156.708 303.97 156.433 302.911 153.863 301.549C151.192 300.133 151.101 299.773 153.143 298.718C155.104 297.704 154.831 296.917 152.195 295.99C149.6 295.079 149.591 294.852 152.106 293.718C154.645 292.574 154.617 291.621 151.988 289.705C149.216 287.684 149.145 287.121 151.573 286.394C153.798 285.728 154.015 285.236 152.83 283.546C152.085 282.481 152.107 282.431 153.321 282.431C156.162 282.431 165.102 278.374 171.794 274.048C175.249 271.813 180.164 269.887 182.397 269.892C183.42 269.893 183.481 270.128 183.487 274.031C183.499 282.049 189.796 291.089 201.804 300.323C209.299 306.087 226.135 315.572 227.44 314.766C228.63 314.031 227.606 313.035 224.082 311.5C221.978 310.583 217.977 308.487 215.191 306.84L210.126 303.848L211.361 303.047C226.352 293.332 223.832 266.814 207.465 262.06C199.261 259.677 190.269 266.162 187.712 276.307C185.417 285.404 184.377 274.526 186.538 264.045C188.022 256.848 187.953 254.566 186.109 249.82C181.231 237.262 179.854 216.508 183.244 206.642C184.747 202.265 184.762 200.467 183.289 201.377C182.613 201.795 180.277 209.109 179.692 212.644C179.136 216.001 180.32 215.424 170.408 217.168C155.842 219.73 137.839 221.766 123.207 222.505L116.648 222.836L111.415 220.691C96.9149 214.749 84.6811 206.291 78.8893 198.203C76.7043 195.153 76.7985 194.947 81.1985 193.115C111.641 180.441 151.18 175.076 187.999 178.624C195.196 179.317 194.846 179.088 192.563 181.613C188.682 185.906 186.347 190.631 188.108 190.627C188.324 190.627 189.169 189.555 189.986 188.244C198.902 173.936 227.717 159.832 260.84 153.564C275.552 150.779 283.035 150.333 287.351 151.981C288.418 152.388 288.961 152.39 289.359 151.986C290.313 151.018 288.344 150.126 283.84 149.486L279.594 148.884L279.87 146.555C280.022 145.274 280.805 138.564 281.609 131.646C286.395 90.5283 293.228 64.7233 305.146 42.7697C309.109 35.4694 308.563 35.5961 313.68 40.7832ZM448.959 104.469C449.432 110.63 453.647 169.24 455.047 189.123C455.717 198.642 456.108 206.564 455.915 206.729C455.723 206.892 449.127 208.671 441.258 210.682C427.53 214.188 423.746 215.168 410.385 218.667C395.381 222.597 353.949 233.269 353.693 233.269C352.688 233.269 354.644 237.613 364.903 258.157C375.516 279.416 376.333 281.237 375.57 281.97C374.456 283.039 353.609 296.478 353.077 296.471C352.845 296.467 352.014 294.883 351.232 292.95C349.265 288.096 346.244 282.719 343.575 279.318L341.33 276.456L342.876 273.047C350.896 255.374 349.117 228.68 339.243 218.534C336.365 215.577 335.282 213.505 329.766 200.41C324.675 188.324 323.151 184.901 320.449 179.476C317.806 174.17 317.807 174.193 320.142 172.318C354.512 144.707 398.051 119.59 440.254 103.026C449.124 99.5443 448.572 99.4527 448.959 104.469ZM299.393 196.602C289.473 201.103 288.819 216.275 298.311 221.714C306.421 226.362 316.074 220.268 316.673 210.124C317.251 200.306 307.7 192.83 299.393 196.602ZM303.31 203.282C305.462 206.075 303.606 210.193 300.196 210.193C296.493 210.193 294.831 205.773 297.468 202.931C299.036 201.239 301.868 201.409 303.31 203.282ZM209.083 224.859C195.297 229.811 197.339 252.388 211.69 253.689C224.22 254.825 230.851 237.031 221.302 227.905C217.961 224.712 212.961 223.466 209.083 224.859ZM340.367 226.371C345.092 228.76 347.286 244.604 344.892 259.047C343.512 267.37 331.735 268.69 325.602 261.211C313.247 246.142 324.933 218.567 340.367 226.371ZM216.825 229.551C220.64 232.758 216.905 239.169 212.326 237.273C210.315 236.442 209.334 234.958 209.334 232.751C209.334 228.71 213.639 226.871 216.825 229.551ZM260.628 230.712C256.105 232.273 255.93 234.372 260.162 236.292C264.772 238.383 266.982 237.154 267.456 232.237L267.694 229.757L265.497 229.773C264.288 229.782 262.097 230.205 260.628 230.712ZM282.266 259.528C285.555 260.901 285.449 261.518 281.602 263.378C274.752 266.689 273.823 271.225 279.639 272.966L281.508 273.525L278.078 275.241C269.863 279.347 269.761 284.524 277.853 286.712C282.168 287.88 282.556 288.412 280.529 290.391C278.474 292.399 276.943 292.394 273.802 290.372C268.915 287.227 256.02 273.079 256.02 270.865C256.02 270.057 261.612 265.447 265.106 263.373C271.674 259.474 278.483 257.948 282.266 259.528ZM209.596 264.931C220.32 269.968 222.67 289.139 213.698 298.398C209.52 302.711 208.56 302.809 204.013 299.394C194.634 292.35 188.752 285.63 188.752 281.962C188.752 269.681 200.053 260.448 209.596 264.931ZM266.923 344.404C264.092 346.731 260.728 350.595 254.102 359.122C252.039 361.777 250.276 364.04 250.183 364.149C250.09 364.259 249.128 363.736 248.044 362.985C237.403 355.616 220.401 356.315 207.577 364.652C203.906 367.038 197.551 373.116 196.317 375.421C195.2 377.507 196.357 378.263 197.868 376.436C212.087 359.24 233.849 354.531 248.287 365.526C250.389 367.127 249.807 367.575 256.359 359.309C270.131 341.933 273.792 340.101 267.043 353.959C263.815 360.587 263.24 362.547 264.659 362.074C264.943 361.98 266.898 358.535 269.005 354.418C271.113 350.302 273.091 346.858 273.401 346.768C275.052 346.281 274.32 349.123 271.027 355.997C267.067 364.264 267.044 364.331 268.069 364.56C268.598 364.677 269.923 362.576 272.481 357.566C276.666 349.365 277.386 350.556 273.825 359.789C272.836 362.353 271.591 365.58 271.059 366.959C270.528 368.339 269.274 371.725 268.274 374.484C263.353 388.056 247.448 413.825 238.008 423.521C233.315 428.342 232.582 428.101 232.304 421.639C232.102 416.942 230.718 417.416 230.522 422.25C229.967 435.894 238.136 429.952 254.12 405.085C264.997 388.163 266.226 385.796 271.439 371.725C278.793 351.876 279.337 349.671 277.213 348.263C276.601 347.856 276.1 347.144 276.1 346.681C276.1 345.502 275.101 344.636 273.741 344.636C273.106 344.636 272.586 344.426 272.586 344.17C272.586 343.478 271.106 342.127 270.348 342.127C269.986 342.127 268.445 343.152 266.923 344.404ZM270.829 472.108C276.686 475.958 284.723 480.9 287.646 482.449L290.407 483.912L292.097 488.895C293.342 492.566 293.838 495 293.981 498.142L294.175 502.406L292.456 498.823C289.452 492.561 287.484 493.156 290.313 499.471C292.908 505.266 293.67 507.209 293.67 508.027C293.67 509.665 292.463 508.121 289.465 502.649C287.687 499.407 285.94 496.816 285.47 496.726C284.197 496.479 284.441 497.969 286.173 501.036C288.373 504.931 287.713 504.776 284.143 500.557C278.481 493.863 272.764 484.431 268.549 474.825C265.779 468.513 265.63 468.691 270.829 472.108Z" fill="#120E08"/>
<path fill-rule="evenodd" clip-rule="evenodd" d="M329.884 226.555C317.234 232.855 317.3 258.187 329.985 264.734C334.39 267.006 340.655 266.14 343.639 262.844C346.406 259.789 346.445 238.901 343.699 230.76C341.867 225.33 335.957 223.53 329.884 226.555ZM272.324 260.039C266.784 261.834 256.02 268.98 256.02 270.865C256.02 273.079 268.915 287.227 273.802 290.372C276.943 292.394 278.474 292.399 280.529 290.391C282.556 288.412 282.168 287.88 277.853 286.712C269.761 284.524 269.863 279.347 278.078 275.241L281.508 273.525L279.639 272.966C273.823 271.225 274.752 266.689 281.602 263.378C288.483 260.051 280.811 257.292 272.324 260.039ZM199.294 264.5C189.946 268.69 186.002 281.115 191.818 288.054C196.375 293.491 206.355 301.995 208.179 301.995C211.943 301.995 217.517 294.71 218.925 287.949C221.893 273.692 210.131 259.642 199.294 264.5Z" fill="#F23631"/>
<path fill-rule="evenodd" clip-rule="evenodd" d="M307.793 38.0002L307.196 39.3798L308.188 38.1256L309.178 36.8715L311.315 38.8781C312.49 39.9818 313.124 40.4408 312.722 39.8977C310.331 36.6608 308.651 36.0137 307.793 38.0002ZM303.933 44.9268C302.37 47.8402 301.18 50.3133 301.289 50.4224C301.4 50.5315 302.781 48.1487 304.363 45.1262C305.944 42.1037 307.134 39.6306 307.007 39.6306C306.88 39.6306 305.497 42.0135 303.933 44.9268ZM315.576 43.1422C316.652 44.3838 318.745 47.0362 320.228 49.0366C321.71 51.0369 323.021 52.6736 323.139 52.6736C323.668 52.6736 318.755 46.186 316.322 43.6727C314.511 41.8028 314.266 41.6284 315.576 43.1422ZM331.986 50.9178C331.989 52.8492 332.079 53.5778 332.188 52.5369C332.298 51.4959 332.295 49.9157 332.185 49.0253C332.073 48.1349 331.984 48.9864 331.986 50.9178ZM298.996 55.237C298.26 56.9376 297.744 58.4163 297.85 58.5241C297.958 58.6307 298.65 57.3277 299.388 55.6283C300.124 53.9277 300.64 52.4491 300.534 52.3412C300.426 52.2346 299.734 53.5377 298.996 55.237ZM325.148 56.9238C325.89 58.4338 326.58 59.5851 326.683 59.4823C326.907 59.2565 324.376 54.1785 324.038 54.1785C323.908 54.1785 324.407 55.4139 325.148 56.9238ZM327.096 60.9509C329.016 67.2428 328.966 66.449 328.051 76.1397C327.574 81.1926 327.291 85.4353 327.424 85.5682C327.807 85.9507 329.005 73.4245 329.035 68.7265C329.056 65.2613 328.848 64.0398 327.925 62.205C327.3 60.9634 326.928 60.399 327.096 60.9509ZM296.042 62.8208C294.953 65.7981 294.565 67.2215 294.845 67.2215C295.155 67.2215 297.233 61.0838 297.002 60.853C296.905 60.7565 296.474 61.6419 296.042 62.8208ZM292.745 72.8187C292.15 74.799 291.759 76.5159 291.878 76.6338C291.996 76.7517 292.577 75.2254 293.168 73.2414C293.759 71.2573 294.149 69.5404 294.035 69.4263C293.921 69.3122 293.341 70.8384 292.745 72.8187ZM330.935 71.7364C330.935 72.7021 331.038 73.0971 331.164 72.6143C331.29 72.1314 331.29 71.3413 331.164 70.8585C331.038 70.3757 330.935 70.7707 330.935 71.7364ZM289.431 84.807C288.979 86.7923 288.709 88.5179 288.832 88.6408C288.955 88.7625 289.426 87.2387 289.877 85.2534C290.329 83.2681 290.599 81.5424 290.476 81.4195C290.353 81.2979 289.882 82.8217 289.431 84.807ZM286.391 98.8257C285.904 101.329 285.623 103.494 285.766 103.635C285.909 103.778 286.406 101.829 286.87 99.3047C287.335 96.7789 287.616 94.6155 287.495 94.4939C287.374 94.3735 286.878 96.3224 286.391 98.8257ZM325.798 94.445C325.798 94.6105 325.347 97.4135 324.797 100.673C323.742 106.912 323.654 107.656 324.01 107.301C324.4 106.912 326.354 94.6996 326.072 94.4161C325.921 94.2669 325.798 94.2794 325.798 94.445ZM443.622 101.676C441.749 102.386 440.308 103.06 440.422 103.174C440.629 103.382 447.274 101.007 447.715 100.568C448.203 100.08 446.928 100.425 443.622 101.676ZM435.833 104.696C434.091 105.391 432.765 106.057 432.885 106.177C433.121 106.413 439.752 103.865 439.752 103.537C439.752 103.201 439.104 103.392 435.833 104.696ZM448.944 108.608C448.946 110.263 449.04 110.88 449.152 109.979C449.264 109.077 449.261 107.722 449.147 106.969C449.033 106.215 448.941 106.952 448.944 108.608ZM428.457 107.837C426.8 108.628 425.671 109.283 425.947 109.293C426.223 109.303 427.804 108.664 429.461 107.874C431.118 107.083 432.247 106.428 431.971 106.418C431.695 106.408 430.114 107.046 428.457 107.837ZM420.927 111.092C418.994 112.024 417.639 112.789 417.915 112.794C418.589 112.807 425.583 109.451 424.943 109.422C424.667 109.409 422.86 110.162 420.927 111.092ZM283.399 117.07C282.903 120.483 282.603 123.587 282.73 123.969C282.858 124.35 283.361 121.655 283.848 117.981C284.337 114.307 284.637 111.203 284.517 111.082C284.397 110.962 283.894 113.657 283.399 117.07ZM322.786 111.062C322.786 111.263 322.221 113.927 321.531 116.983C320.297 122.442 320.076 123.78 320.478 123.365C320.89 122.938 323.332 111.244 323.065 110.976C322.912 110.823 322.786 110.862 322.786 111.062ZM449.36 113.904C449.279 115.968 450.709 137.711 451.026 139.209C451.375 140.868 450.747 128.219 450.067 119.895C449.717 115.618 449.399 112.922 449.36 113.904ZM413.146 114.628C411.904 115.292 411.028 115.847 411.199 115.859C411.685 115.894 416.158 113.856 416.158 113.601C416.158 113.165 415.39 113.428 413.146 114.628ZM407.719 117.207C406.252 117.916 405.157 118.601 405.285 118.727C405.542 118.986 410.636 116.508 410.636 116.124C410.636 115.79 410.7 115.766 407.719 117.207ZM401.202 120.459C400.017 121.046 399.149 121.626 399.272 121.749C399.523 122 403.608 120.008 403.608 119.634C403.608 119.279 403.547 119.301 401.202 120.459ZM394.446 123.941C392.859 124.76 391.56 125.542 391.56 125.679C391.56 125.817 392.915 125.245 394.572 124.41C396.229 123.575 397.584 122.781 397.584 122.647C397.584 122.313 397.677 122.274 394.446 123.941ZM318.81 127.772C318.035 130.649 317.582 133.225 317.9 132.938C318.338 132.543 319.858 126.334 319.585 126.059C319.449 125.925 319.1 126.695 318.81 127.772ZM386.186 128.364C383.921 129.66 381.888 130.913 381.668 131.15C381.201 131.654 390.075 126.971 390.782 126.34C391.903 125.339 390.053 126.154 386.186 128.364ZM452.931 132.186C452.936 133.289 453.039 133.682 453.159 133.057C453.28 132.434 453.275 131.531 453.149 131.051C453.024 130.572 452.924 131.082 452.931 132.186ZM378.131 132.953C376.682 133.783 375.496 134.594 375.496 134.752C375.496 135.053 379.911 132.626 380.742 131.868C381.594 131.091 380.818 131.413 378.131 132.953ZM281.237 134.945C281.237 135.91 281.34 136.305 281.466 135.823C281.592 135.34 281.592 134.55 281.466 134.067C281.34 133.584 281.237 133.979 281.237 134.945ZM372.107 136.502C370.658 137.346 369.472 138.153 369.472 138.294C369.472 138.573 373.936 136.092 374.718 135.38C375.569 134.604 374.796 134.936 372.107 136.502ZM315.497 139.782C315.045 141.398 314.565 143.115 314.43 143.598C314.295 144.081 314.291 144.476 314.42 144.476C314.787 144.476 316.855 137.379 316.571 137.096C316.433 136.956 315.95 138.165 315.497 139.782ZM280.462 141.466C280.247 143.811 279.947 146.438 279.797 147.303L279.524 148.874L283.804 149.481C288.34 150.125 290.315 151.015 289.359 151.986C288.973 152.378 288.414 152.388 287.445 152.02C286.693 151.734 284.455 151.39 282.469 151.256L278.861 151.011L283.272 151.739C285.698 152.139 287.881 152.588 288.122 152.737C288.872 153.201 290.156 152.437 290.156 151.526C290.156 150.357 288.282 149.579 283.996 148.972C279.711 148.364 280.166 149.02 280.703 144.225C280.951 142.018 281.086 139.535 281.005 138.707C280.922 137.879 280.678 139.121 280.462 141.466ZM363.369 141.845C358.289 145.059 354.817 147.458 356.396 146.665C357.522 146.099 367.087 140.103 368.217 139.255C370.496 137.543 368.391 138.668 363.369 141.845ZM451.425 142.219C451.43 143.322 451.533 143.715 451.653 143.09C451.774 142.467 451.769 141.564 451.643 141.084C451.518 140.605 451.418 141.115 451.425 142.219ZM312.053 150.807C311.335 152.94 310.833 154.771 310.939 154.877C311.044 154.982 311.717 153.323 312.435 151.188C313.153 149.055 313.655 147.224 313.549 147.119C313.444 147.013 312.771 148.672 312.053 150.807ZM350.647 150.033C346.538 152.786 343.888 154.844 345.878 153.735C347.516 152.822 355.416 147.415 355.416 147.206C355.416 146.843 355.342 146.887 350.647 150.033ZM451.951 149.994C451.951 151.512 452.045 152.133 452.16 151.374C452.274 150.615 452.274 149.373 452.16 148.615C452.045 147.856 451.951 148.477 451.951 149.994ZM274.343 151.252C274.067 151.347 271.808 151.704 269.323 152.041C266.838 152.378 265.076 152.748 265.407 152.864C266.04 153.082 277.202 151.557 277.565 151.202C277.813 150.959 275.063 151 274.343 151.252ZM254.052 154.813C252.279 155.2 250.698 155.654 250.538 155.823C250.137 156.245 254.277 155.529 256.749 154.749C259.432 153.901 258.076 153.934 254.052 154.813ZM343.117 155.29C342.181 156.084 342.006 156.379 342.656 156.068C343.589 155.622 345.282 154.004 344.81 154.01C344.707 154.011 343.945 154.588 343.117 155.29ZM452.367 156.029C452.266 158.769 454.269 185.737 454.599 186.067C454.909 186.378 454.728 183.473 453.32 165.546C452.833 159.338 452.404 155.055 452.367 156.029ZM309.281 158.757C308.702 160.304 308.239 161.843 308.254 162.178C308.268 162.513 308.823 161.327 309.486 159.543C310.148 157.76 310.61 156.22 310.512 156.122C310.414 156.025 309.861 157.211 309.281 158.757ZM338.976 158.071C337.802 158.901 336.842 159.694 336.842 159.833C336.842 160.242 339.853 158.348 340.719 157.394C341.826 156.173 341.448 156.321 338.976 158.071ZM241.211 158.246C239.278 158.895 237.923 159.447 238.199 159.473C238.475 159.499 240.395 158.979 242.466 158.318C244.537 157.657 245.892 157.106 245.478 157.093C245.064 157.079 243.144 157.598 241.211 158.246ZM334.313 161.572L332.575 163.116L334.191 162.05C335.625 161.105 336.708 160.027 336.225 160.027C336.129 160.027 335.27 160.722 334.313 161.572ZM231.171 161.569C230.067 162.099 229.728 162.393 230.418 162.222C232.307 161.752 234.79 160.612 233.932 160.607C233.518 160.605 232.275 161.038 231.171 161.569ZM223.641 164.523C221.984 165.315 220.855 165.969 221.131 165.979C221.407 165.989 222.988 165.351 224.645 164.561C226.302 163.77 227.431 163.115 227.155 163.105C226.879 163.095 225.298 163.733 223.641 164.523ZM330.297 164.582L328.559 166.126L330.175 165.06C331.609 164.115 332.692 163.037 332.209 163.037C332.113 163.037 331.253 163.732 330.297 164.582ZM308.685 164.458C308.956 164.964 309.576 165.697 310.064 166.089C310.693 166.593 310.618 166.326 309.806 165.169C308.566 163.402 307.89 162.973 308.685 164.458ZM324.794 168.614C321.766 170.943 318.82 173.603 320.778 172.24C322.638 170.947 328.308 166.437 328.308 166.252C328.308 165.922 328.21 165.987 324.794 168.614ZM216.236 167.836C214.925 168.518 213.852 169.172 213.852 169.289C213.852 169.58 218.504 167.543 219.098 166.992C219.969 166.183 218.688 166.561 216.236 167.836ZM311.451 168.337C313.109 171.169 314.512 172.645 313.183 170.157C312.546 168.969 311.694 167.728 311.289 167.398C310.762 166.97 310.807 167.237 311.451 168.337ZM209.003 171.944C206.75 173.253 204.378 174.737 203.732 175.24L202.557 176.157L203.812 175.441C211.729 170.928 213.94 169.546 213.224 169.561C213.155 169.562 211.255 170.635 209.003 171.944ZM315.281 174.624C315.858 175.754 316.437 176.573 316.566 176.443C316.81 176.199 314.821 172.569 314.443 172.569C314.327 172.569 314.704 173.493 315.281 174.624ZM318.427 173.879C318.127 174.663 322.244 183.812 322.694 183.362C322.815 183.243 321.973 181.306 320.823 179.06C319.517 176.505 318.848 174.619 319.037 174.023C319.404 172.867 318.865 172.74 318.427 173.879ZM455.933 174.575C455.933 175.541 456.036 175.936 456.162 175.453C456.288 174.97 456.288 174.18 456.162 173.697C456.036 173.215 455.933 173.61 455.933 174.575ZM160.514 175.447C161.964 175.548 164.336 175.548 165.786 175.447C167.235 175.345 166.049 175.263 163.15 175.263C160.251 175.263 159.065 175.345 160.514 175.447ZM200.549 177.18C196.405 180.12 188.067 189.609 188.898 190.439C189.027 190.568 189.746 189.627 190.495 188.348C191.887 185.975 198.333 179.18 201.051 177.221C201.879 176.625 202.444 176.13 202.306 176.124C202.168 176.118 201.377 176.593 200.549 177.18ZM154.616 177.571C150.432 177.8 152.976 177.914 163.862 177.987C172.121 178.042 178.785 178.004 178.671 177.902C178.235 177.519 160.147 177.27 154.616 177.571ZM317.865 179.466C318.938 181.912 320.276 184.123 320.276 183.452C320.276 182.929 317.299 177.084 317.034 177.084C316.915 177.084 317.289 178.156 317.865 179.466ZM144.701 178.447C145.461 178.561 146.703 178.561 147.462 178.447C148.222 178.331 147.601 178.237 146.082 178.237C144.563 178.237 143.942 178.331 144.701 178.447ZM180.846 178.447C181.605 178.561 182.847 178.561 183.606 178.447C184.366 178.331 183.745 178.237 182.226 178.237C180.707 178.237 180.086 178.331 180.846 178.447ZM187.121 178.942C187.742 179.063 188.758 179.063 189.379 178.942C190.001 178.823 189.492 178.725 188.25 178.725C187.008 178.725 186.499 178.823 187.121 178.942ZM192.939 179.445C193.797 179.666 193.78 179.776 192.688 181.016L191.513 182.351L192.893 181.134C194.569 179.658 194.643 179.071 193.144 179.148C192.227 179.195 192.188 179.251 192.939 179.445ZM127.759 180.334C123.725 181.183 126.317 181.213 130.771 180.369C133.031 179.942 133.657 179.703 132.528 179.702C131.562 179.702 129.416 179.986 127.759 180.334ZM117.217 182.35C116.941 182.444 114.947 182.898 112.784 183.357C110.622 183.817 108.955 184.295 109.08 184.419C109.337 184.676 118.491 182.75 118.885 182.356C119.163 182.077 118.028 182.074 117.217 182.35ZM190.161 183.981C189.277 185.011 188.614 186.113 188.879 186.113C188.982 186.113 189.567 185.436 190.179 184.608C191.389 182.973 191.377 182.567 190.161 183.981ZM320.296 184.169C320.262 184.704 322.757 190.127 323.037 190.127C323.183 190.127 322.988 189.377 322.605 188.461C321.731 186.37 320.322 183.753 320.296 184.169ZM323.309 185.486C323.341 186.044 325.251 189.44 325.275 188.981C325.309 188.362 323.872 185.11 323.564 185.11C323.412 185.11 323.298 185.279 323.309 185.486ZM100.4 186.636C98.8814 187.166 98.3167 187.478 99.145 187.33C101.567 186.897 104.416 186.093 104.416 185.844C104.416 185.421 103.191 185.662 100.4 186.636ZM187.526 187.73C186.513 189.173 186.531 190.439 187.569 190.836C188.27 191.106 188.294 191.036 187.73 190.356C187.177 189.69 187.211 189.318 187.939 188.087C188.958 186.364 188.662 186.108 187.526 187.73ZM89.4501 189.967C87.4308 190.665 85.8683 191.323 85.9763 191.432C86.1896 191.644 93.3682 189.295 93.7887 188.875C94.2505 188.412 93.1586 188.688 89.4501 189.967ZM454.949 191.631C454.949 192.873 455.047 193.381 455.166 192.76C455.286 192.139 455.286 191.124 455.166 190.503C455.047 189.882 454.949 190.39 454.949 191.631ZM326.102 191.55C326.264 192.195 326.943 193.888 327.61 195.312C328.279 196.737 328.678 197.338 328.498 196.648C328.317 195.958 327.638 194.265 326.989 192.886C326.339 191.506 325.94 190.905 326.102 191.55ZM81.4282 192.972C79.69 193.682 78.3521 194.347 78.4538 194.45C78.6521 194.646 84.8116 192.326 85.2484 191.89C85.7855 191.354 84.4841 191.722 81.4282 192.972ZM323.843 192.384C323.848 192.66 324.4 194.014 325.07 195.394C325.74 196.773 326.149 197.338 325.98 196.648C325.625 195.211 323.83 191.628 323.843 192.384ZM77.3394 195.193C77.3055 196.064 79.8418 199.806 80.9149 200.467C81.2775 200.691 80.8433 199.951 79.9498 198.823C79.0562 197.694 78.1112 196.235 77.8489 195.581C77.5527 194.842 77.3594 194.695 77.3394 195.193ZM302.832 195.503C303.591 195.617 304.833 195.617 305.593 195.503C306.352 195.388 305.731 195.294 304.212 195.294C302.693 195.294 302.072 195.388 302.832 195.503ZM297.599 197.097C295.34 198.528 292.276 201.944 292.79 202.457C292.935 202.603 293.529 201.95 294.113 201.009C295.192 199.263 297.937 197.094 300.196 196.203C300.886 195.931 301.1 195.694 300.67 195.676C300.241 195.658 298.859 196.298 297.599 197.097ZM308.97 196.679C311.628 198.005 313.941 200.31 315.028 202.717C316.037 204.953 316.57 205.062 315.743 202.862C314.729 200.17 309.582 195.605 307.626 195.665C307.267 195.676 307.872 196.133 308.97 196.679ZM455.475 199.658C455.475 201.451 455.566 202.185 455.677 201.288C455.788 200.392 455.788 198.924 455.677 198.028C455.566 197.131 455.475 197.865 455.475 199.658ZM327.104 200.116C327.615 202.055 328.849 204.804 329.096 204.555C329.222 204.43 328.752 203.108 328.055 201.617C327.357 200.126 326.93 199.45 327.104 200.116ZM329.365 199.407C329.37 199.683 329.922 201.037 330.592 202.417C331.262 203.797 331.671 204.361 331.502 203.671C331.147 202.234 329.352 198.651 329.365 199.407ZM84.5594 204.444C87.801 207.449 93.874 212.065 93.874 211.523C93.874 211.392 92.4621 210.272 90.7365 209.034C89.0109 207.796 86.29 205.518 84.6899 203.973C83.0898 202.427 81.6214 201.174 81.4269 201.187C81.2324 201.199 82.6417 202.665 84.5594 204.444ZM455.891 205.051C455.836 206.237 455.576 206.684 454.938 206.689C454.454 206.692 453.72 206.926 453.306 207.205C452.755 207.578 452.957 207.627 454.059 207.385C456.103 206.934 456.432 206.543 456.181 204.861C455.97 203.444 455.965 203.447 455.891 205.051ZM181.027 205.23C180.907 205.614 180.563 206.696 180.262 207.634C179.962 208.572 179.736 209.701 179.761 210.142C179.788 210.584 180.229 209.601 180.745 207.957C181.261 206.312 181.585 204.87 181.464 204.75C181.344 204.629 181.147 204.845 181.027 205.23ZM182.763 207.939C182.192 209.789 181.739 211.673 181.758 212.127C181.777 212.581 182.329 211.152 182.984 208.951C183.64 206.751 184.092 204.868 183.989 204.765C183.886 204.662 183.334 206.09 182.763 207.939ZM290.986 208.071C290.819 209.11 290.884 210.634 291.13 211.457C291.499 212.695 291.583 212.369 291.619 209.566C291.667 205.778 291.439 205.239 290.986 208.071ZM332.365 206.345C332.224 207.757 337.016 216.263 339.235 218.534C349.115 228.652 350.899 255.367 342.876 273.047L341.33 276.456L343.575 279.318C346.244 282.719 349.265 288.096 351.232 292.95C352.014 294.883 352.845 296.467 353.077 296.471C353.609 296.478 374.456 283.039 375.57 281.97C376.333 281.237 375.516 279.416 364.903 258.157C354.644 237.613 352.688 233.269 353.693 233.269C353.944 233.269 394.709 222.772 410.134 218.735C413.309 217.903 418.505 216.552 421.68 215.731C424.855 214.909 429.486 213.705 431.971 213.055L436.489 211.873L431.971 211.803C429.486 211.764 423.839 211.494 419.421 211.203C415.003 210.913 404.838 210.24 396.831 209.711C367.208 207.75 345.116 208.212 335.755 210.989C335.138 211.172 334.591 210.543 333.663 208.582C332.973 207.123 332.389 206.115 332.365 206.345ZM316.889 209.44C316.894 210.544 316.997 210.936 317.117 210.312C317.238 209.688 317.233 208.786 317.107 208.305C316.982 207.826 316.883 208.337 316.889 209.44ZM330.339 207.748C330.291 208.412 331.894 211.793 332.138 211.548C332.28 211.407 331.939 210.423 331.379 209.362C330.818 208.301 330.35 207.575 330.339 207.748ZM46.686 210.945C45.4661 212.187 44.5813 213.203 44.7194 213.203C44.8574 213.203 45.9681 212.187 47.188 210.945C48.4078 209.704 49.2926 208.688 49.1546 208.688C49.0165 208.688 47.9058 209.704 46.686 210.945ZM443.619 209.549C442.019 209.969 440.807 210.411 440.928 210.531C441.153 210.757 447.367 209.263 447.743 208.893C448.113 208.528 446.599 208.769 443.619 209.549ZM94.376 211.853C94.376 212.3 102.444 216.845 102.731 216.56C102.882 216.407 102.025 215.786 100.825 215.18C99.6244 214.575 97.6829 213.521 96.5095 212.84C95.3361 212.159 94.376 211.715 94.376 211.853ZM181.414 219.975C181.414 223.286 181.496 224.575 181.595 222.839C181.693 221.105 181.691 218.396 181.592 216.819C181.493 215.244 181.413 216.664 181.414 219.975ZM333.348 214.356C333.297 215.385 335.118 217.988 337.487 220.27C339.6 222.305 339.951 222.868 339.346 223.251C338.757 223.622 338.851 223.723 339.79 223.73C341.202 223.739 341.019 223.426 337.304 219.473C336.006 218.094 334.591 216.288 334.156 215.46C333.723 214.632 333.359 214.136 333.348 214.356ZM174.696 215.869C173.177 216.166 172.387 216.476 172.939 216.559C173.491 216.64 175.185 216.396 176.704 216.013C179.971 215.193 178.64 215.096 174.696 215.869ZM314.211 217.573C313.543 218.597 312.019 220.177 310.825 221.084C309.63 221.992 308.845 222.734 309.081 222.734C310.552 222.734 316.387 216.674 315.638 215.924C315.52 215.807 314.878 216.549 314.211 217.573ZM292.666 216.624C292.666 217.534 296.41 221.326 298.222 222.25C301.203 223.77 301.265 223.407 298.315 221.716C296.816 220.858 295.108 219.344 294.356 218.209C293.027 216.202 292.666 215.863 292.666 216.624ZM105.42 217.938C105.42 218.194 109.873 220.234 110.378 220.211C110.834 220.188 109.191 219.279 107.172 218.436C106.208 218.033 105.42 217.809 105.42 217.938ZM155.871 218.959C151.729 219.585 148.851 220.127 149.474 220.162C150.84 220.238 165.301 218.243 165.61 217.934C166.003 217.543 163.51 217.805 155.871 218.959ZM144.959 220.581C145.583 220.701 146.486 220.696 146.967 220.571C147.446 220.445 146.935 220.346 145.831 220.352C144.727 220.357 144.334 220.46 144.959 220.581ZM139.43 221.081C140.052 221.201 141.068 221.201 141.689 221.081C142.311 220.962 141.802 220.864 140.56 220.864C139.318 220.864 138.809 220.962 139.43 221.081ZM114.958 222.042C116.637 222.809 136.695 222.249 137.533 221.411C137.67 221.274 134.058 221.347 129.507 221.573C119.278 222.078 116.066 222.087 114.456 221.61C113.766 221.406 113.992 221.6 114.958 222.042ZM333.328 222.735C332.404 223.03 332.924 223.149 335.295 223.185C337.065 223.213 338.421 223.153 338.307 223.051C337.778 222.586 334.456 222.375 333.328 222.735ZM302.838 223.596C303.602 223.711 304.732 223.708 305.348 223.589C305.965 223.47 305.341 223.375 303.961 223.379C302.581 223.382 302.075 223.48 302.838 223.596ZM329.038 224.135C325.34 226.208 320.263 231.899 320.281 233.953C320.284 234.267 320.88 233.507 321.605 232.265C323.51 229.005 326.666 225.901 329.529 224.476C330.898 223.794 331.693 223.246 331.294 223.257C330.893 223.268 329.879 223.663 329.038 224.135ZM211.718 224.091C212.34 224.211 213.356 224.211 213.977 224.091C214.599 223.972 214.09 223.874 212.848 223.874C211.606 223.874 211.097 223.972 211.718 224.091ZM93.7485 224.601C94.6458 224.713 96.1142 224.713 97.0115 224.601C97.9088 224.491 97.1746 224.399 95.38 224.399C93.5853 224.399 92.8512 224.491 93.7485 224.601ZM119.601 224.585C120.085 224.71 120.875 224.71 121.358 224.585C121.842 224.458 121.446 224.356 120.48 224.356C119.514 224.356 119.118 224.458 119.601 224.585ZM206.949 225.237C204.726 226.592 204.888 226.947 207.201 225.788C208.236 225.269 209.422 224.726 209.836 224.581C210.364 224.397 210.29 224.307 209.585 224.28C209.033 224.26 207.847 224.69 206.949 225.237ZM217.617 225.391C220.455 226.785 222.774 229.066 224.355 232.015C225.003 233.225 225.299 233.523 225.099 232.767C224.286 229.677 219.646 225.158 216.597 224.486C215.558 224.256 215.866 224.53 217.617 225.391ZM203.024 228.378C196.774 235.762 198.326 247.373 206.235 252.384C207.495 253.183 208.99 253.826 209.557 253.814C210.225 253.8 209.948 253.563 208.774 253.144C199.535 249.845 196.754 237.106 203.42 228.628C205.235 226.321 204.928 226.128 203.024 228.378ZM182.019 231.513C182.318 234.989 183.844 243.248 184.053 242.53C184.131 242.265 183.648 239 182.978 235.275C182.308 231.551 181.876 229.857 182.019 231.513ZM266.12 229.543C269.259 230.118 267.211 237.293 263.915 237.271C260.715 237.249 257.024 234.841 257.024 232.776C257.024 232.469 257.984 231.76 259.158 231.203C260.891 230.38 261.009 230.25 259.785 230.507C254.151 231.691 257.764 237.784 264.101 237.784C267.837 237.784 269.853 229.663 266.186 229.381L264.554 229.255L266.12 229.543ZM319.355 236.047C317.717 239.637 317.431 248.658 318.8 253.508C319.705 256.711 319.812 255.274 318.965 251.294C318.063 247.065 318.272 241.55 319.485 237.557C320.319 234.809 320.256 234.071 319.355 236.047ZM226.056 239.038C226.058 240.693 226.152 241.31 226.264 240.408C226.376 239.507 226.373 238.152 226.259 237.399C226.145 236.645 226.053 237.382 226.056 239.038ZM291.942 242.252C291.788 242.502 292.113 242.588 292.665 242.444C294.827 241.878 293.376 245.446 290.315 248.223L288.827 249.572L289.035 254.995L289.245 260.417L290.83 260.048C291.702 259.846 293.319 259.523 294.423 259.33C296.137 259.03 296.21 258.971 294.925 258.928C294.097 258.899 292.586 259.07 291.569 259.307L289.718 259.736L289.561 254.654L289.403 249.572L291.243 247.898C293.258 246.065 294.451 243.748 293.994 242.558C293.673 241.723 292.387 241.531 291.942 242.252ZM290.088 244.958C289.329 245.909 287.884 246.905 286.697 247.296C285.56 247.672 284.728 248.077 284.849 248.199C285.711 249.059 291.662 244.986 291.662 243.535C291.662 243.08 291.396 243.321 290.088 244.958ZM184.998 246.457C185.338 248.229 187.286 253.463 187.518 253.229C187.678 253.07 185.586 246.732 184.986 245.559C184.845 245.283 184.851 245.687 184.998 246.457ZM223.721 247.143C222.619 249.245 219.932 251.634 217.366 252.794C214.845 253.933 215.447 254.232 218.063 253.14C220.58 252.088 225.542 246.791 224.75 245.998C224.595 245.844 224.132 246.358 223.721 247.143ZM263.55 249.628C258.811 254.464 253.854 256.986 248.956 257.052C245.605 257.098 245.134 256.902 240.649 253.597C240.199 253.266 239.777 253.316 239.342 253.752C238.821 254.277 238.864 254.336 239.572 254.066C240.139 253.85 241.014 254.216 242.082 255.116C247.697 259.848 255.015 258.167 263.938 250.098C266.577 247.71 266.592 247.705 269.46 247.977C271.396 248.161 271.843 248.118 270.829 247.842C267.241 246.868 265.941 247.187 263.55 249.628ZM273.716 248.664C274.199 248.79 274.989 248.79 275.473 248.664C275.956 248.538 275.56 248.435 274.594 248.435C273.628 248.435 273.232 248.538 273.716 248.664ZM187.885 255.843C187.885 257.085 187.983 257.593 188.102 256.972C188.222 256.351 188.222 255.335 188.102 254.714C187.983 254.094 187.885 254.601 187.885 255.843ZM211.718 254.19C212.34 254.311 213.356 254.311 213.977 254.19C214.599 254.071 214.09 253.973 212.848 253.973C211.606 253.973 211.097 254.071 211.718 254.19ZM238.952 255.22C238.952 256.742 245.877 260.628 246.852 259.653C247.017 259.489 246.763 259.355 246.29 259.355C244.991 259.355 242.413 257.925 240.583 256.19C239.686 255.339 238.952 254.902 238.952 255.22ZM320.281 256.997C320.272 257.732 321.91 260.587 323.338 262.324C324.113 263.269 324.637 264.219 324.502 264.438C324.367 264.656 325.224 265.324 326.408 265.924C329.197 267.336 336.934 272.618 338.101 273.906C338.599 274.456 339.209 274.906 339.457 274.906C339.982 274.906 342.064 270.426 341.706 270.067C341.575 269.936 341.073 270.858 340.592 272.117C339.577 274.772 339.424 274.828 337.837 273.14C337.183 272.445 335.563 271.18 334.235 270.33C331.262 268.422 331.176 268.575 335.211 268.6C337.144 268.613 339.031 268.347 339.603 267.979C340.494 267.41 340.412 267.375 338.876 267.672C331.936 269.013 325.602 265.859 321.748 259.144C320.944 257.742 320.284 256.776 320.281 256.997ZM298.816 258.716C299.851 258.825 301.545 258.825 302.581 258.716C303.616 258.608 302.769 258.519 300.698 258.519C298.627 258.519 297.78 258.608 298.816 258.716ZM308.479 259.557C310.412 259.937 312.671 260.388 313.499 260.561C314.721 260.816 314.65 260.737 313.116 260.138C312.078 259.735 309.819 259.282 308.096 259.134L304.965 258.864L308.479 259.557ZM248.113 260.172C248.597 260.315 248.992 260.633 248.992 260.877C248.992 261.568 251.077 266.971 251.269 266.779C251.848 266.198 249.1 260.102 248.218 260.013C247.426 259.933 247.406 259.964 248.113 260.172ZM294.423 261.179C291.58 261.756 287.125 263.014 287.302 263.191C287.413 263.301 288.834 263.024 290.461 262.575C292.087 262.126 296.243 261.592 299.694 261.39L305.969 261.021L300.698 260.999C297.799 260.986 294.975 261.068 294.423 261.179ZM310.989 262.554C313.75 263.217 316.082 263.693 316.172 263.61C316.485 263.323 310.776 261.849 308.382 261.6C306.912 261.447 307.929 261.819 310.989 262.554ZM186.073 266.254C184.439 274.774 185.798 284.64 187.541 276.913C188.31 273.508 188.013 272.901 187.152 276.116C185.754 281.338 185.281 274.246 186.538 266.93C187.558 260.995 187.184 260.453 186.073 266.254ZM197.537 262.647C196.709 263.074 195.692 263.794 195.278 264.247C194.605 264.981 194.609 265.007 195.307 264.488C195.737 264.168 197.093 263.452 198.319 262.896C199.545 262.339 200.21 261.882 199.796 261.877C199.382 261.873 198.365 262.219 197.537 262.647ZM209.807 262.896C211.033 263.452 212.376 264.181 212.79 264.515C213.386 264.997 213.463 264.992 213.162 264.489C212.711 263.742 209.157 261.858 208.225 261.874C207.868 261.88 208.581 262.339 209.807 262.896ZM320.73 263.152C322.223 263.829 323.529 264.298 323.632 264.194C323.85 263.976 319.039 261.849 318.426 261.892C318.201 261.908 319.238 262.475 320.73 263.152ZM282.307 265.126C280.92 265.817 279.25 266.951 278.596 267.647L277.408 268.911L278.618 270.027L279.827 271.143L278.899 270.025C277.69 268.569 278.291 267.81 282.219 265.828C283.823 265.018 285.136 264.247 285.136 264.113C285.136 263.737 285 263.785 282.307 265.126ZM317.515 264.248C318.26 264.925 323.627 267.017 322.994 266.385C322.696 266.087 321.229 265.382 319.733 264.819C318.237 264.255 317.239 263.999 317.515 264.248ZM323.831 267.056C324.552 267.667 328.81 269.934 328.81 269.708C328.81 269.366 324.615 266.879 324.038 266.879C323.81 266.879 323.717 266.96 323.831 267.056ZM190.647 268.761C189.759 269.774 188.098 272.922 188.339 273.138C188.428 273.218 189.216 272.069 190.09 270.583C191.775 267.717 191.889 267.345 190.647 268.761ZM217.704 269.993C218.484 271.258 219.196 272.223 219.285 272.141C219.574 271.872 217.961 269.085 217.109 268.379C216.654 268.003 216.923 268.729 217.704 269.993ZM252.013 268.492C251.996 269.161 255.557 275.317 256.33 275.958C256.752 276.308 256.361 275.367 255.463 273.869C254.563 272.37 253.421 270.466 252.924 269.639C252.427 268.811 252.017 268.295 252.013 268.492ZM284.202 269.898C282.774 271.096 283.186 271.206 284.898 270.086C286.431 269.082 287.267 270.343 286.026 271.789C285.62 272.262 285.117 272.987 284.906 273.401C284.695 273.815 285.11 273.476 285.828 272.648C288.092 270.034 286.749 267.762 284.202 269.898ZM182.894 270.683C180.023 278.159 192.817 296.605 205.82 303.736C207.019 304.393 205.903 303.434 202.055 300.496C189.864 291.192 183.499 282.118 183.487 274.031C183.481 269.749 183.408 269.343 182.894 270.683ZM329.563 270.269C329.839 270.565 331.218 271.673 332.629 272.731C339.952 278.227 342.941 281.633 346.319 288.325C347.813 291.286 348.742 292.509 348.034 290.583C345.83 284.582 339.043 276.54 332.303 271.942C330.521 270.726 329.287 269.973 329.563 270.269ZM177.146 271.13C175.302 271.808 168.672 275.803 168.672 276.234C168.672 276.497 168.874 276.385 172.481 274.093C173.885 273.202 176.201 272.09 177.626 271.624C179.052 271.159 180.218 270.691 180.218 270.584C180.218 270.233 178.989 270.451 177.146 271.13ZM219.394 272.962C219.383 273.134 219.724 274.263 220.152 275.47C220.581 276.677 221.115 279.697 221.338 282.18C221.674 285.907 221.758 286.208 221.815 283.902C221.912 280.014 219.609 269.61 219.394 272.962ZM287.856 275.699C286.239 277.173 286.165 277.313 287.44 276.474C288.912 275.505 290.54 273.903 290.051 273.903C289.924 273.903 288.936 274.71 287.856 275.699ZM283.644 275.622C282.755 277.956 284.168 279.886 285.358 277.962C285.513 277.713 285.187 277.626 284.635 277.77C283.508 278.065 283.344 277.38 284.172 275.833C284.471 275.276 284.59 274.695 284.438 274.542C284.285 274.39 283.927 274.876 283.644 275.622ZM280.618 277.384C280.618 279.618 282.292 281.111 284.409 280.768C285.452 280.598 286.171 280.719 286.322 281.088C286.454 281.412 286.581 281.163 286.602 280.532C286.636 279.55 286.503 279.46 285.671 279.905C283.471 281.081 280.505 279.238 281.294 277.183C281.45 276.776 281.362 276.309 281.099 276.146C280.833 275.982 280.618 276.536 280.618 277.384ZM165.534 277.698C164.223 278.38 163.15 279.051 163.15 279.188C163.15 279.325 164.279 278.865 165.66 278.167C167.04 277.468 168.17 276.787 168.17 276.653C168.17 276.322 168.215 276.303 165.534 277.698ZM289.324 279.203C288.62 280.738 288.144 282.092 288.265 282.212C288.385 282.334 289.069 281.077 289.785 279.422C291.422 275.63 291.043 275.449 289.324 279.203ZM257.552 277.859C258.329 279.451 268.85 289.994 271.08 291.417C272.488 292.315 272.388 292.159 270.578 290.638C267.591 288.128 260.647 281.189 258.599 278.668C257.702 277.565 257.231 277.201 257.552 277.859ZM276.853 278.179L275.347 279.441L277.229 278.377C278.265 277.793 279.112 277.225 279.112 277.113C279.112 276.608 278.235 277.022 276.853 278.179ZM158.381 281.002C156.448 281.814 155.545 282.34 156.373 282.171C157.939 281.851 163.278 279.496 162.397 279.515C162.121 279.521 160.314 280.19 158.381 281.002ZM274.154 280.74C273.535 282.096 274.466 283.936 275.771 283.936C276.057 283.936 275.875 283.631 275.365 283.258C274.659 282.743 274.514 282.205 274.755 281.001C275.14 279.075 274.95 278.992 274.154 280.74ZM151.478 280.276C152.1 280.396 153.116 280.396 153.737 280.276C154.359 280.157 153.85 280.059 152.608 280.059C151.366 280.059 150.857 280.157 151.478 280.276ZM294.392 282.027L292.917 283.628L294.619 282.25C295.555 281.493 296.639 280.995 297.03 281.144C297.421 281.294 297.601 281.194 297.431 280.919C296.883 280.033 295.895 280.393 294.392 282.027ZM296.444 283.911C295.441 285.848 295.463 287.899 296.492 288.292C297.232 288.576 303.361 285.936 302.944 285.513C302.848 285.416 301.5 285.956 299.949 286.715C296.336 288.482 295.563 287.986 296.755 284.673C297.683 282.092 297.552 281.77 296.444 283.911ZM276.602 284.114C276.602 284.271 277.519 284.645 278.641 284.948C279.763 285.249 281.042 285.635 281.485 285.804C281.98 285.994 282.163 285.908 281.961 285.582C281.78 285.291 280.824 284.901 279.835 284.716C278.846 284.53 277.714 284.254 277.32 284.104C276.925 283.952 276.602 283.957 276.602 284.114ZM289.033 284.291C289.657 284.411 290.56 284.406 291.041 284.281C291.52 284.155 291.009 284.056 289.905 284.062C288.801 284.067 288.408 284.17 289.033 284.291ZM150.951 286.534C149.184 287.178 149.391 287.812 151.988 289.705C154.617 291.621 154.645 292.574 152.106 293.718C150.262 294.549 149.447 295.474 150.559 295.474C150.812 295.474 151.433 295.617 151.939 295.792C152.744 296.071 152.733 296.013 151.855 295.331C150.871 294.567 150.877 294.546 152.195 294.216C154.838 293.552 155.606 292.007 153.908 290.769C153.104 290.184 151.865 289.219 151.153 288.626L149.862 287.546L151.612 286.785C153.581 285.928 153.107 285.748 150.951 286.534ZM283.462 287.043C284.047 287.679 285.23 289.611 286.092 291.335C287.753 294.655 288.566 295.583 287.41 292.84C286.1 289.731 284.094 286.537 283.248 286.213C282.581 285.956 282.627 286.135 283.462 287.043ZM287.474 286.569C287.77 287.052 291.229 287.046 291.991 286.562C292.31 286.359 291.372 286.193 289.908 286.193C288.443 286.193 287.347 286.362 287.474 286.569ZM293.408 287.446C293.971 290.896 297.582 292.01 300.526 289.641C301.41 288.93 301.406 288.917 300.447 289.36C296.87 291.01 294.953 290.512 293.865 287.648L293.122 285.691L293.408 287.446ZM303.71 286.075C303.71 286.186 304.67 287.038 305.844 287.97C307.017 288.902 307.658 289.268 307.269 288.783C306.535 287.87 303.71 285.72 303.71 286.075ZM220.363 290.185C219.94 291.948 219.748 293.295 219.936 293.18C220.381 292.904 221.526 288.127 221.303 287.48C221.209 287.205 220.786 288.423 220.363 290.185ZM304.769 290.209C307.154 292.111 308.45 292.282 308.528 290.703C308.566 289.937 308.529 289.909 308.367 290.583C308.072 291.82 307.24 291.647 305.235 289.935C304.279 289.119 303.287 288.451 303.031 288.451C302.775 288.451 303.557 289.242 304.769 290.209ZM281.751 291.966C279.581 293.939 277.871 294.307 275.248 293.364C274.073 292.942 273.222 292.776 273.358 292.995C274.526 294.884 279.6 294.65 281.732 292.609C283.441 290.973 283.22 290.738 287.197 298.387L290.407 304.561L288.65 306.002C284.767 309.186 274.199 313.361 266.928 314.583C262.422 315.339 262.343 315.502 265.182 318.14C267.971 320.731 272.268 322.923 277.857 324.606C283.24 326.226 282.125 326.779 287.858 319.641C290.443 316.419 293.154 313.231 293.88 312.556L295.201 311.328L296.806 313.309C297.689 314.397 299.629 316.531 301.118 318.048C303.322 320.294 303.177 320.055 300.337 316.76C294.053 309.469 290.458 304.038 285.83 294.847C284.614 292.432 283.566 290.463 283.499 290.472C283.433 290.48 282.646 291.152 281.751 291.966ZM348.629 292.84C348.82 293.323 349.431 294.918 349.987 296.387C350.542 297.854 351.098 298.954 351.221 298.83C351.485 298.566 348.9 291.962 348.532 291.962C348.394 291.962 348.437 292.357 348.629 292.84ZM217.908 296.254C216.762 298.412 213.866 301.425 211.4 303.021L210.201 303.797L211.651 304.714C212.976 305.553 213.027 305.556 212.257 304.745C211.464 303.911 211.572 303.718 214.158 301.356C216.649 299.081 219.791 294.719 219.295 294.223C219.183 294.113 218.56 295.026 217.908 296.254ZM153.737 296.517C154.996 297.25 154.828 297.846 153.11 298.734C151.102 299.772 151.2 300.137 153.863 301.549C156.433 302.911 156.708 303.97 154.867 305.418C153.065 306.834 153.302 307.353 155.935 307.748C157.213 307.938 158.624 308.212 159.072 308.354C159.777 308.577 159.785 308.539 159.134 308.076C158.72 307.783 157.406 307.395 156.214 307.215L154.045 306.888L155.335 305.543C157.164 303.636 156.953 302.784 154.262 301.209L151.899 299.826L153.509 299.063C155.505 298.119 155.418 295.931 153.386 295.99C153.096 295.999 153.254 296.236 153.737 296.517ZM289.654 297.982C290.218 299.086 290.791 299.989 290.929 299.989C291.067 299.989 290.72 299.086 290.156 297.982C289.593 296.878 289.019 295.975 288.881 295.975C288.743 295.975 289.091 296.878 289.654 297.982ZM291.85 301.744C292.257 302.572 292.956 303.701 293.405 304.253C294.168 305.191 294.173 305.158 293.482 303.751C293.075 302.923 292.376 301.794 291.927 301.243C291.164 300.305 291.159 300.337 291.85 301.744ZM352.039 304.002C352.039 305.243 352.137 305.751 352.256 305.13C352.376 304.51 352.376 303.494 352.256 302.873C352.137 302.252 352.039 302.76 352.039 304.002ZM207.828 304.979C208.518 305.563 209.761 306.386 210.589 306.807L212.095 307.574L210.873 306.594C210.201 306.055 208.959 305.232 208.112 304.766L206.573 303.918L207.828 304.979ZM215.107 306.804C217.589 308.367 223.728 311.53 224.256 311.517C224.471 311.512 222.499 310.37 219.876 308.979C217.253 307.59 214.892 306.24 214.63 305.98C214.368 305.72 213.916 305.514 213.626 305.522C213.336 305.531 214.003 306.107 215.107 306.804ZM296.273 308.609C300.128 314.134 316.26 329.76 316.26 327.969C316.26 327.842 314 325.87 311.237 323.589C305.534 318.878 300.15 313.297 296.843 308.667C295.601 306.929 294.478 305.507 294.346 305.507C294.216 305.507 295.082 306.903 296.273 308.609ZM213.099 308.268C214.285 309.206 222.212 313.533 222.744 313.533C223.364 313.533 221.341 312.315 216.613 309.84C214.128 308.538 212.547 307.832 213.099 308.268ZM354.573 311.025C354.573 312.818 354.664 313.552 354.775 312.655C354.886 311.759 354.886 310.291 354.775 309.395C354.664 308.498 354.573 309.231 354.573 311.025ZM161.393 308.998C165.501 310.705 167.842 311.523 167.417 311.099C166.845 310.53 161.653 308.5 160.891 308.549C160.615 308.566 160.841 308.767 161.393 308.998ZM352.045 313.784C352.049 315.164 352.147 315.669 352.262 314.906C352.378 314.143 352.375 313.014 352.256 312.398C352.137 311.781 352.041 312.404 352.045 313.784ZM169.869 312.685C170.389 313.014 172.531 314.383 174.628 315.73C176.725 317.077 178.146 317.824 177.786 317.39C177.013 316.459 169.987 312.014 169.357 312.058C169.119 312.073 169.348 312.356 169.869 312.685ZM226.778 312.64C227.951 313.206 228.267 314.256 227.421 314.779C227.153 314.944 226.26 314.731 225.438 314.306C224.615 313.881 223.761 313.543 223.541 313.556C223.32 313.567 223.972 314.017 224.99 314.555C227.046 315.64 228.41 315.418 228.41 313.998C228.41 313.137 227.009 311.983 226.058 312.062C225.833 312.081 226.157 312.34 226.778 312.64ZM354.539 316.794C354.544 317.898 354.647 318.29 354.767 317.666C354.888 317.042 354.883 316.139 354.757 315.659C354.632 315.18 354.533 315.69 354.539 316.794ZM179.214 318.653C180.165 319.612 191.399 329.404 195.954 333.244C197.844 334.837 200.737 337.09 202.383 338.25C204.535 339.766 205.308 340.605 205.141 341.242C205.014 341.729 205.115 342.127 205.364 342.127C207.055 342.127 205.342 339.88 201.427 336.96C199.012 335.159 193.534 330.604 189.254 326.838C182.482 320.879 176.956 316.374 179.214 318.653ZM352.61 326.827C352.609 331.517 352.684 333.504 352.777 331.242C352.87 328.978 352.871 325.14 352.778 322.713C352.686 320.285 352.61 322.137 352.61 326.827ZM304.212 321.255C304.212 321.738 316.26 331.361 318.645 332.783C320.442 333.854 318.78 332.393 314.879 329.472C312.464 327.663 309.176 325.03 307.572 323.62C304.834 321.215 304.212 320.777 304.212 321.255ZM316.762 328.281C316.762 328.408 317.496 329.029 318.393 329.658C319.551 330.469 319.818 330.544 319.313 329.916C318.594 329.022 316.762 327.847 316.762 328.281ZM320.614 331.122C320.937 331.519 321.954 332.281 322.873 332.815C323.921 333.425 324.323 333.518 323.954 333.066C323.631 332.67 322.614 331.907 321.695 331.373C320.647 330.764 320.245 330.671 320.614 331.122ZM319.774 333.322C319.774 333.659 325.922 337.64 328.356 338.878C331.517 340.486 329.146 338.867 320.151 333.272C319.943 333.144 319.774 333.167 319.774 333.322ZM325.547 334.366C326.099 334.815 327.229 335.513 328.057 335.919C329.465 336.61 329.498 336.605 328.559 335.843C328.007 335.394 326.877 334.695 326.049 334.289C324.641 333.598 324.608 333.603 325.547 334.366ZM354.549 335.606C354.549 336.848 354.647 337.355 354.766 336.735C354.886 336.114 354.886 335.098 354.766 334.477C354.647 333.856 354.549 334.364 354.549 335.606ZM352.063 339.117C352.063 340.911 352.154 341.645 352.265 340.748C352.376 339.851 352.376 338.384 352.265 337.487C352.154 336.59 352.063 337.324 352.063 339.117ZM330.383 337.221C330.834 337.589 331.316 338.334 331.454 338.879C331.681 339.777 331.712 339.766 331.764 338.759C331.801 338.067 331.397 337.442 330.693 337.101C329.719 336.629 329.676 336.646 330.383 337.221ZM198.308 341.199C197.664 342.346 197.374 343.136 197.662 342.958C198.403 342.5 200.348 339.117 199.871 339.117C199.655 339.117 198.951 340.054 198.308 341.199ZM202.055 340.829C202.883 341.54 203.768 342.124 204.022 342.125C204.566 342.127 204.56 342.122 202.306 340.669L200.549 339.536L202.055 340.829ZM266.709 344.051C263.884 346.402 260.859 349.717 256.796 354.92C251.949 361.124 254.242 358.836 260.036 351.686C266.116 344.183 270.096 341.216 271.797 342.916C272.231 343.349 272.586 343.471 272.586 343.185C272.586 342.635 270.997 341.626 270.135 341.626C269.855 341.626 268.314 342.717 266.709 344.051ZM196.092 345.295C195.003 347.179 194.204 349.151 194.529 349.151C194.845 349.151 197.395 344.076 197.184 343.866C197.091 343.773 196.601 344.416 196.092 345.295ZM266.022 348.047L262.295 351.91L265.822 348.523C269.748 344.754 269.915 344.667 270.224 346.266C270.415 347.254 270.45 347.227 270.51 346.045C270.627 343.725 269.865 344.065 266.022 348.047ZM273.59 344.48C275.268 344.816 276.1 345.559 276.1 346.72C276.1 347.246 276.458 347.814 276.894 347.982C277.332 348.15 277.882 348.763 278.118 349.346C278.448 350.161 278.554 350.209 278.579 349.556C278.596 349.088 278.212 348.411 277.728 348.051C277.242 347.689 276.616 346.718 276.337 345.89C275.913 344.628 275.548 344.372 274.083 344.307C272.893 344.254 272.735 344.31 273.59 344.48ZM351.551 347.646C351.551 349.163 351.645 349.784 351.76 349.025C351.874 348.266 351.874 347.025 351.76 346.266C351.645 345.507 351.551 346.128 351.551 347.646ZM272.704 347.269C272.424 347.614 270.581 351.13 268.605 355.08C265.31 361.672 263.593 363.77 263.91 360.815C264.066 359.368 262.095 361.091 245.843 376.61C219.993 401.295 206.302 408.566 198.527 401.744C195.484 399.074 185.894 387.438 184.356 384.55C182.749 381.532 183.024 400.783 184.7 408.634C188.685 427.313 198.186 436.243 223.641 445.235C235.616 449.465 237.728 450.33 246.231 454.491C253.425 458.013 257.998 460.807 270.578 469.37C285.642 479.624 291.017 482.235 297.184 482.297C308.653 482.411 317.989 474.468 327.109 456.84C328.369 454.405 329.269 452.282 329.11 452.122C328.951 451.963 328.337 452.994 327.746 454.414C326.886 456.482 326.362 457.082 325.107 457.441C324.244 457.686 321.28 458.787 318.519 459.887C309.59 463.445 306.692 463.7 300.155 461.513C284.432 456.251 272.661 445.681 250.138 416.597L248.563 414.565L249.564 412.834C250.322 411.524 250.344 411.406 249.653 412.346C244.426 419.456 242.689 421.649 240.034 424.486C233.64 431.316 230.186 430.505 230.522 422.25C230.718 417.416 232.102 416.941 232.304 421.639C232.582 428.101 233.315 428.342 238.008 423.521C247.322 413.955 263.234 388.251 268.209 374.735C270.25 369.189 270.858 367.154 270.181 368.127C269.849 368.605 269.634 368.281 269.423 366.979C269.175 365.448 269.588 364.254 272.085 359.29C275.129 353.242 275.634 352.72 274.362 356.949C273.373 360.228 273.768 360.416 274.845 357.178C277.208 350.067 276.164 350.178 272.504 357.428C268.399 365.558 268.827 364.907 267.826 364.524C267.154 364.267 267.266 363.772 268.59 361.15C269.444 359.461 270.033 357.971 269.902 357.838C269.769 357.706 269.135 358.745 268.491 360.147C267.292 362.758 266.733 363.223 266.263 361.999C265.805 360.806 273.104 346.795 273.663 347.794C273.964 348.332 273.945 348.989 273.611 349.612C273.324 350.15 273.097 350.773 273.108 350.999C273.119 351.224 273.446 350.824 273.835 350.109C274.945 348.067 273.993 345.675 272.704 347.269ZM268.332 350.129C267.458 351.817 267.368 352.342 268.019 351.94C268.497 351.645 269.672 348.649 269.309 348.649C269.194 348.649 268.753 349.315 268.332 350.129ZM192.333 353.23C191.739 354.66 191.336 355.914 191.44 356.017C191.543 356.12 192.125 355.046 192.734 353.632C193.344 352.217 193.746 350.964 193.628 350.846C193.51 350.728 192.927 351.802 192.333 353.23ZM271.592 353.645C270.453 355.879 270.238 356.914 271.228 355.407C272.076 354.117 273.131 351.659 272.837 351.659C272.71 351.659 272.151 352.553 271.592 353.645ZM351.025 354.418C351.03 355.522 351.133 355.914 351.253 355.29C351.374 354.666 351.369 353.763 351.243 353.283C351.118 352.804 351.018 353.314 351.025 354.418ZM276.99 356.472C276.538 358.094 276.243 359.493 276.335 359.585C276.625 359.875 278.198 354.689 278 354.094C277.896 353.782 277.44 354.852 276.99 356.472ZM265.599 355.596C264.797 357.092 264.043 359.184 264.306 359.184C264.691 359.184 266.647 355.089 266.386 354.828C266.252 354.693 265.897 355.039 265.599 355.596ZM254.778 361.303C252.081 364.675 250.278 367.102 250.773 366.696C251.267 366.288 253.366 363.811 255.435 361.19C260.336 354.984 260.197 355.17 259.921 355.17C259.79 355.17 257.476 357.929 254.778 361.303ZM350.195 360.438C349.979 362.645 349.602 365.918 349.357 367.712C348.866 371.287 348.777 373.009 349.097 372.687C349.467 372.314 350.977 358.743 350.78 357.566C350.675 356.939 350.411 358.23 350.195 360.438ZM224.22 357.702C222.88 357.927 221.638 358.259 221.459 358.441C221.278 358.623 222.035 358.583 223.139 358.352C224.243 358.123 227.745 357.95 230.92 357.97C234.922 357.993 236.077 357.886 234.685 357.62C232.152 357.134 227.383 357.172 224.22 357.702ZM189.284 360.973C188.694 362.548 188.295 364.085 188.396 364.387C188.497 364.691 189.068 363.492 189.667 361.723C191.027 357.696 190.73 357.113 189.284 360.973ZM239.454 359.038C239.868 359.19 241.511 359.836 243.104 360.473C244.697 361.109 245.88 361.434 245.73 361.191C245.409 360.674 240.188 358.664 239.31 358.722C238.971 358.743 239.035 358.884 239.454 359.038ZM251.742 361.422C249.932 363.628 249.884 363.65 248.57 362.873L247.235 362.084L248.42 363.143C249.98 364.534 249.946 364.548 252.166 361.671C254.555 358.575 254.232 358.386 251.742 361.422ZM213.601 360.907C210.303 362.493 210.945 362.542 214.416 360.968C215.9 360.295 216.889 359.733 216.613 359.72C216.337 359.708 214.981 360.242 213.601 360.907ZM224.171 360.12C223.359 360.295 225.798 360.438 229.595 360.438C233.391 360.438 235.976 360.291 235.34 360.112C233.868 359.697 226.12 359.703 224.171 360.12ZM243.219 363.101C245.428 364.162 247.545 365.409 247.924 365.869C248.303 366.331 248.868 366.703 249.179 366.697C250.708 366.667 243.248 362.22 240.458 361.497C239.768 361.319 241.01 362.04 243.219 363.101ZM215.622 362.493C214.523 362.895 213.394 363.459 213.112 363.747C212.828 364.036 213.839 363.785 215.358 363.191C219.388 361.613 219.605 361.035 215.622 362.493ZM271.9 363.366C271.514 364.287 271.049 365.585 270.865 366.251C270.35 368.116 271.448 366.213 272.33 363.711C273.192 361.273 272.88 361.022 271.9 363.366ZM207.346 364.226C202.074 367.631 195.278 374.757 195.278 376.881C195.278 377.85 196.418 378.293 197.331 377.677C197.881 377.307 197.819 377.234 197.054 377.347C192.965 377.954 201.401 368.32 208.957 363.751C210.612 362.752 211.224 362.193 210.667 362.193C210.571 362.193 209.077 363.109 207.346 364.226ZM273.875 364.765C273.419 365.902 273.162 366.949 273.304 367.091C273.551 367.339 274.059 366.238 274.812 363.824C275.406 361.916 274.752 362.574 273.875 364.765ZM208.232 366.496C204.822 368.795 197.503 376.122 198.06 376.68C198.229 376.847 198.604 376.535 198.895 375.985C199.879 374.13 206.05 368.411 209.335 366.308C211.129 365.161 212.371 364.224 212.095 364.226C211.819 364.229 210.081 365.251 208.232 366.496ZM185.991 372.227C185.51 374.184 185.237 375.904 185.381 376.048C185.525 376.192 186.014 374.686 186.465 372.701C186.917 370.715 187.192 368.995 187.075 368.879C186.959 368.763 186.472 370.269 185.991 372.227ZM270.627 373.818C269.445 377.32 269.549 378.472 270.749 375.141C271.81 372.191 272.197 370.722 271.913 370.722C271.782 370.722 271.203 372.115 270.627 373.818ZM347.403 381.605C346.602 386.194 346.178 390.092 346.513 389.784C346.868 389.458 348.47 378.663 348.202 378.396C348.091 378.283 347.73 379.728 347.403 381.605ZM267.384 382.078C266.908 383.074 266.629 383.998 266.762 384.132C266.896 384.265 267.36 383.525 267.794 382.488C268.819 380.039 268.506 379.726 267.384 382.078ZM263.239 390.326C261.548 393.327 260.355 395.666 260.586 395.525C261.15 395.175 266.74 385.278 266.501 385.05C266.396 384.951 264.928 387.326 263.239 390.326ZM257.432 399.943C254.209 404.815 253.895 405.336 254.181 405.336C254.337 405.336 255.448 403.812 256.649 401.95C259.505 397.521 259.631 397.309 259.383 397.309C259.268 397.309 258.391 398.494 257.432 399.943ZM343.653 402.626C343.181 404.997 342.902 407.044 343.033 407.174C343.273 407.415 344.088 404.028 344.679 400.33C345.281 396.574 344.515 398.284 343.653 402.626ZM252.815 407.091C250.736 410.306 250.305 411.119 251.084 410.352C251.968 409.483 254.209 405.837 253.86 405.837C253.731 405.837 253.26 406.402 252.815 407.091ZM340.716 415.731C339.701 419.48 339.164 422.208 339.501 421.89C339.897 421.52 341.949 413.281 341.706 413.04C341.593 412.926 341.147 414.137 340.716 415.731ZM337.626 427.44C337.152 429.128 336.863 430.608 336.984 430.728C337.106 430.848 337.591 429.567 338.066 427.879C338.54 426.191 338.829 424.711 338.708 424.59C338.586 424.47 338.101 425.752 337.626 427.44ZM334.663 437.035C333.602 439.985 333.215 441.455 333.499 441.455C333.825 441.455 335.881 435.311 335.637 435.066C335.529 434.96 335.093 435.845 334.663 437.035ZM330.881 447.286C330.282 448.849 329.877 450.214 329.981 450.316C330.084 450.421 330.659 449.225 331.257 447.663C331.856 446.1 332.261 444.736 332.157 444.633C332.054 444.529 331.479 445.724 330.881 447.286ZM266.562 469.881C266.562 473.431 277.833 493.099 284.143 500.557C287.713 504.776 288.373 504.931 286.173 501.036C284.441 497.968 284.197 496.479 285.47 496.726C285.94 496.816 287.687 499.407 289.465 502.649C292.463 508.121 293.67 509.664 293.67 508.027C293.67 507.209 292.908 505.266 290.313 499.471C287.484 493.156 289.452 492.561 292.456 498.822L294.175 502.406L293.981 498.141C293.838 495 293.342 492.566 292.097 488.895L290.407 483.912L287.646 482.449C284.723 480.9 276.686 475.958 270.829 472.108C266.741 469.421 266.562 469.328 266.562 469.881ZM296.352 501.904C296.354 504.111 296.442 504.951 296.548 503.771C296.654 502.592 296.653 500.786 296.545 499.758C296.437 498.731 296.351 499.697 296.352 501.904Z" fill="#DFA204"/>
<path d="M213.789 237.813C216.442 237.813 218.593 235.676 218.593 233.039C218.593 230.402 216.442 228.264 213.789 228.264C211.136 228.264 208.985 230.402 208.985 233.039C208.985 235.676 211.136 237.813 213.789 237.813Z" fill="white"/>
<path d="M300.302 210.232C302.592 210.232 304.449 208.336 304.449 205.998C304.449 203.66 302.592 201.765 300.302 201.765C298.011 201.765 296.155 203.66 296.155 205.998C296.155 208.336 298.011 210.232 300.302 210.232Z" fill="white"/>
<g filter="url(#filter0_df)">
<ellipse cx="295" cy="542" rx="237" ry="27" fill="#C4C4C4"/>
</g>
<defs>
<filter id="filter0_df" x="52" y="511" width="486" height="77" filterUnits="userSpaceOnUse" color-interpolation-filters="sRGB">
<feFlood flood-opacity="0" result="BackgroundImageFix"/>
<feColorMatrix in="SourceAlpha" type="matrix" values="0 0 0 0 0 0 0 0 0 0 0 0 0 0 0 0 0 0 127 0" result="hardAlpha"/>
<feOffset dy="13"/>
<feGaussianBlur stdDeviation="3"/>
<feColorMatrix type="matrix" values="0 0 0 0 0 0 0 0 0 0 0 0 0 0 0 0 0 0 0.25 0"/>
<feBlend mode="normal" in2="BackgroundImageFix" result="effect1_dropShadow"/>
<feBlend mode="normal" in="SourceGraphic" in2="effect1_dropShadow" result="shape"/>
<feGaussianBlur stdDeviation="2" result="effect2_foregroundBlur"/>
</filter>
</defs>
</svg>
